%TF.GenerationSoftware,KiCad,Pcbnew,(6.0.0)*%
%TF.CreationDate,2022-12-31T23:54:09-06:00*%
%TF.ProjectId,WheelspeedController,57686565-6c73-4706-9565-64436f6e7472,rev?*%
%TF.SameCoordinates,Original*%
%TF.FileFunction,Legend,Bot*%
%TF.FilePolarity,Positive*%
%FSLAX46Y46*%
G04 Gerber Fmt 4.6, Leading zero omitted, Abs format (unit mm)*
G04 Created by KiCad (PCBNEW (6.0.0)) date 2022-12-31 23:54:09*
%MOMM*%
%LPD*%
G01*
G04 APERTURE LIST*
G04 Aperture macros list*
%AMRoundRect*
0 Rectangle with rounded corners*
0 $1 Rounding radius*
0 $2 $3 $4 $5 $6 $7 $8 $9 X,Y pos of 4 corners*
0 Add a 4 corners polygon primitive as box body*
4,1,4,$2,$3,$4,$5,$6,$7,$8,$9,$2,$3,0*
0 Add four circle primitives for the rounded corners*
1,1,$1+$1,$2,$3*
1,1,$1+$1,$4,$5*
1,1,$1+$1,$6,$7*
1,1,$1+$1,$8,$9*
0 Add four rect primitives between the rounded corners*
20,1,$1+$1,$2,$3,$4,$5,0*
20,1,$1+$1,$4,$5,$6,$7,0*
20,1,$1+$1,$6,$7,$8,$9,0*
20,1,$1+$1,$8,$9,$2,$3,0*%
G04 Aperture macros list end*
%ADD10C,1.500000*%
%ADD11RoundRect,0.250001X-0.499999X-0.499999X0.499999X-0.499999X0.499999X0.499999X-0.499999X0.499999X0*%
%ADD12C,3.000000*%
%ADD13R,1.000000X1.000000*%
%ADD14R,1.700000X1.700000*%
%ADD15O,1.700000X1.700000*%
%ADD16C,4.000000*%
%ADD17O,1.000000X1.000000*%
%ADD18RoundRect,0.250001X0.499999X-0.499999X0.499999X0.499999X-0.499999X0.499999X-0.499999X-0.499999X0*%
%ADD19RoundRect,0.250001X-0.499999X0.499999X-0.499999X-0.499999X0.499999X-0.499999X0.499999X0.499999X0*%
%ADD20C,2.374900*%
%ADD21C,0.990600*%
G04 APERTURE END LIST*
%LPC*%
D10*
%TO.C,J2*%
X93180000Y-79710000D03*
X90180000Y-79710000D03*
X87180000Y-79710000D03*
X93180000Y-76710000D03*
X90180000Y-76710000D03*
D11*
X87180000Y-76710000D03*
D12*
X90180000Y-72390000D03*
%TD*%
D13*
%TO.C,TP11*%
X111506000Y-94132400D03*
%TD*%
D14*
%TO.C,J4*%
X106421000Y-77470000D03*
D15*
X108961000Y-77470000D03*
%TD*%
D16*
%TO.C,TP4*%
X61976000Y-102463600D03*
%TD*%
%TO.C,TP1*%
X61976000Y-72644000D03*
%TD*%
%TO.C,TP2*%
X118364000Y-102616000D03*
%TD*%
D13*
%TO.C,TP9*%
X112776000Y-79248000D03*
%TD*%
%TO.C,TP5*%
X114249200Y-97078800D03*
%TD*%
%TO.C,SW2*%
X103891000Y-82042000D03*
D17*
X102621000Y-82042000D03*
X101351000Y-82042000D03*
%TD*%
D10*
%TO.C,J1*%
X68577000Y-84654000D03*
X68577000Y-87654000D03*
X68577000Y-90654000D03*
X65577000Y-84654000D03*
X65577000Y-87654000D03*
D18*
X65577000Y-90654000D03*
D12*
X61257000Y-87654000D03*
%TD*%
D13*
%TO.C,TP7*%
X114249200Y-100507800D03*
%TD*%
D10*
%TO.C,J3*%
X111763000Y-90664000D03*
X111763000Y-87664000D03*
X111763000Y-84664000D03*
X114763000Y-90664000D03*
X114763000Y-87664000D03*
D19*
X114763000Y-84664000D03*
D12*
X119083000Y-87664000D03*
%TD*%
D16*
%TO.C,TP3*%
X118364000Y-72644000D03*
%TD*%
D20*
%TO.C,J6*%
X101650800Y-102539800D03*
D21*
X104190800Y-102539800D03*
D20*
X106730800Y-102539800D03*
D21*
X105206800Y-97459800D03*
D20*
X106730800Y-99364800D03*
D21*
X103174800Y-97459800D03*
D20*
X101650800Y-99364800D03*
%TD*%
M02*
