%TF.GenerationSoftware,KiCad,Pcbnew,(6.0.0)*%
%TF.CreationDate,2022-12-31T23:57:21-06:00*%
%TF.ProjectId,WheelspeedController,57686565-6c73-4706-9565-64436f6e7472,rev?*%
%TF.SameCoordinates,Original*%
%TF.FileFunction,Copper,L3,Inr*%
%TF.FilePolarity,Positive*%
%FSLAX46Y46*%
G04 Gerber Fmt 4.6, Leading zero omitted, Abs format (unit mm)*
G04 Created by KiCad (PCBNEW (6.0.0)) date 2022-12-31 23:57:21*
%MOMM*%
%LPD*%
G01*
G04 APERTURE LIST*
G04 Aperture macros list*
%AMRoundRect*
0 Rectangle with rounded corners*
0 $1 Rounding radius*
0 $2 $3 $4 $5 $6 $7 $8 $9 X,Y pos of 4 corners*
0 Add a 4 corners polygon primitive as box body*
4,1,4,$2,$3,$4,$5,$6,$7,$8,$9,$2,$3,0*
0 Add four circle primitives for the rounded corners*
1,1,$1+$1,$2,$3*
1,1,$1+$1,$4,$5*
1,1,$1+$1,$6,$7*
1,1,$1+$1,$8,$9*
0 Add four rect primitives between the rounded corners*
20,1,$1+$1,$2,$3,$4,$5,0*
20,1,$1+$1,$4,$5,$6,$7,0*
20,1,$1+$1,$6,$7,$8,$9,0*
20,1,$1+$1,$8,$9,$2,$3,0*%
G04 Aperture macros list end*
%TA.AperFunction,ComponentPad*%
%ADD10C,1.500000*%
%TD*%
%TA.AperFunction,ComponentPad*%
%ADD11RoundRect,0.250001X-0.499999X-0.499999X0.499999X-0.499999X0.499999X0.499999X-0.499999X0.499999X0*%
%TD*%
%TA.AperFunction,ComponentPad*%
%ADD12R,1.000000X1.000000*%
%TD*%
%TA.AperFunction,ComponentPad*%
%ADD13R,1.700000X1.700000*%
%TD*%
%TA.AperFunction,ComponentPad*%
%ADD14O,1.700000X1.700000*%
%TD*%
%TA.AperFunction,ComponentPad*%
%ADD15C,4.000000*%
%TD*%
%TA.AperFunction,ComponentPad*%
%ADD16O,1.000000X1.000000*%
%TD*%
%TA.AperFunction,ComponentPad*%
%ADD17RoundRect,0.250001X0.499999X-0.499999X0.499999X0.499999X-0.499999X0.499999X-0.499999X-0.499999X0*%
%TD*%
%TA.AperFunction,ComponentPad*%
%ADD18RoundRect,0.250001X-0.499999X0.499999X-0.499999X-0.499999X0.499999X-0.499999X0.499999X0.499999X0*%
%TD*%
%TA.AperFunction,ViaPad*%
%ADD19C,0.800000*%
%TD*%
%TA.AperFunction,ViaPad*%
%ADD20C,0.600000*%
%TD*%
G04 APERTURE END LIST*
D10*
%TO.N,/Extra1*%
%TO.C,J2*%
X93180000Y-79710000D03*
%TO.N,+5V*%
X90180000Y-79710000D03*
%TO.N,+24V*%
X87180000Y-79710000D03*
%TO.N,/WheelIn1*%
X93180000Y-76710000D03*
%TO.N,/WheelIn2*%
X90180000Y-76710000D03*
D11*
%TO.N,GND*%
X87180000Y-76710000D03*
%TD*%
D12*
%TO.N,Net-(D9-Pad4)*%
%TO.C,TP11*%
X111506000Y-94132400D03*
%TD*%
D13*
%TO.N,Net-(C19-Pad2)*%
%TO.C,J4*%
X106421000Y-77470000D03*
D14*
%TO.N,Net-(J4-Pad2)*%
X108961000Y-77470000D03*
%TD*%
D15*
%TO.N,GND*%
%TO.C,TP4*%
X61976000Y-102463600D03*
%TD*%
%TO.N,GND*%
%TO.C,TP1*%
X61976000Y-72644000D03*
%TD*%
%TO.N,GND*%
%TO.C,TP2*%
X118364000Y-102616000D03*
%TD*%
D12*
%TO.N,Net-(D9-Pad6)*%
%TO.C,TP9*%
X112776000Y-79248000D03*
%TD*%
%TO.N,/MCU/CAN1_TX*%
%TO.C,TP5*%
X114249200Y-97078800D03*
%TD*%
%TO.N,+3V3*%
%TO.C,SW2*%
X103891000Y-82042000D03*
D16*
%TO.N,Net-(R22-Pad1)*%
X102621000Y-82042000D03*
%TO.N,GND*%
X101351000Y-82042000D03*
%TD*%
D10*
%TO.N,/SHIELD*%
%TO.C,J1*%
X68577000Y-84654000D03*
%TO.N,/CAN+*%
X68577000Y-87654000D03*
%TO.N,+24V*%
X68577000Y-90654000D03*
%TO.N,/PassThru*%
X65577000Y-84654000D03*
%TO.N,/CAN-*%
X65577000Y-87654000D03*
D17*
%TO.N,GND*%
X65577000Y-90654000D03*
%TD*%
D12*
%TO.N,/MCU/CAN1_RX*%
%TO.C,TP7*%
X114249200Y-100507800D03*
%TD*%
D10*
%TO.N,/SHIELD*%
%TO.C,J3*%
X111763000Y-90664000D03*
%TO.N,/CAN+*%
X111763000Y-87664000D03*
%TO.N,+24V*%
X111763000Y-84664000D03*
%TO.N,/PassThru*%
X114763000Y-90664000D03*
%TO.N,/CAN-*%
X114763000Y-87664000D03*
D18*
%TO.N,GND*%
X114763000Y-84664000D03*
%TD*%
D15*
%TO.N,GND*%
%TO.C,TP3*%
X118364000Y-72644000D03*
%TD*%
D19*
%TO.N,/WheelIn2*%
X88779000Y-78111000D03*
%TO.N,/WheelIn1*%
X94475400Y-77769000D03*
%TO.N,+24V*%
X69850000Y-80264000D03*
X70612000Y-79502000D03*
X71374000Y-78740000D03*
X72136000Y-77978000D03*
%TO.N,GND*%
X82550000Y-79502000D03*
X90932000Y-90424000D03*
X86614000Y-102362000D03*
X71374000Y-82296000D03*
D20*
X70358000Y-94488000D03*
D19*
X83312000Y-102616000D03*
X95961200Y-82499200D03*
D20*
X71120000Y-95504000D03*
D19*
X94996000Y-102108000D03*
D20*
X70358000Y-92456000D03*
D19*
X77470000Y-79502000D03*
X74676000Y-104140000D03*
X100838000Y-86868000D03*
X86106000Y-81788000D03*
D20*
X74168000Y-95504000D03*
X79502000Y-98679000D03*
D19*
X65786000Y-104140000D03*
X99568000Y-74422000D03*
D20*
X83185000Y-87376000D03*
X97078800Y-91236800D03*
X70358000Y-93472000D03*
D19*
X88900000Y-97028000D03*
D20*
X110896400Y-100939600D03*
X101346000Y-92913200D03*
X70358000Y-91440000D03*
D19*
X107746800Y-90322400D03*
D20*
X105257600Y-96113600D03*
X92710000Y-86106000D03*
%TO.N,/WheelIn1*%
X93218000Y-92456000D03*
D19*
X84582000Y-74930000D03*
D20*
X98044000Y-85852000D03*
%TO.N,/WheelIn2*%
X90424000Y-92710000D03*
X90271600Y-84378800D03*
%TO.N,+3V3*%
X102565200Y-95859600D03*
X102362000Y-90576400D03*
X104952800Y-103733600D03*
X99060000Y-102717600D03*
X89535000Y-85979000D03*
X88138000Y-87630000D03*
X102565200Y-93192600D03*
D19*
%TO.N,+5V*%
X79756000Y-89662000D03*
D20*
X81534000Y-98552000D03*
X82296000Y-103886000D03*
%TO.N,Net-(D9-Pad4)*%
X105156000Y-89154000D03*
X106680000Y-89154000D03*
X107035600Y-93268800D03*
%TO.N,/MCU/BOOT0*%
X98450400Y-89662000D03*
X96926400Y-92659200D03*
%TO.N,/MCU/CAN1_TX*%
X105486200Y-92202000D03*
%TO.N,/MCU/CAN1_RX*%
X106807000Y-96164400D03*
%TO.N,Net-(D10-Pad5)*%
X81686400Y-96977200D03*
X81076800Y-93218000D03*
%TO.N,Net-(R22-Pad1)*%
X99949000Y-86334600D03*
%TO.N,/Extra1*%
X92456000Y-93726000D03*
D19*
%TO.N,/SHIELD*%
X63347600Y-94945200D03*
%TD*%
%TA.AperFunction,Conductor*%
%TO.N,GND*%
G36*
X89286184Y-70378002D02*
G01*
X89332677Y-70431658D01*
X89342781Y-70501932D01*
X89313287Y-70566512D01*
X89277216Y-70595251D01*
X89116950Y-70680466D01*
X89116944Y-70680470D01*
X89113058Y-70682536D01*
X89109499Y-70685122D01*
X89109497Y-70685123D01*
X88907328Y-70832007D01*
X88885808Y-70847642D01*
X88882644Y-70850698D01*
X88882641Y-70850700D01*
X88815540Y-70915499D01*
X88683748Y-71042769D01*
X88510812Y-71264118D01*
X88508616Y-71267922D01*
X88508611Y-71267929D01*
X88394794Y-71465067D01*
X88370364Y-71507381D01*
X88265138Y-71767824D01*
X88264073Y-71772097D01*
X88264072Y-71772099D01*
X88230379Y-71907236D01*
X88197183Y-72040376D01*
X88167822Y-72319733D01*
X88177625Y-72600458D01*
X88178387Y-72604781D01*
X88178388Y-72604788D01*
X88202164Y-72739624D01*
X88226402Y-72877087D01*
X88313203Y-73144235D01*
X88436340Y-73396702D01*
X88438795Y-73400341D01*
X88438798Y-73400347D01*
X88511890Y-73508710D01*
X88593415Y-73629576D01*
X88781371Y-73838322D01*
X88996550Y-74018879D01*
X89234764Y-74167731D01*
X89368484Y-74227267D01*
X89422090Y-74251134D01*
X89491375Y-74281982D01*
X89761390Y-74359407D01*
X89765740Y-74360018D01*
X89765743Y-74360019D01*
X89868690Y-74374487D01*
X90039552Y-74398500D01*
X90250146Y-74398500D01*
X90252332Y-74398347D01*
X90252336Y-74398347D01*
X90455827Y-74384118D01*
X90455832Y-74384117D01*
X90460212Y-74383811D01*
X90734970Y-74325409D01*
X90739099Y-74323906D01*
X90739103Y-74323905D01*
X90994781Y-74230846D01*
X90994785Y-74230844D01*
X90998926Y-74229337D01*
X91246942Y-74097464D01*
X91250503Y-74094877D01*
X91470629Y-73934947D01*
X91470632Y-73934944D01*
X91474192Y-73932358D01*
X91676252Y-73737231D01*
X91849188Y-73515882D01*
X91851384Y-73512078D01*
X91851389Y-73512071D01*
X91987435Y-73276431D01*
X91989636Y-73272619D01*
X92094862Y-73012176D01*
X92128544Y-72877087D01*
X92161753Y-72743893D01*
X92161754Y-72743888D01*
X92162817Y-72739624D01*
X92192178Y-72460267D01*
X92182375Y-72179542D01*
X92158608Y-72044749D01*
X92134360Y-71907236D01*
X92133598Y-71902913D01*
X92046797Y-71635765D01*
X91923660Y-71383298D01*
X91921205Y-71379659D01*
X91921202Y-71379653D01*
X91840935Y-71260653D01*
X91766585Y-71150424D01*
X91578629Y-70941678D01*
X91363450Y-70761121D01*
X91125236Y-70612269D01*
X91095674Y-70599107D01*
X91041578Y-70553126D01*
X91020929Y-70485199D01*
X91040282Y-70416891D01*
X91093492Y-70369890D01*
X91146923Y-70358000D01*
X120600671Y-70358000D01*
X120620056Y-70359500D01*
X120634858Y-70361805D01*
X120634860Y-70361805D01*
X120643729Y-70363186D01*
X120652629Y-70362022D01*
X120661605Y-70362132D01*
X120661595Y-70362950D01*
X120683086Y-70363241D01*
X120708778Y-70367310D01*
X120746270Y-70379492D01*
X120781517Y-70397451D01*
X120813410Y-70420623D01*
X120841377Y-70448590D01*
X120864549Y-70480483D01*
X120882508Y-70515730D01*
X120894690Y-70553221D01*
X120898624Y-70578059D01*
X120900054Y-70597768D01*
X120898814Y-70605731D01*
X120902454Y-70633568D01*
X120902936Y-70637252D01*
X120904000Y-70653590D01*
X120904000Y-86359831D01*
X120883998Y-86427952D01*
X120830342Y-86474445D01*
X120760068Y-86484549D01*
X120695488Y-86455055D01*
X120673541Y-86430289D01*
X120673494Y-86430220D01*
X120669585Y-86424424D01*
X120648218Y-86400693D01*
X120484566Y-86218940D01*
X120481629Y-86215678D01*
X120469712Y-86205678D01*
X120357644Y-86111642D01*
X120266450Y-86035121D01*
X120028236Y-85886269D01*
X119771625Y-85772018D01*
X119501610Y-85694593D01*
X119497260Y-85693982D01*
X119497257Y-85693981D01*
X119368538Y-85675891D01*
X119223448Y-85655500D01*
X119012854Y-85655500D01*
X119010668Y-85655653D01*
X119010664Y-85655653D01*
X118807173Y-85669882D01*
X118807168Y-85669883D01*
X118802788Y-85670189D01*
X118528030Y-85728591D01*
X118523901Y-85730094D01*
X118523897Y-85730095D01*
X118268219Y-85823154D01*
X118268215Y-85823156D01*
X118264074Y-85824663D01*
X118016058Y-85956536D01*
X118012499Y-85959122D01*
X118012497Y-85959123D01*
X117798363Y-86114700D01*
X117788808Y-86121642D01*
X117785644Y-86124698D01*
X117785641Y-86124700D01*
X117754943Y-86154345D01*
X117586748Y-86316769D01*
X117413812Y-86538118D01*
X117411616Y-86541922D01*
X117411611Y-86541929D01*
X117334279Y-86675873D01*
X117273364Y-86781381D01*
X117168138Y-87041824D01*
X117167073Y-87046097D01*
X117167072Y-87046099D01*
X117107481Y-87285106D01*
X117100183Y-87314376D01*
X117099724Y-87318744D01*
X117099723Y-87318749D01*
X117086607Y-87443542D01*
X117070822Y-87593733D01*
X117070975Y-87598121D01*
X117070975Y-87598127D01*
X117080396Y-87867894D01*
X117080625Y-87874458D01*
X117081387Y-87878781D01*
X117081388Y-87878788D01*
X117097696Y-87971273D01*
X117129402Y-88151087D01*
X117216203Y-88418235D01*
X117218131Y-88422188D01*
X117218133Y-88422193D01*
X117246296Y-88479935D01*
X117339340Y-88670702D01*
X117341795Y-88674341D01*
X117341798Y-88674347D01*
X117376128Y-88725243D01*
X117496415Y-88903576D01*
X117499360Y-88906847D01*
X117499361Y-88906848D01*
X117564553Y-88979251D01*
X117684371Y-89112322D01*
X117687733Y-89115143D01*
X117687734Y-89115144D01*
X117744287Y-89162598D01*
X117899550Y-89292879D01*
X118137764Y-89441731D01*
X118253673Y-89493337D01*
X118371915Y-89545982D01*
X118394375Y-89555982D01*
X118454858Y-89573325D01*
X118629516Y-89623407D01*
X118664390Y-89633407D01*
X118668740Y-89634018D01*
X118668743Y-89634019D01*
X118771690Y-89648487D01*
X118942552Y-89672500D01*
X119153146Y-89672500D01*
X119155332Y-89672347D01*
X119155336Y-89672347D01*
X119358827Y-89658118D01*
X119358832Y-89658117D01*
X119363212Y-89657811D01*
X119637970Y-89599409D01*
X119642099Y-89597906D01*
X119642103Y-89597905D01*
X119897781Y-89504846D01*
X119897785Y-89504844D01*
X119901926Y-89503337D01*
X120149942Y-89371464D01*
X120153503Y-89368877D01*
X120373629Y-89208947D01*
X120373632Y-89208944D01*
X120377192Y-89206358D01*
X120384867Y-89198947D01*
X120488302Y-89099060D01*
X120579252Y-89011231D01*
X120678710Y-88883930D01*
X120736412Y-88842564D01*
X120807317Y-88838961D01*
X120868914Y-88874264D01*
X120901647Y-88937265D01*
X120904000Y-88961503D01*
X120904000Y-104344671D01*
X120902500Y-104364056D01*
X120900578Y-104376401D01*
X120898814Y-104387729D01*
X120899978Y-104396631D01*
X120899978Y-104396633D01*
X120899991Y-104396729D01*
X120900262Y-104427168D01*
X120892852Y-104492935D01*
X120886573Y-104520443D01*
X120858381Y-104601011D01*
X120846139Y-104626432D01*
X120800722Y-104698713D01*
X120783130Y-104720772D01*
X120722772Y-104781130D01*
X120700713Y-104798722D01*
X120628432Y-104844139D01*
X120603011Y-104856381D01*
X120522443Y-104884573D01*
X120494937Y-104890852D01*
X120480768Y-104892449D01*
X120435740Y-104897522D01*
X120420098Y-104898305D01*
X120411143Y-104898196D01*
X120402269Y-104896814D01*
X120370595Y-104900956D01*
X120354318Y-104902020D01*
X111409792Y-104906311D01*
X82525260Y-104920167D01*
X82457130Y-104900198D01*
X82410611Y-104846564D01*
X82400474Y-104776295D01*
X82429936Y-104711700D01*
X82486263Y-104674335D01*
X82556470Y-104651523D01*
X82625409Y-104629124D01*
X82625412Y-104629123D01*
X82632108Y-104626947D01*
X82728513Y-104569478D01*
X82781860Y-104537677D01*
X82781862Y-104537676D01*
X82787912Y-104534069D01*
X82919266Y-104408982D01*
X83019643Y-104257902D01*
X83077535Y-104105502D01*
X83081555Y-104094920D01*
X83081556Y-104094918D01*
X83084055Y-104088338D01*
X83085101Y-104080897D01*
X83108748Y-103912639D01*
X83108748Y-103912636D01*
X83109299Y-103908717D01*
X83109616Y-103886000D01*
X83089397Y-103705745D01*
X83087080Y-103699091D01*
X83032064Y-103541106D01*
X83032062Y-103541103D01*
X83029745Y-103534448D01*
X83017741Y-103515237D01*
X82937359Y-103386598D01*
X82933626Y-103380624D01*
X82913951Y-103360811D01*
X82810778Y-103256915D01*
X82810774Y-103256912D01*
X82805815Y-103251918D01*
X82794697Y-103244862D01*
X82691368Y-103179288D01*
X82652666Y-103154727D01*
X82577883Y-103128098D01*
X82488425Y-103096243D01*
X82488420Y-103096242D01*
X82481790Y-103093881D01*
X82474802Y-103093048D01*
X82474799Y-103093047D01*
X82351698Y-103078368D01*
X82301680Y-103072404D01*
X82294677Y-103073140D01*
X82294676Y-103073140D01*
X82128288Y-103090628D01*
X82128286Y-103090629D01*
X82121288Y-103091364D01*
X81949579Y-103149818D01*
X81887109Y-103188250D01*
X81801095Y-103241166D01*
X81801092Y-103241168D01*
X81795088Y-103244862D01*
X81790053Y-103249793D01*
X81790050Y-103249795D01*
X81739851Y-103298954D01*
X81665493Y-103371771D01*
X81567235Y-103524238D01*
X81564826Y-103530858D01*
X81564824Y-103530861D01*
X81507606Y-103688066D01*
X81505197Y-103694685D01*
X81482463Y-103874640D01*
X81500163Y-104055160D01*
X81557418Y-104227273D01*
X81561065Y-104233295D01*
X81561066Y-104233297D01*
X81643267Y-104369027D01*
X81651380Y-104382424D01*
X81656269Y-104387487D01*
X81656270Y-104387488D01*
X81681719Y-104413841D01*
X81777382Y-104512902D01*
X81805401Y-104531237D01*
X81912027Y-104601011D01*
X81929159Y-104612222D01*
X81935763Y-104614678D01*
X81935765Y-104614679D01*
X82099168Y-104675448D01*
X82098383Y-104677558D01*
X82150382Y-104708022D01*
X82182513Y-104771332D01*
X82175315Y-104841963D01*
X82131074Y-104897490D01*
X82058701Y-104920391D01*
X59993236Y-104930976D01*
X59973794Y-104929476D01*
X59964743Y-104928067D01*
X59950270Y-104925814D01*
X59941368Y-104926978D01*
X59941366Y-104926978D01*
X59941308Y-104926986D01*
X59941269Y-104926991D01*
X59910831Y-104927262D01*
X59838611Y-104919125D01*
X59811103Y-104912846D01*
X59724404Y-104882509D01*
X59698983Y-104870267D01*
X59676884Y-104856381D01*
X59621205Y-104821396D01*
X59599146Y-104803804D01*
X59534196Y-104738854D01*
X59516604Y-104716795D01*
X59467733Y-104639017D01*
X59455491Y-104613596D01*
X59425154Y-104526897D01*
X59418875Y-104499391D01*
X59416321Y-104476724D01*
X59411478Y-104433741D01*
X59410695Y-104418100D01*
X59410804Y-104409144D01*
X59412186Y-104400270D01*
X59408100Y-104369024D01*
X59407036Y-104352579D01*
X59407142Y-104230698D01*
X59408460Y-102706240D01*
X98246463Y-102706240D01*
X98264163Y-102886760D01*
X98321418Y-103058873D01*
X98325065Y-103064895D01*
X98325066Y-103064897D01*
X98382433Y-103159621D01*
X98415380Y-103214024D01*
X98420269Y-103219087D01*
X98420270Y-103219088D01*
X98497121Y-103298668D01*
X98541382Y-103344502D01*
X98617271Y-103394162D01*
X98681391Y-103436121D01*
X98693159Y-103443822D01*
X98699763Y-103446278D01*
X98699765Y-103446279D01*
X98856558Y-103504590D01*
X98856560Y-103504590D01*
X98863168Y-103507048D01*
X98946995Y-103518233D01*
X99035980Y-103530107D01*
X99035984Y-103530107D01*
X99042961Y-103531038D01*
X99049972Y-103530400D01*
X99049976Y-103530400D01*
X99192459Y-103517432D01*
X99223600Y-103514598D01*
X99230302Y-103512420D01*
X99230304Y-103512420D01*
X99389409Y-103460724D01*
X99389412Y-103460723D01*
X99396108Y-103458547D01*
X99492513Y-103401078D01*
X99545860Y-103369277D01*
X99545862Y-103369276D01*
X99551912Y-103365669D01*
X99683266Y-103240582D01*
X99783643Y-103089502D01*
X99797902Y-103051965D01*
X99840792Y-102995388D01*
X99907460Y-102970979D01*
X99976742Y-102986489D01*
X100026640Y-103036994D01*
X100035003Y-103056209D01*
X100084699Y-103202611D01*
X100084704Y-103202622D01*
X100086238Y-103207142D01*
X100088442Y-103211384D01*
X100088442Y-103211385D01*
X100197099Y-103420558D01*
X100205183Y-103436121D01*
X100208009Y-103439989D01*
X100208010Y-103439991D01*
X100283446Y-103543250D01*
X100357394Y-103644473D01*
X100360765Y-103647862D01*
X100360767Y-103647864D01*
X100535994Y-103824011D01*
X100535999Y-103824015D01*
X100539370Y-103827404D01*
X100746922Y-103980704D01*
X100751152Y-103982930D01*
X100751156Y-103982932D01*
X100951501Y-104088338D01*
X100975275Y-104100846D01*
X100979803Y-104102409D01*
X100979804Y-104102410D01*
X101005761Y-104111373D01*
X101219173Y-104185065D01*
X101473003Y-104231423D01*
X101555567Y-104235750D01*
X101716413Y-104235750D01*
X101718792Y-104235569D01*
X101718793Y-104235569D01*
X101903319Y-104221533D01*
X101903324Y-104221532D01*
X101908086Y-104221170D01*
X101912739Y-104220091D01*
X101912742Y-104220091D01*
X102154787Y-104163987D01*
X102154786Y-104163987D01*
X102159451Y-104162906D01*
X102399111Y-104067292D01*
X102621550Y-103936526D01*
X102625261Y-103933505D01*
X102625265Y-103933502D01*
X102817939Y-103776641D01*
X102821651Y-103773619D01*
X102994807Y-103582319D01*
X103039124Y-103515237D01*
X103134397Y-103371021D01*
X103137035Y-103367028D01*
X103168418Y-103298954D01*
X103207992Y-103213110D01*
X103254676Y-103159621D01*
X103322868Y-103139862D01*
X103390917Y-103160107D01*
X103413966Y-103179288D01*
X103531514Y-103303591D01*
X103536744Y-103307253D01*
X103536745Y-103307254D01*
X103637343Y-103377693D01*
X103698561Y-103420558D01*
X103885716Y-103501547D01*
X103891964Y-103502852D01*
X103891963Y-103502852D01*
X104046095Y-103535053D01*
X104108686Y-103568563D01*
X104143224Y-103630593D01*
X104145334Y-103674182D01*
X104139263Y-103722240D01*
X104156963Y-103902760D01*
X104214218Y-104074873D01*
X104217865Y-104080895D01*
X104217866Y-104080897D01*
X104303038Y-104221533D01*
X104308180Y-104230024D01*
X104313069Y-104235087D01*
X104313070Y-104235088D01*
X104338519Y-104261441D01*
X104434182Y-104360502D01*
X104585959Y-104459822D01*
X104592563Y-104462278D01*
X104592565Y-104462279D01*
X104749358Y-104520590D01*
X104749360Y-104520590D01*
X104755968Y-104523048D01*
X104838565Y-104534069D01*
X104928780Y-104546107D01*
X104928784Y-104546107D01*
X104935761Y-104547038D01*
X104942772Y-104546400D01*
X104942776Y-104546400D01*
X105085259Y-104533432D01*
X105116400Y-104530598D01*
X105123102Y-104528420D01*
X105123104Y-104528420D01*
X105282209Y-104476724D01*
X105282212Y-104476723D01*
X105288908Y-104474547D01*
X105428447Y-104391365D01*
X105438660Y-104385277D01*
X105438662Y-104385276D01*
X105444712Y-104381669D01*
X105576066Y-104256582D01*
X105676443Y-104105502D01*
X105690489Y-104068526D01*
X105733378Y-104011948D01*
X105800047Y-103987539D01*
X105866944Y-104001761D01*
X106031501Y-104088338D01*
X106055275Y-104100846D01*
X106059803Y-104102409D01*
X106059804Y-104102410D01*
X106085761Y-104111373D01*
X106299173Y-104185065D01*
X106553003Y-104231423D01*
X106635567Y-104235750D01*
X106796413Y-104235750D01*
X106798792Y-104235569D01*
X106798793Y-104235569D01*
X106983319Y-104221533D01*
X106983324Y-104221532D01*
X106988086Y-104221170D01*
X106992739Y-104220091D01*
X106992742Y-104220091D01*
X107234787Y-104163987D01*
X107234786Y-104163987D01*
X107239451Y-104162906D01*
X107479111Y-104067292D01*
X107701550Y-103936526D01*
X107705261Y-103933505D01*
X107705265Y-103933502D01*
X107897939Y-103776641D01*
X107901651Y-103773619D01*
X108074807Y-103582319D01*
X108119124Y-103515237D01*
X108214397Y-103371021D01*
X108217035Y-103367028D01*
X108248418Y-103298954D01*
X108323055Y-103137052D01*
X108323056Y-103137049D01*
X108325061Y-103132700D01*
X108352595Y-103036994D01*
X108395079Y-102889322D01*
X108395080Y-102889317D01*
X108396400Y-102884729D01*
X108397043Y-102879751D01*
X108428799Y-102633557D01*
X108429410Y-102628820D01*
X108423331Y-102370863D01*
X108395216Y-102212224D01*
X108379138Y-102121502D01*
X108379137Y-102121496D01*
X108378303Y-102116793D01*
X108295362Y-101872458D01*
X108243358Y-101772346D01*
X108178626Y-101647731D01*
X108178624Y-101647728D01*
X108176417Y-101643479D01*
X108152327Y-101610503D01*
X108027028Y-101438990D01*
X108024206Y-101435127D01*
X108020833Y-101431736D01*
X107845606Y-101255589D01*
X107845601Y-101255585D01*
X107842230Y-101252196D01*
X107634678Y-101098896D01*
X107630447Y-101096670D01*
X107630439Y-101096665D01*
X107567462Y-101063531D01*
X107559626Y-101055934D01*
X113240700Y-101055934D01*
X113247455Y-101118116D01*
X113298585Y-101254505D01*
X113385939Y-101371061D01*
X113502495Y-101458415D01*
X113638884Y-101509545D01*
X113701066Y-101516300D01*
X114797334Y-101516300D01*
X114859516Y-101509545D01*
X114995905Y-101458415D01*
X115112461Y-101371061D01*
X115199815Y-101254505D01*
X115250945Y-101118116D01*
X115257700Y-101055934D01*
X115257700Y-99959666D01*
X115250945Y-99897484D01*
X115199815Y-99761095D01*
X115112461Y-99644539D01*
X114995905Y-99557185D01*
X114859516Y-99506055D01*
X114797334Y-99499300D01*
X113701066Y-99499300D01*
X113638884Y-99506055D01*
X113502495Y-99557185D01*
X113385939Y-99644539D01*
X113298585Y-99761095D01*
X113247455Y-99897484D01*
X113240700Y-99959666D01*
X113240700Y-101055934D01*
X107559626Y-101055934D01*
X107516489Y-101014111D01*
X107500327Y-100944979D01*
X107524106Y-100878083D01*
X107562275Y-100843402D01*
X107626401Y-100805704D01*
X107701550Y-100761526D01*
X107705261Y-100758505D01*
X107705265Y-100758502D01*
X107897939Y-100601641D01*
X107901651Y-100598619D01*
X108074807Y-100407319D01*
X108217035Y-100192028D01*
X108292831Y-100027614D01*
X108323055Y-99962052D01*
X108323056Y-99962049D01*
X108325061Y-99957700D01*
X108326385Y-99953098D01*
X108395079Y-99714322D01*
X108395080Y-99714317D01*
X108396400Y-99709729D01*
X108416484Y-99554033D01*
X108428799Y-99458557D01*
X108429410Y-99453820D01*
X108425103Y-99271043D01*
X108423444Y-99200642D01*
X108423444Y-99200637D01*
X108423331Y-99195863D01*
X108397201Y-99048424D01*
X108379138Y-98946502D01*
X108379137Y-98946496D01*
X108378303Y-98941793D01*
X108369994Y-98917314D01*
X108303408Y-98721160D01*
X108295362Y-98697458D01*
X108231603Y-98574717D01*
X108178626Y-98472731D01*
X108178624Y-98472728D01*
X108176417Y-98468479D01*
X108172103Y-98462573D01*
X108044803Y-98288321D01*
X108024206Y-98260127D01*
X107964839Y-98200448D01*
X107845606Y-98080589D01*
X107845601Y-98080585D01*
X107842230Y-98077196D01*
X107666557Y-97947442D01*
X107638530Y-97926741D01*
X107638529Y-97926740D01*
X107634678Y-97923896D01*
X107630448Y-97921670D01*
X107630444Y-97921668D01*
X107410562Y-97805983D01*
X107410560Y-97805982D01*
X107406325Y-97803754D01*
X107162427Y-97719535D01*
X106908597Y-97673177D01*
X106826033Y-97668850D01*
X106665187Y-97668850D01*
X106662808Y-97669031D01*
X106662807Y-97669031D01*
X106478281Y-97683067D01*
X106478276Y-97683068D01*
X106473514Y-97683430D01*
X106468861Y-97684509D01*
X106468858Y-97684509D01*
X106359946Y-97709754D01*
X106289068Y-97705650D01*
X106231661Y-97663879D01*
X106217307Y-97626934D01*
X113240700Y-97626934D01*
X113247455Y-97689116D01*
X113298585Y-97825505D01*
X113385939Y-97942061D01*
X113502495Y-98029415D01*
X113638884Y-98080545D01*
X113701066Y-98087300D01*
X114797334Y-98087300D01*
X114859516Y-98080545D01*
X114995905Y-98029415D01*
X115112461Y-97942061D01*
X115199815Y-97825505D01*
X115250945Y-97689116D01*
X115257700Y-97626934D01*
X115257700Y-96530666D01*
X115250945Y-96468484D01*
X115199815Y-96332095D01*
X115112461Y-96215539D01*
X114995905Y-96128185D01*
X114859516Y-96077055D01*
X114797334Y-96070300D01*
X113701066Y-96070300D01*
X113638884Y-96077055D01*
X113502495Y-96128185D01*
X113385939Y-96215539D01*
X113298585Y-96332095D01*
X113247455Y-96468484D01*
X113240700Y-96530666D01*
X113240700Y-97626934D01*
X106217307Y-97626934D01*
X106205950Y-97597701D01*
X106205668Y-97580414D01*
X106214238Y-97416893D01*
X106214238Y-97416889D01*
X106214572Y-97410512D01*
X106184078Y-97208878D01*
X106113663Y-97017494D01*
X106029744Y-96882147D01*
X106010846Y-96813711D01*
X106011760Y-96810776D01*
X106009579Y-96811030D01*
X105945807Y-96779826D01*
X105939280Y-96773408D01*
X105870476Y-96700651D01*
X105870474Y-96700650D01*
X105866086Y-96696009D01*
X105853766Y-96687382D01*
X105704272Y-96582706D01*
X105704271Y-96582705D01*
X105699039Y-96579042D01*
X105511884Y-96498053D01*
X105407952Y-96476340D01*
X105317012Y-96457341D01*
X105317008Y-96457341D01*
X105312267Y-96456350D01*
X105307430Y-96456097D01*
X105307426Y-96456096D01*
X105307360Y-96456093D01*
X105305588Y-96456000D01*
X105155833Y-96456000D01*
X105083187Y-96463379D01*
X105010266Y-96470786D01*
X105010265Y-96470786D01*
X105003917Y-96471431D01*
X104809322Y-96532414D01*
X104630963Y-96631279D01*
X104476127Y-96763990D01*
X104351139Y-96925124D01*
X104348326Y-96930841D01*
X104348319Y-96930852D01*
X104306373Y-97016098D01*
X104258351Y-97068389D01*
X104189681Y-97086415D01*
X104122166Y-97064455D01*
X104081695Y-97017582D01*
X104081663Y-97017494D01*
X103974202Y-96844178D01*
X103944217Y-96812469D01*
X103838471Y-96700646D01*
X103834086Y-96696009D01*
X103821766Y-96687382D01*
X103672272Y-96582706D01*
X103672271Y-96582705D01*
X103667039Y-96579042D01*
X103479884Y-96498053D01*
X103361592Y-96473340D01*
X103338784Y-96468575D01*
X103276193Y-96435065D01*
X103241656Y-96373036D01*
X103246136Y-96302180D01*
X103259599Y-96275518D01*
X103288843Y-96231502D01*
X103318648Y-96153040D01*
X105993463Y-96153040D01*
X106011163Y-96333560D01*
X106068418Y-96505673D01*
X106072065Y-96511695D01*
X106072066Y-96511697D01*
X106086489Y-96535512D01*
X106138604Y-96621565D01*
X106156783Y-96690193D01*
X106156397Y-96691387D01*
X106156777Y-96691339D01*
X106220873Y-96721873D01*
X106227466Y-96728222D01*
X106288382Y-96791302D01*
X106440159Y-96890622D01*
X106446763Y-96893078D01*
X106446765Y-96893079D01*
X106603558Y-96951390D01*
X106603560Y-96951390D01*
X106610168Y-96953848D01*
X106693995Y-96965033D01*
X106782980Y-96976907D01*
X106782984Y-96976907D01*
X106789961Y-96977838D01*
X106796972Y-96977200D01*
X106796976Y-96977200D01*
X106939459Y-96964232D01*
X106970600Y-96961398D01*
X106977302Y-96959220D01*
X106977304Y-96959220D01*
X107136409Y-96907524D01*
X107136412Y-96907523D01*
X107143108Y-96905347D01*
X107298912Y-96812469D01*
X107430266Y-96687382D01*
X107530643Y-96536302D01*
X107572423Y-96426317D01*
X107592555Y-96373320D01*
X107592556Y-96373318D01*
X107595055Y-96366738D01*
X107598742Y-96340503D01*
X107619748Y-96191039D01*
X107619748Y-96191036D01*
X107620299Y-96187117D01*
X107620616Y-96164400D01*
X107600397Y-95984145D01*
X107598080Y-95977491D01*
X107543064Y-95819506D01*
X107543062Y-95819503D01*
X107540745Y-95812848D01*
X107444626Y-95659024D01*
X107409911Y-95624066D01*
X107321778Y-95535315D01*
X107321774Y-95535312D01*
X107316815Y-95530318D01*
X107305697Y-95523262D01*
X107240905Y-95482144D01*
X107163666Y-95433127D01*
X107134463Y-95422728D01*
X106999425Y-95374643D01*
X106999420Y-95374642D01*
X106992790Y-95372281D01*
X106985802Y-95371448D01*
X106985799Y-95371447D01*
X106862698Y-95356768D01*
X106812680Y-95350804D01*
X106805677Y-95351540D01*
X106805676Y-95351540D01*
X106639288Y-95369028D01*
X106639286Y-95369029D01*
X106632288Y-95369764D01*
X106460579Y-95428218D01*
X106454575Y-95431912D01*
X106312095Y-95519566D01*
X106312092Y-95519568D01*
X106306088Y-95523262D01*
X106301053Y-95528193D01*
X106301050Y-95528195D01*
X106199185Y-95627949D01*
X106176493Y-95650171D01*
X106078235Y-95802638D01*
X106075826Y-95809258D01*
X106075824Y-95809261D01*
X106018606Y-95966466D01*
X106016197Y-95973085D01*
X105993463Y-96153040D01*
X103318648Y-96153040D01*
X103347837Y-96076202D01*
X103350755Y-96068520D01*
X103350756Y-96068518D01*
X103353255Y-96061938D01*
X103354235Y-96054966D01*
X103377948Y-95886239D01*
X103377948Y-95886236D01*
X103378499Y-95882317D01*
X103378816Y-95859600D01*
X103358597Y-95679345D01*
X103356280Y-95672691D01*
X103301264Y-95514706D01*
X103301262Y-95514703D01*
X103298945Y-95508048D01*
X103212536Y-95369764D01*
X103206559Y-95360198D01*
X103202826Y-95354224D01*
X103165619Y-95316756D01*
X103079978Y-95230515D01*
X103079974Y-95230512D01*
X103075015Y-95225518D01*
X103063897Y-95218462D01*
X102942475Y-95141406D01*
X102921866Y-95128327D01*
X102892663Y-95117928D01*
X102757625Y-95069843D01*
X102757620Y-95069842D01*
X102750990Y-95067481D01*
X102744002Y-95066648D01*
X102743999Y-95066647D01*
X102620898Y-95051968D01*
X102570880Y-95046004D01*
X102563877Y-95046740D01*
X102563876Y-95046740D01*
X102397488Y-95064228D01*
X102397486Y-95064229D01*
X102390488Y-95064964D01*
X102218779Y-95123418D01*
X102190363Y-95140900D01*
X102070295Y-95214766D01*
X102070292Y-95214768D01*
X102064288Y-95218462D01*
X102059253Y-95223393D01*
X102059250Y-95223395D01*
X101939725Y-95340443D01*
X101934693Y-95345371D01*
X101836435Y-95497838D01*
X101834026Y-95504458D01*
X101834024Y-95504461D01*
X101777768Y-95659024D01*
X101774397Y-95668285D01*
X101751663Y-95848240D01*
X101769363Y-96028760D01*
X101826618Y-96200873D01*
X101830265Y-96206895D01*
X101830266Y-96206897D01*
X101910478Y-96339343D01*
X101920580Y-96356024D01*
X101925469Y-96361087D01*
X101925470Y-96361088D01*
X101946227Y-96382582D01*
X102046582Y-96486502D01*
X102085084Y-96511697D01*
X102184123Y-96576506D01*
X102198359Y-96585822D01*
X102204963Y-96588278D01*
X102204965Y-96588279D01*
X102335592Y-96636859D01*
X102392469Y-96679351D01*
X102417342Y-96745848D01*
X102402317Y-96815236D01*
X102391232Y-96832182D01*
X102319139Y-96925124D01*
X102229104Y-97108099D01*
X102227495Y-97114277D01*
X102227494Y-97114279D01*
X102204415Y-97202882D01*
X102177700Y-97305441D01*
X102175757Y-97342514D01*
X102167495Y-97500182D01*
X102167028Y-97509088D01*
X102175772Y-97566905D01*
X102166182Y-97637250D01*
X102120082Y-97691244D01*
X102052109Y-97711743D01*
X102028557Y-97709697D01*
X101828597Y-97673177D01*
X101746033Y-97668850D01*
X101585187Y-97668850D01*
X101582808Y-97669031D01*
X101582807Y-97669031D01*
X101398281Y-97683067D01*
X101398276Y-97683068D01*
X101393514Y-97683430D01*
X101388861Y-97684509D01*
X101388858Y-97684509D01*
X101231001Y-97721099D01*
X101142149Y-97741694D01*
X100902489Y-97837308D01*
X100680050Y-97968074D01*
X100676339Y-97971095D01*
X100676335Y-97971098D01*
X100534056Y-98086931D01*
X100479949Y-98130981D01*
X100306793Y-98322281D01*
X100304152Y-98326279D01*
X100304151Y-98326280D01*
X100269492Y-98378744D01*
X100164565Y-98537572D01*
X100162564Y-98541912D01*
X100162562Y-98541916D01*
X100083161Y-98714151D01*
X100056539Y-98771900D01*
X100055215Y-98776501D01*
X100055215Y-98776502D01*
X100006308Y-98946502D01*
X99985200Y-99019871D01*
X99984589Y-99024606D01*
X99984588Y-99024612D01*
X99961956Y-99200069D01*
X99952190Y-99275780D01*
X99953931Y-99349637D01*
X99957617Y-99506055D01*
X99958269Y-99533737D01*
X100003297Y-99787807D01*
X100086238Y-100032142D01*
X100088442Y-100036384D01*
X100088442Y-100036385D01*
X100167036Y-100187684D01*
X100205183Y-100261121D01*
X100357394Y-100469473D01*
X100360765Y-100472862D01*
X100360767Y-100472864D01*
X100535994Y-100649011D01*
X100535999Y-100649015D01*
X100539370Y-100652404D01*
X100746922Y-100805704D01*
X100751153Y-100807930D01*
X100751161Y-100807935D01*
X100814138Y-100841069D01*
X100865111Y-100890489D01*
X100881273Y-100959621D01*
X100857494Y-101026517D01*
X100819325Y-101061198D01*
X100680050Y-101143074D01*
X100676339Y-101146095D01*
X100676335Y-101146098D01*
X100553505Y-101246097D01*
X100479949Y-101305981D01*
X100306793Y-101497281D01*
X100304152Y-101501279D01*
X100304151Y-101501280D01*
X100281001Y-101536323D01*
X100164565Y-101712572D01*
X100162564Y-101716912D01*
X100162562Y-101716916D01*
X100058545Y-101942548D01*
X100056539Y-101946900D01*
X100055215Y-101951501D01*
X100055215Y-101951502D01*
X100006308Y-102121502D01*
X99985200Y-102194871D01*
X99984589Y-102199606D01*
X99984588Y-102199612D01*
X99979220Y-102241231D01*
X99950667Y-102306233D01*
X99891505Y-102345480D01*
X99820515Y-102346511D01*
X99760238Y-102308998D01*
X99747401Y-102291882D01*
X99715751Y-102241231D01*
X99697626Y-102212224D01*
X99602859Y-102116793D01*
X99574778Y-102088515D01*
X99574774Y-102088512D01*
X99569815Y-102083518D01*
X99558697Y-102076462D01*
X99446285Y-102005124D01*
X99416666Y-101986327D01*
X99387463Y-101975928D01*
X99252425Y-101927843D01*
X99252420Y-101927842D01*
X99245790Y-101925481D01*
X99238802Y-101924648D01*
X99238799Y-101924647D01*
X99115698Y-101909968D01*
X99065680Y-101904004D01*
X99058677Y-101904740D01*
X99058676Y-101904740D01*
X98892288Y-101922228D01*
X98892286Y-101922229D01*
X98885288Y-101922964D01*
X98713579Y-101981418D01*
X98707575Y-101985112D01*
X98565095Y-102072766D01*
X98565092Y-102072768D01*
X98559088Y-102076462D01*
X98554053Y-102081393D01*
X98554050Y-102081395D01*
X98442863Y-102190278D01*
X98429493Y-102203371D01*
X98331235Y-102355838D01*
X98328826Y-102362458D01*
X98328824Y-102362461D01*
X98271606Y-102519666D01*
X98269197Y-102526285D01*
X98246463Y-102706240D01*
X59408460Y-102706240D01*
X59412063Y-98540640D01*
X80720463Y-98540640D01*
X80738163Y-98721160D01*
X80795418Y-98893273D01*
X80799065Y-98899295D01*
X80799066Y-98899297D01*
X80872088Y-99019871D01*
X80889380Y-99048424D01*
X81015382Y-99178902D01*
X81167159Y-99278222D01*
X81173763Y-99280678D01*
X81173765Y-99280679D01*
X81330558Y-99338990D01*
X81330560Y-99338990D01*
X81337168Y-99341448D01*
X81420995Y-99352633D01*
X81509980Y-99364507D01*
X81509984Y-99364507D01*
X81516961Y-99365438D01*
X81523972Y-99364800D01*
X81523976Y-99364800D01*
X81666459Y-99351832D01*
X81697600Y-99348998D01*
X81704302Y-99346820D01*
X81704304Y-99346820D01*
X81863409Y-99295124D01*
X81863412Y-99295123D01*
X81870108Y-99292947D01*
X82025912Y-99200069D01*
X82157266Y-99074982D01*
X82257643Y-98923902D01*
X82322055Y-98754338D01*
X82323035Y-98747366D01*
X82346748Y-98578639D01*
X82346748Y-98578636D01*
X82347299Y-98574717D01*
X82347616Y-98552000D01*
X82327397Y-98371745D01*
X82325080Y-98365091D01*
X82270064Y-98207106D01*
X82270062Y-98207103D01*
X82267745Y-98200448D01*
X82236576Y-98150566D01*
X82175359Y-98052598D01*
X82171626Y-98046624D01*
X82043815Y-97917918D01*
X82037863Y-97914141D01*
X82032633Y-97909936D01*
X81992076Y-97851665D01*
X81989460Y-97780716D01*
X82025618Y-97719617D01*
X82047065Y-97703508D01*
X82172260Y-97628877D01*
X82172262Y-97628876D01*
X82178312Y-97625269D01*
X82309666Y-97500182D01*
X82410043Y-97349102D01*
X82463310Y-97208878D01*
X82471955Y-97186120D01*
X82471956Y-97186118D01*
X82474455Y-97179538D01*
X82475435Y-97172566D01*
X82499148Y-97003839D01*
X82499148Y-97003836D01*
X82499699Y-96999917D01*
X82500016Y-96977200D01*
X82479797Y-96796945D01*
X82476067Y-96786234D01*
X82422464Y-96632306D01*
X82422462Y-96632303D01*
X82420145Y-96625648D01*
X82410062Y-96609512D01*
X82327759Y-96477798D01*
X82324026Y-96471824D01*
X82308633Y-96456323D01*
X82201178Y-96348115D01*
X82201174Y-96348112D01*
X82196215Y-96343118D01*
X82185097Y-96336062D01*
X82089681Y-96275510D01*
X82043066Y-96245927D01*
X82002556Y-96231502D01*
X81878825Y-96187443D01*
X81878820Y-96187442D01*
X81872190Y-96185081D01*
X81865202Y-96184248D01*
X81865199Y-96184247D01*
X81731981Y-96168362D01*
X81692080Y-96163604D01*
X81685077Y-96164340D01*
X81685076Y-96164340D01*
X81518688Y-96181828D01*
X81518686Y-96181829D01*
X81511688Y-96182564D01*
X81339979Y-96241018D01*
X81333975Y-96244712D01*
X81191495Y-96332366D01*
X81191492Y-96332368D01*
X81185488Y-96336062D01*
X81180453Y-96340993D01*
X81180450Y-96340995D01*
X81060925Y-96458043D01*
X81055893Y-96462971D01*
X80957635Y-96615438D01*
X80955226Y-96622058D01*
X80955224Y-96622061D01*
X80916584Y-96728223D01*
X80895597Y-96785885D01*
X80872863Y-96965840D01*
X80890563Y-97146360D01*
X80947818Y-97318473D01*
X80951465Y-97324495D01*
X80951466Y-97324497D01*
X81007423Y-97416893D01*
X81041780Y-97473624D01*
X81167782Y-97604102D01*
X81178001Y-97610789D01*
X81224049Y-97664825D01*
X81233573Y-97735180D01*
X81203549Y-97799515D01*
X81175033Y-97823537D01*
X81033088Y-97910862D01*
X81028053Y-97915793D01*
X81028050Y-97915795D01*
X80917526Y-98024029D01*
X80903493Y-98037771D01*
X80805235Y-98190238D01*
X80802826Y-98196858D01*
X80802824Y-98196861D01*
X80745606Y-98354066D01*
X80743197Y-98360685D01*
X80720463Y-98540640D01*
X59412063Y-98540640D01*
X59412129Y-98464609D01*
X59415173Y-94945200D01*
X62434096Y-94945200D01*
X62434786Y-94951765D01*
X62453095Y-95125962D01*
X62454058Y-95135128D01*
X62513073Y-95316756D01*
X62608560Y-95482144D01*
X62612978Y-95487051D01*
X62612979Y-95487052D01*
X62628654Y-95504461D01*
X62736347Y-95624066D01*
X62890848Y-95736318D01*
X62896876Y-95739002D01*
X62896878Y-95739003D01*
X63049309Y-95806869D01*
X63065312Y-95813994D01*
X63158712Y-95833847D01*
X63245656Y-95852328D01*
X63245661Y-95852328D01*
X63252113Y-95853700D01*
X63443087Y-95853700D01*
X63449539Y-95852328D01*
X63449544Y-95852328D01*
X63536488Y-95833847D01*
X63629888Y-95813994D01*
X63645891Y-95806869D01*
X63798322Y-95739003D01*
X63798324Y-95739002D01*
X63804352Y-95736318D01*
X63958853Y-95624066D01*
X64066546Y-95504461D01*
X64082221Y-95487052D01*
X64082222Y-95487051D01*
X64086640Y-95482144D01*
X64182127Y-95316756D01*
X64241142Y-95135128D01*
X64242106Y-95125962D01*
X64260414Y-94951765D01*
X64261104Y-94945200D01*
X64260414Y-94938635D01*
X64241832Y-94761835D01*
X64241832Y-94761833D01*
X64241142Y-94755272D01*
X64216858Y-94680534D01*
X110497500Y-94680534D01*
X110504255Y-94742716D01*
X110555385Y-94879105D01*
X110642739Y-94995661D01*
X110759295Y-95083015D01*
X110895684Y-95134145D01*
X110957866Y-95140900D01*
X112054134Y-95140900D01*
X112116316Y-95134145D01*
X112252705Y-95083015D01*
X112369261Y-94995661D01*
X112456615Y-94879105D01*
X112507745Y-94742716D01*
X112514500Y-94680534D01*
X112514500Y-93584266D01*
X112507745Y-93522084D01*
X112456615Y-93385695D01*
X112369261Y-93269139D01*
X112252705Y-93181785D01*
X112116316Y-93130655D01*
X112054134Y-93123900D01*
X110957866Y-93123900D01*
X110895684Y-93130655D01*
X110759295Y-93181785D01*
X110642739Y-93269139D01*
X110555385Y-93385695D01*
X110504255Y-93522084D01*
X110497500Y-93584266D01*
X110497500Y-94680534D01*
X64216858Y-94680534D01*
X64182127Y-94573644D01*
X64152887Y-94522998D01*
X64089941Y-94413974D01*
X64086640Y-94408256D01*
X63958853Y-94266334D01*
X63804352Y-94154082D01*
X63798324Y-94151398D01*
X63798322Y-94151397D01*
X63635919Y-94079091D01*
X63635918Y-94079091D01*
X63629888Y-94076406D01*
X63532898Y-94055790D01*
X63449544Y-94038072D01*
X63449539Y-94038072D01*
X63443087Y-94036700D01*
X63252113Y-94036700D01*
X63245661Y-94038072D01*
X63245656Y-94038072D01*
X63162302Y-94055790D01*
X63065312Y-94076406D01*
X63059282Y-94079091D01*
X63059281Y-94079091D01*
X62896878Y-94151397D01*
X62896876Y-94151398D01*
X62890848Y-94154082D01*
X62736347Y-94266334D01*
X62608560Y-94408256D01*
X62605259Y-94413974D01*
X62542314Y-94522998D01*
X62513073Y-94573644D01*
X62454058Y-94755272D01*
X62453368Y-94761833D01*
X62453368Y-94761835D01*
X62434786Y-94938635D01*
X62434096Y-94945200D01*
X59415173Y-94945200D01*
X59416677Y-93206640D01*
X80263263Y-93206640D01*
X80280963Y-93387160D01*
X80338218Y-93559273D01*
X80341865Y-93565295D01*
X80341866Y-93565297D01*
X80413150Y-93683001D01*
X80432180Y-93714424D01*
X80437069Y-93719487D01*
X80437070Y-93719488D01*
X80469084Y-93752639D01*
X80558182Y-93844902D01*
X80628068Y-93890634D01*
X80696973Y-93935724D01*
X80709959Y-93944222D01*
X80716563Y-93946678D01*
X80716565Y-93946679D01*
X80873358Y-94004990D01*
X80873360Y-94004990D01*
X80879968Y-94007448D01*
X80963795Y-94018633D01*
X81052780Y-94030507D01*
X81052784Y-94030507D01*
X81059761Y-94031438D01*
X81066772Y-94030800D01*
X81066776Y-94030800D01*
X81209259Y-94017832D01*
X81240400Y-94014998D01*
X81247102Y-94012820D01*
X81247104Y-94012820D01*
X81406209Y-93961124D01*
X81406212Y-93961123D01*
X81412908Y-93958947D01*
X81519002Y-93895702D01*
X81562660Y-93869677D01*
X81562662Y-93869676D01*
X81568712Y-93866069D01*
X81700066Y-93740982D01*
X81717568Y-93714640D01*
X91642463Y-93714640D01*
X91660163Y-93895160D01*
X91717418Y-94067273D01*
X91721065Y-94073295D01*
X91721066Y-94073297D01*
X91731978Y-94091314D01*
X91811380Y-94222424D01*
X91937382Y-94352902D01*
X92089159Y-94452222D01*
X92095763Y-94454678D01*
X92095765Y-94454679D01*
X92252558Y-94512990D01*
X92252560Y-94512990D01*
X92259168Y-94515448D01*
X92342995Y-94526633D01*
X92431980Y-94538507D01*
X92431984Y-94538507D01*
X92438961Y-94539438D01*
X92445972Y-94538800D01*
X92445976Y-94538800D01*
X92588459Y-94525832D01*
X92619600Y-94522998D01*
X92626302Y-94520820D01*
X92626304Y-94520820D01*
X92785409Y-94469124D01*
X92785412Y-94469123D01*
X92792108Y-94466947D01*
X92947912Y-94374069D01*
X93079266Y-94248982D01*
X93179643Y-94097902D01*
X93239487Y-93940364D01*
X93241555Y-93934920D01*
X93241556Y-93934918D01*
X93244055Y-93928338D01*
X93245160Y-93920477D01*
X93268748Y-93752639D01*
X93268748Y-93752636D01*
X93269299Y-93748717D01*
X93269616Y-93726000D01*
X93249397Y-93545745D01*
X93245546Y-93534685D01*
X93220988Y-93464166D01*
X93207681Y-93425953D01*
X93204167Y-93355045D01*
X93239548Y-93293492D01*
X93302590Y-93260840D01*
X93315248Y-93259037D01*
X93381600Y-93252998D01*
X93388302Y-93250820D01*
X93388304Y-93250820D01*
X93547409Y-93199124D01*
X93547412Y-93199123D01*
X93554108Y-93196947D01*
X93709912Y-93104069D01*
X93841266Y-92978982D01*
X93941643Y-92827902D01*
X93988082Y-92705653D01*
X94003555Y-92664920D01*
X94003556Y-92664918D01*
X94006055Y-92658338D01*
X94007035Y-92651366D01*
X94007531Y-92647840D01*
X96112863Y-92647840D01*
X96130563Y-92828360D01*
X96187818Y-93000473D01*
X96191465Y-93006495D01*
X96191466Y-93006497D01*
X96266142Y-93129802D01*
X96281780Y-93155624D01*
X96286669Y-93160687D01*
X96286670Y-93160688D01*
X96321685Y-93196947D01*
X96407782Y-93286102D01*
X96432705Y-93302411D01*
X96548995Y-93378509D01*
X96559559Y-93385422D01*
X96566163Y-93387878D01*
X96566165Y-93387879D01*
X96722958Y-93446190D01*
X96722960Y-93446190D01*
X96729568Y-93448648D01*
X96813395Y-93459833D01*
X96902380Y-93471707D01*
X96902384Y-93471707D01*
X96909361Y-93472638D01*
X96916372Y-93472000D01*
X96916376Y-93472000D01*
X97058859Y-93459032D01*
X97090000Y-93456198D01*
X97096702Y-93454020D01*
X97096704Y-93454020D01*
X97255809Y-93402324D01*
X97255812Y-93402323D01*
X97262508Y-93400147D01*
X97418312Y-93307269D01*
X97549666Y-93182182D01*
X97550292Y-93181240D01*
X101751663Y-93181240D01*
X101769363Y-93361760D01*
X101826618Y-93533873D01*
X101830265Y-93539895D01*
X101830266Y-93539897D01*
X101887326Y-93634114D01*
X101920580Y-93689024D01*
X101925469Y-93694087D01*
X101925470Y-93694088D01*
X101974401Y-93744757D01*
X102046582Y-93819502D01*
X102052478Y-93823360D01*
X102187951Y-93912011D01*
X102198359Y-93918822D01*
X102204963Y-93921278D01*
X102204965Y-93921279D01*
X102361758Y-93979590D01*
X102361760Y-93979590D01*
X102368368Y-93982048D01*
X102436688Y-93991164D01*
X102541180Y-94005107D01*
X102541184Y-94005107D01*
X102548161Y-94006038D01*
X102555172Y-94005400D01*
X102555176Y-94005400D01*
X102711593Y-93991164D01*
X102728800Y-93989598D01*
X102735502Y-93987420D01*
X102735504Y-93987420D01*
X102894609Y-93935724D01*
X102894612Y-93935723D01*
X102901308Y-93933547D01*
X103022653Y-93861211D01*
X103051060Y-93844277D01*
X103051062Y-93844276D01*
X103057112Y-93840669D01*
X103188466Y-93715582D01*
X103288843Y-93564502D01*
X103341473Y-93425955D01*
X103350755Y-93401520D01*
X103350756Y-93401518D01*
X103353255Y-93394938D01*
X103354554Y-93385695D01*
X103372579Y-93257440D01*
X106222063Y-93257440D01*
X106239763Y-93437960D01*
X106297018Y-93610073D01*
X106300665Y-93616095D01*
X106300666Y-93616097D01*
X106378585Y-93744757D01*
X106390980Y-93765224D01*
X106395869Y-93770287D01*
X106395870Y-93770288D01*
X106463837Y-93840669D01*
X106516982Y-93895702D01*
X106578142Y-93935724D01*
X106661447Y-93990237D01*
X106668759Y-93995022D01*
X106675363Y-93997478D01*
X106675365Y-93997479D01*
X106832158Y-94055790D01*
X106832160Y-94055790D01*
X106838768Y-94058248D01*
X106922595Y-94069433D01*
X107011580Y-94081307D01*
X107011584Y-94081307D01*
X107018561Y-94082238D01*
X107025572Y-94081600D01*
X107025576Y-94081600D01*
X107182993Y-94067273D01*
X107199200Y-94065798D01*
X107205902Y-94063620D01*
X107205904Y-94063620D01*
X107365009Y-94011924D01*
X107365012Y-94011923D01*
X107371708Y-94009747D01*
X107497231Y-93934920D01*
X107521460Y-93920477D01*
X107521462Y-93920476D01*
X107527512Y-93916869D01*
X107658866Y-93791782D01*
X107759243Y-93640702D01*
X107823655Y-93471138D01*
X107827161Y-93446190D01*
X107848348Y-93295439D01*
X107848348Y-93295436D01*
X107848899Y-93291517D01*
X107849216Y-93268800D01*
X107828997Y-93088545D01*
X107826680Y-93081891D01*
X107771664Y-92923906D01*
X107771662Y-92923903D01*
X107769345Y-92917248D01*
X107710974Y-92823834D01*
X107676959Y-92769398D01*
X107673226Y-92763424D01*
X107659541Y-92749643D01*
X107550378Y-92639715D01*
X107550374Y-92639712D01*
X107545415Y-92634718D01*
X107534297Y-92627662D01*
X107439203Y-92567314D01*
X107392266Y-92537527D01*
X107351725Y-92523091D01*
X107228025Y-92479043D01*
X107228020Y-92479042D01*
X107221390Y-92476681D01*
X107214402Y-92475848D01*
X107214399Y-92475847D01*
X107072795Y-92458962D01*
X107041280Y-92455204D01*
X107034277Y-92455940D01*
X107034276Y-92455940D01*
X106867888Y-92473428D01*
X106867886Y-92473429D01*
X106860888Y-92474164D01*
X106689179Y-92532618D01*
X106638957Y-92563515D01*
X106540695Y-92623966D01*
X106540692Y-92623968D01*
X106534688Y-92627662D01*
X106529653Y-92632593D01*
X106529650Y-92632595D01*
X106410125Y-92749643D01*
X106405093Y-92754571D01*
X106306835Y-92907038D01*
X106304426Y-92913658D01*
X106304424Y-92913661D01*
X106259542Y-93036973D01*
X106244797Y-93077485D01*
X106222063Y-93257440D01*
X103372579Y-93257440D01*
X103377948Y-93219239D01*
X103377948Y-93219236D01*
X103378499Y-93215317D01*
X103378725Y-93199124D01*
X103378761Y-93196562D01*
X103378761Y-93196557D01*
X103378816Y-93192600D01*
X103358597Y-93012345D01*
X103356280Y-93005691D01*
X103301264Y-92847706D01*
X103301262Y-92847703D01*
X103298945Y-92841048D01*
X103229456Y-92729841D01*
X103206559Y-92693198D01*
X103202826Y-92687224D01*
X103194035Y-92678371D01*
X103079978Y-92563515D01*
X103079974Y-92563512D01*
X103075015Y-92558518D01*
X103063897Y-92551462D01*
X103001818Y-92512066D01*
X102921866Y-92461327D01*
X102892663Y-92450928D01*
X102757625Y-92402843D01*
X102757620Y-92402842D01*
X102750990Y-92400481D01*
X102744002Y-92399648D01*
X102743999Y-92399647D01*
X102620898Y-92384968D01*
X102570880Y-92379004D01*
X102563877Y-92379740D01*
X102563876Y-92379740D01*
X102397488Y-92397228D01*
X102397486Y-92397229D01*
X102390488Y-92397964D01*
X102218779Y-92456418D01*
X102169513Y-92486727D01*
X102070295Y-92547766D01*
X102070292Y-92547768D01*
X102064288Y-92551462D01*
X102059253Y-92556393D01*
X102059250Y-92556395D01*
X101939725Y-92673443D01*
X101934693Y-92678371D01*
X101836435Y-92830838D01*
X101834026Y-92837458D01*
X101834024Y-92837461D01*
X101782515Y-92978982D01*
X101774397Y-93001285D01*
X101751663Y-93181240D01*
X97550292Y-93181240D01*
X97650043Y-93031102D01*
X97710061Y-92873106D01*
X97711955Y-92868120D01*
X97711956Y-92868118D01*
X97714455Y-92861538D01*
X97718175Y-92835069D01*
X97739148Y-92685839D01*
X97739148Y-92685836D01*
X97739699Y-92681917D01*
X97740016Y-92659200D01*
X97719797Y-92478945D01*
X97717480Y-92472291D01*
X97662464Y-92314306D01*
X97662462Y-92314303D01*
X97660145Y-92307648D01*
X97610775Y-92228639D01*
X97587031Y-92190640D01*
X104672663Y-92190640D01*
X104690363Y-92371160D01*
X104747618Y-92543273D01*
X104751265Y-92549295D01*
X104751266Y-92549297D01*
X104831771Y-92682227D01*
X104841580Y-92698424D01*
X104846469Y-92703487D01*
X104846470Y-92703488D01*
X104878484Y-92736639D01*
X104967582Y-92828902D01*
X105035133Y-92873106D01*
X105112365Y-92923645D01*
X105119359Y-92928222D01*
X105125963Y-92930678D01*
X105125965Y-92930679D01*
X105282758Y-92988990D01*
X105282760Y-92988990D01*
X105289368Y-92991448D01*
X105373195Y-93002633D01*
X105462180Y-93014507D01*
X105462184Y-93014507D01*
X105469161Y-93015438D01*
X105476172Y-93014800D01*
X105476176Y-93014800D01*
X105633593Y-93000473D01*
X105649800Y-92998998D01*
X105656502Y-92996820D01*
X105656504Y-92996820D01*
X105815609Y-92945124D01*
X105815612Y-92945123D01*
X105822308Y-92942947D01*
X105918713Y-92885478D01*
X105972060Y-92853677D01*
X105972062Y-92853676D01*
X105978112Y-92850069D01*
X106109466Y-92724982D01*
X106209843Y-92573902D01*
X106265174Y-92428243D01*
X106271755Y-92410920D01*
X106271756Y-92410918D01*
X106274255Y-92404338D01*
X106277712Y-92379740D01*
X106298948Y-92228639D01*
X106298948Y-92228636D01*
X106299499Y-92224717D01*
X106299816Y-92202000D01*
X106279597Y-92021745D01*
X106277280Y-92015091D01*
X106222264Y-91857106D01*
X106222262Y-91857103D01*
X106219945Y-91850448D01*
X106216209Y-91844469D01*
X106127559Y-91702598D01*
X106123826Y-91696624D01*
X106110141Y-91682843D01*
X106000978Y-91572915D01*
X106000974Y-91572912D01*
X105996015Y-91567918D01*
X105984897Y-91560862D01*
X105936738Y-91530300D01*
X105842866Y-91470727D01*
X105813663Y-91460328D01*
X105678625Y-91412243D01*
X105678620Y-91412242D01*
X105671990Y-91409881D01*
X105665002Y-91409048D01*
X105664999Y-91409047D01*
X105541898Y-91394368D01*
X105491880Y-91388404D01*
X105484877Y-91389140D01*
X105484876Y-91389140D01*
X105318488Y-91406628D01*
X105318486Y-91406629D01*
X105311488Y-91407364D01*
X105139779Y-91465818D01*
X105077309Y-91504250D01*
X104991295Y-91557166D01*
X104991292Y-91557168D01*
X104985288Y-91560862D01*
X104980253Y-91565793D01*
X104980250Y-91565795D01*
X104860725Y-91682843D01*
X104855693Y-91687771D01*
X104757435Y-91840238D01*
X104755026Y-91846858D01*
X104755024Y-91846861D01*
X104707471Y-91977512D01*
X104695397Y-92010685D01*
X104672663Y-92190640D01*
X97587031Y-92190640D01*
X97567759Y-92159798D01*
X97564026Y-92153824D01*
X97521605Y-92111106D01*
X97441178Y-92030115D01*
X97441174Y-92030112D01*
X97436215Y-92025118D01*
X97425097Y-92018062D01*
X97361200Y-91977512D01*
X97283066Y-91927927D01*
X97245718Y-91914628D01*
X97118825Y-91869443D01*
X97118820Y-91869442D01*
X97112190Y-91867081D01*
X97105202Y-91866248D01*
X97105199Y-91866247D01*
X96978338Y-91851120D01*
X96932080Y-91845604D01*
X96925077Y-91846340D01*
X96925076Y-91846340D01*
X96758688Y-91863828D01*
X96758686Y-91863829D01*
X96751688Y-91864564D01*
X96579979Y-91923018D01*
X96572000Y-91927927D01*
X96431495Y-92014366D01*
X96431492Y-92014368D01*
X96425488Y-92018062D01*
X96420453Y-92022993D01*
X96420450Y-92022995D01*
X96300925Y-92140043D01*
X96295893Y-92144971D01*
X96197635Y-92297438D01*
X96195226Y-92304058D01*
X96195224Y-92304061D01*
X96139945Y-92455940D01*
X96135597Y-92467885D01*
X96112863Y-92647840D01*
X94007531Y-92647840D01*
X94030748Y-92482639D01*
X94030748Y-92482636D01*
X94031299Y-92478717D01*
X94031616Y-92456000D01*
X94011397Y-92275745D01*
X94009080Y-92269091D01*
X93954064Y-92111106D01*
X93954062Y-92111103D01*
X93951745Y-92104448D01*
X93855626Y-91950624D01*
X93832471Y-91927307D01*
X93732778Y-91826915D01*
X93732774Y-91826912D01*
X93727815Y-91821918D01*
X93716697Y-91814862D01*
X93627184Y-91758056D01*
X93574666Y-91724727D01*
X93545463Y-91714328D01*
X93410425Y-91666243D01*
X93410420Y-91666242D01*
X93403790Y-91663881D01*
X93396802Y-91663048D01*
X93396799Y-91663047D01*
X93273698Y-91648368D01*
X93223680Y-91642404D01*
X93216677Y-91643140D01*
X93216676Y-91643140D01*
X93050288Y-91660628D01*
X93050286Y-91660629D01*
X93043288Y-91661364D01*
X92871579Y-91719818D01*
X92865575Y-91723512D01*
X92723095Y-91811166D01*
X92723092Y-91811168D01*
X92717088Y-91814862D01*
X92712053Y-91819793D01*
X92712050Y-91819795D01*
X92602752Y-91926828D01*
X92587493Y-91941771D01*
X92489235Y-92094238D01*
X92486826Y-92100858D01*
X92486824Y-92100861D01*
X92441744Y-92224717D01*
X92427197Y-92264685D01*
X92404463Y-92444640D01*
X92422163Y-92625160D01*
X92466358Y-92758014D01*
X92468881Y-92828963D01*
X92432645Y-92890016D01*
X92369153Y-92921785D01*
X92359971Y-92923094D01*
X92288288Y-92930628D01*
X92288286Y-92930629D01*
X92281288Y-92931364D01*
X92109579Y-92989818D01*
X92060412Y-93020066D01*
X91961095Y-93081166D01*
X91961092Y-93081168D01*
X91955088Y-93084862D01*
X91950053Y-93089793D01*
X91950050Y-93089795D01*
X91830525Y-93206843D01*
X91825493Y-93211771D01*
X91727235Y-93364238D01*
X91724826Y-93370858D01*
X91724824Y-93370861D01*
X91667925Y-93527190D01*
X91665197Y-93534685D01*
X91642463Y-93714640D01*
X81717568Y-93714640D01*
X81800443Y-93589902D01*
X81860287Y-93432364D01*
X81862355Y-93426920D01*
X81862356Y-93426918D01*
X81864855Y-93420338D01*
X81868542Y-93394103D01*
X81889548Y-93244639D01*
X81889548Y-93244636D01*
X81890099Y-93240717D01*
X81890416Y-93218000D01*
X81870197Y-93037745D01*
X81867880Y-93031091D01*
X81812864Y-92873106D01*
X81812862Y-92873103D01*
X81810545Y-92866448D01*
X81797275Y-92845211D01*
X81718159Y-92718598D01*
X81714426Y-92712624D01*
X81707910Y-92706062D01*
X81700540Y-92698640D01*
X89610463Y-92698640D01*
X89628163Y-92879160D01*
X89685418Y-93051273D01*
X89689065Y-93057295D01*
X89689066Y-93057297D01*
X89773641Y-93196947D01*
X89779380Y-93206424D01*
X89784269Y-93211487D01*
X89784270Y-93211488D01*
X89856325Y-93286102D01*
X89905382Y-93336902D01*
X89973633Y-93381564D01*
X90032886Y-93420338D01*
X90057159Y-93436222D01*
X90063763Y-93438678D01*
X90063765Y-93438679D01*
X90220558Y-93496990D01*
X90220560Y-93496990D01*
X90227168Y-93499448D01*
X90310995Y-93510633D01*
X90399980Y-93522507D01*
X90399984Y-93522507D01*
X90406961Y-93523438D01*
X90413972Y-93522800D01*
X90413976Y-93522800D01*
X90556459Y-93509832D01*
X90587600Y-93506998D01*
X90594302Y-93504820D01*
X90594304Y-93504820D01*
X90753409Y-93453124D01*
X90753412Y-93453123D01*
X90760108Y-93450947D01*
X90865905Y-93387879D01*
X90909860Y-93361677D01*
X90909862Y-93361676D01*
X90915912Y-93358069D01*
X91047266Y-93232982D01*
X91147643Y-93081902D01*
X91207969Y-92923094D01*
X91209555Y-92918920D01*
X91209556Y-92918918D01*
X91212055Y-92912338D01*
X91215192Y-92890016D01*
X91236748Y-92736639D01*
X91236748Y-92736636D01*
X91237299Y-92732717D01*
X91237616Y-92710000D01*
X91217397Y-92529745D01*
X91215080Y-92523091D01*
X91160064Y-92365106D01*
X91160062Y-92365103D01*
X91157745Y-92358448D01*
X91061626Y-92204624D01*
X91055110Y-92198062D01*
X90938778Y-92080915D01*
X90938774Y-92080912D01*
X90933815Y-92075918D01*
X90922697Y-92068862D01*
X90842038Y-92017675D01*
X90780666Y-91978727D01*
X90751463Y-91968328D01*
X90616425Y-91920243D01*
X90616420Y-91920242D01*
X90609790Y-91917881D01*
X90602802Y-91917048D01*
X90602799Y-91917047D01*
X90479698Y-91902368D01*
X90429680Y-91896404D01*
X90422677Y-91897140D01*
X90422676Y-91897140D01*
X90256288Y-91914628D01*
X90256286Y-91914629D01*
X90249288Y-91915364D01*
X90077579Y-91973818D01*
X90071575Y-91977512D01*
X89929095Y-92065166D01*
X89929092Y-92065168D01*
X89923088Y-92068862D01*
X89918053Y-92073793D01*
X89918050Y-92073795D01*
X89798525Y-92190843D01*
X89793493Y-92195771D01*
X89695235Y-92348238D01*
X89692826Y-92354858D01*
X89692824Y-92354861D01*
X89645271Y-92485512D01*
X89633197Y-92518685D01*
X89610463Y-92698640D01*
X81700540Y-92698640D01*
X81591578Y-92588915D01*
X81591574Y-92588912D01*
X81586615Y-92583918D01*
X81575497Y-92576862D01*
X81527338Y-92546300D01*
X81433466Y-92486727D01*
X81392925Y-92472291D01*
X81269225Y-92428243D01*
X81269220Y-92428242D01*
X81262590Y-92425881D01*
X81255602Y-92425048D01*
X81255599Y-92425047D01*
X81132498Y-92410368D01*
X81082480Y-92404404D01*
X81075477Y-92405140D01*
X81075476Y-92405140D01*
X80909088Y-92422628D01*
X80909086Y-92422629D01*
X80902088Y-92423364D01*
X80730379Y-92481818D01*
X80722400Y-92486727D01*
X80581895Y-92573166D01*
X80581892Y-92573168D01*
X80575888Y-92576862D01*
X80570853Y-92581793D01*
X80570850Y-92581795D01*
X80451325Y-92698843D01*
X80446293Y-92703771D01*
X80348035Y-92856238D01*
X80345626Y-92862858D01*
X80345624Y-92862861D01*
X80288669Y-93019344D01*
X80285997Y-93026685D01*
X80263263Y-93206640D01*
X59416677Y-93206640D01*
X59418885Y-90654000D01*
X67313693Y-90654000D01*
X67332885Y-90873371D01*
X67389880Y-91086076D01*
X67433415Y-91179438D01*
X67480618Y-91280666D01*
X67480621Y-91280671D01*
X67482944Y-91285653D01*
X67486100Y-91290160D01*
X67486101Y-91290162D01*
X67569756Y-91409633D01*
X67609251Y-91466038D01*
X67764962Y-91621749D01*
X67769471Y-91624906D01*
X67769473Y-91624908D01*
X67821538Y-91661364D01*
X67945346Y-91748056D01*
X68144924Y-91841120D01*
X68357629Y-91898115D01*
X68577000Y-91917307D01*
X68796371Y-91898115D01*
X69009076Y-91841120D01*
X69208654Y-91748056D01*
X69332462Y-91661364D01*
X69384527Y-91624908D01*
X69384529Y-91624906D01*
X69389038Y-91621749D01*
X69544749Y-91466038D01*
X69584245Y-91409633D01*
X69667899Y-91290162D01*
X69667900Y-91290160D01*
X69671056Y-91285653D01*
X69673379Y-91280671D01*
X69673382Y-91280666D01*
X69720585Y-91179438D01*
X69764120Y-91086076D01*
X69821115Y-90873371D01*
X69840307Y-90654000D01*
X69821115Y-90434629D01*
X69764120Y-90221924D01*
X69696540Y-90076998D01*
X69673382Y-90027334D01*
X69673379Y-90027329D01*
X69671056Y-90022347D01*
X69667899Y-90017838D01*
X69547908Y-89846473D01*
X69547906Y-89846470D01*
X69544749Y-89841962D01*
X69389038Y-89686251D01*
X69369182Y-89672347D01*
X69354405Y-89662000D01*
X78842496Y-89662000D01*
X78843186Y-89668565D01*
X78861495Y-89842762D01*
X78862458Y-89851928D01*
X78921473Y-90033556D01*
X79016960Y-90198944D01*
X79021378Y-90203851D01*
X79021379Y-90203852D01*
X79037054Y-90221261D01*
X79144747Y-90340866D01*
X79215230Y-90392075D01*
X79281339Y-90440106D01*
X79299248Y-90453118D01*
X79305276Y-90455802D01*
X79305278Y-90455803D01*
X79467681Y-90528109D01*
X79473712Y-90530794D01*
X79567113Y-90550647D01*
X79654056Y-90569128D01*
X79654061Y-90569128D01*
X79660513Y-90570500D01*
X79851487Y-90570500D01*
X79857939Y-90569128D01*
X79857944Y-90569128D01*
X79877176Y-90565040D01*
X101548463Y-90565040D01*
X101566163Y-90745560D01*
X101623418Y-90917673D01*
X101627065Y-90923695D01*
X101627066Y-90923697D01*
X101637978Y-90941714D01*
X101717380Y-91072824D01*
X101722269Y-91077887D01*
X101722270Y-91077888D01*
X101734991Y-91091061D01*
X101843382Y-91203302D01*
X101849278Y-91207160D01*
X101969228Y-91285653D01*
X101995159Y-91302622D01*
X102001763Y-91305078D01*
X102001765Y-91305079D01*
X102158558Y-91363390D01*
X102158560Y-91363390D01*
X102165168Y-91365848D01*
X102248995Y-91377033D01*
X102337980Y-91388907D01*
X102337984Y-91388907D01*
X102344961Y-91389838D01*
X102351972Y-91389200D01*
X102351976Y-91389200D01*
X102494459Y-91376232D01*
X102525600Y-91373398D01*
X102532302Y-91371220D01*
X102532304Y-91371220D01*
X102691409Y-91319524D01*
X102691412Y-91319523D01*
X102698108Y-91317347D01*
X102853912Y-91224469D01*
X102985266Y-91099382D01*
X103085643Y-90948302D01*
X103150055Y-90778738D01*
X103151035Y-90771766D01*
X103166181Y-90664000D01*
X110499693Y-90664000D01*
X110518885Y-90883371D01*
X110575880Y-91096076D01*
X110619415Y-91189438D01*
X110666618Y-91290666D01*
X110666621Y-91290671D01*
X110668944Y-91295653D01*
X110672100Y-91300160D01*
X110672101Y-91300162D01*
X110790978Y-91469935D01*
X110795251Y-91476038D01*
X110950962Y-91631749D01*
X110955471Y-91634906D01*
X110955473Y-91634908D01*
X110992205Y-91660628D01*
X111131346Y-91758056D01*
X111330924Y-91851120D01*
X111543629Y-91908115D01*
X111763000Y-91927307D01*
X111982371Y-91908115D01*
X112195076Y-91851120D01*
X112394654Y-91758056D01*
X112533795Y-91660628D01*
X112570527Y-91634908D01*
X112570529Y-91634906D01*
X112575038Y-91631749D01*
X112730749Y-91476038D01*
X112735023Y-91469935D01*
X112853899Y-91300162D01*
X112853900Y-91300160D01*
X112857056Y-91295653D01*
X112859379Y-91290671D01*
X112859382Y-91290666D01*
X112906585Y-91189438D01*
X112950120Y-91096076D01*
X113007115Y-90883371D01*
X113026307Y-90664000D01*
X113499693Y-90664000D01*
X113518885Y-90883371D01*
X113575880Y-91096076D01*
X113619415Y-91189438D01*
X113666618Y-91290666D01*
X113666621Y-91290671D01*
X113668944Y-91295653D01*
X113672100Y-91300160D01*
X113672101Y-91300162D01*
X113790978Y-91469935D01*
X113795251Y-91476038D01*
X113950962Y-91631749D01*
X113955471Y-91634906D01*
X113955473Y-91634908D01*
X113992205Y-91660628D01*
X114131346Y-91758056D01*
X114330924Y-91851120D01*
X114543629Y-91908115D01*
X114763000Y-91927307D01*
X114982371Y-91908115D01*
X115195076Y-91851120D01*
X115394654Y-91758056D01*
X115533795Y-91660628D01*
X115570527Y-91634908D01*
X115570529Y-91634906D01*
X115575038Y-91631749D01*
X115730749Y-91476038D01*
X115735023Y-91469935D01*
X115853899Y-91300162D01*
X115853900Y-91300160D01*
X115857056Y-91295653D01*
X115859379Y-91290671D01*
X115859382Y-91290666D01*
X115906585Y-91189438D01*
X115950120Y-91096076D01*
X116007115Y-90883371D01*
X116026307Y-90664000D01*
X116007115Y-90444629D01*
X115950120Y-90231924D01*
X115877877Y-90076998D01*
X115859382Y-90037334D01*
X115859379Y-90037329D01*
X115857056Y-90032347D01*
X115811606Y-89967438D01*
X115733908Y-89856473D01*
X115733906Y-89856470D01*
X115730749Y-89851962D01*
X115575038Y-89696251D01*
X115566323Y-89690148D01*
X115477606Y-89628028D01*
X115394654Y-89569944D01*
X115195076Y-89476880D01*
X114982371Y-89419885D01*
X114763000Y-89400693D01*
X114543629Y-89419885D01*
X114330924Y-89476880D01*
X114274187Y-89503337D01*
X114136334Y-89567618D01*
X114136329Y-89567621D01*
X114131347Y-89569944D01*
X114126840Y-89573100D01*
X114126838Y-89573101D01*
X113955473Y-89693092D01*
X113955470Y-89693094D01*
X113950962Y-89696251D01*
X113795251Y-89851962D01*
X113792094Y-89856470D01*
X113792092Y-89856473D01*
X113714394Y-89967438D01*
X113668944Y-90032347D01*
X113666621Y-90037329D01*
X113666618Y-90037334D01*
X113648123Y-90076998D01*
X113575880Y-90231924D01*
X113518885Y-90444629D01*
X113499693Y-90664000D01*
X113026307Y-90664000D01*
X113007115Y-90444629D01*
X112950120Y-90231924D01*
X112877877Y-90076998D01*
X112859382Y-90037334D01*
X112859379Y-90037329D01*
X112857056Y-90032347D01*
X112811606Y-89967438D01*
X112733908Y-89856473D01*
X112733906Y-89856470D01*
X112730749Y-89851962D01*
X112575038Y-89696251D01*
X112566323Y-89690148D01*
X112477606Y-89628028D01*
X112394654Y-89569944D01*
X112195076Y-89476880D01*
X111982371Y-89419885D01*
X111763000Y-89400693D01*
X111543629Y-89419885D01*
X111330924Y-89476880D01*
X111274187Y-89503337D01*
X111136334Y-89567618D01*
X111136329Y-89567621D01*
X111131347Y-89569944D01*
X111126840Y-89573100D01*
X111126838Y-89573101D01*
X110955473Y-89693092D01*
X110955470Y-89693094D01*
X110950962Y-89696251D01*
X110795251Y-89851962D01*
X110792094Y-89856470D01*
X110792092Y-89856473D01*
X110714394Y-89967438D01*
X110668944Y-90032347D01*
X110666621Y-90037329D01*
X110666618Y-90037334D01*
X110648123Y-90076998D01*
X110575880Y-90231924D01*
X110518885Y-90444629D01*
X110499693Y-90664000D01*
X103166181Y-90664000D01*
X103174748Y-90603039D01*
X103174748Y-90603036D01*
X103175299Y-90599117D01*
X103175616Y-90576400D01*
X103155397Y-90396145D01*
X103152638Y-90388222D01*
X103098064Y-90231506D01*
X103098062Y-90231503D01*
X103095745Y-90224848D01*
X102999626Y-90071024D01*
X102985941Y-90057243D01*
X102876778Y-89947315D01*
X102876774Y-89947312D01*
X102871815Y-89942318D01*
X102860697Y-89935262D01*
X102791486Y-89891340D01*
X102718666Y-89845127D01*
X102679442Y-89831160D01*
X102554425Y-89786643D01*
X102554420Y-89786642D01*
X102547790Y-89784281D01*
X102540802Y-89783448D01*
X102540799Y-89783447D01*
X102417698Y-89768768D01*
X102367680Y-89762804D01*
X102360677Y-89763540D01*
X102360676Y-89763540D01*
X102194288Y-89781028D01*
X102194286Y-89781029D01*
X102187288Y-89781764D01*
X102015579Y-89840218D01*
X101986340Y-89858206D01*
X101867095Y-89931566D01*
X101867092Y-89931568D01*
X101861088Y-89935262D01*
X101856053Y-89940193D01*
X101856050Y-89940195D01*
X101754365Y-90039773D01*
X101731493Y-90062171D01*
X101633235Y-90214638D01*
X101630826Y-90221258D01*
X101630824Y-90221261D01*
X101589079Y-90335955D01*
X101571197Y-90385085D01*
X101548463Y-90565040D01*
X79877176Y-90565040D01*
X79944887Y-90550647D01*
X80038288Y-90530794D01*
X80044319Y-90528109D01*
X80206722Y-90455803D01*
X80206724Y-90455802D01*
X80212752Y-90453118D01*
X80230662Y-90440106D01*
X80296770Y-90392075D01*
X80367253Y-90340866D01*
X80474946Y-90221261D01*
X80490621Y-90203852D01*
X80490622Y-90203851D01*
X80495040Y-90198944D01*
X80590527Y-90033556D01*
X80649542Y-89851928D01*
X80650506Y-89842762D01*
X80668814Y-89668565D01*
X80669504Y-89662000D01*
X80668310Y-89650640D01*
X97636863Y-89650640D01*
X97654563Y-89831160D01*
X97711818Y-90003273D01*
X97715465Y-90009295D01*
X97715466Y-90009297D01*
X97747488Y-90062171D01*
X97805780Y-90158424D01*
X97810669Y-90163487D01*
X97810670Y-90163488D01*
X97862288Y-90216939D01*
X97931782Y-90288902D01*
X98083559Y-90388222D01*
X98090163Y-90390678D01*
X98090165Y-90390679D01*
X98246958Y-90448990D01*
X98246960Y-90448990D01*
X98253568Y-90451448D01*
X98337395Y-90462633D01*
X98426380Y-90474507D01*
X98426384Y-90474507D01*
X98433361Y-90475438D01*
X98440372Y-90474800D01*
X98440376Y-90474800D01*
X98582859Y-90461832D01*
X98614000Y-90458998D01*
X98620702Y-90456820D01*
X98620704Y-90456820D01*
X98779809Y-90405124D01*
X98779812Y-90405123D01*
X98786508Y-90402947D01*
X98942312Y-90310069D01*
X99073666Y-90184982D01*
X99174043Y-90033902D01*
X99238455Y-89864338D01*
X99239435Y-89857366D01*
X99263148Y-89688639D01*
X99263148Y-89688636D01*
X99263699Y-89684717D01*
X99263852Y-89673738D01*
X99263961Y-89665962D01*
X99263961Y-89665957D01*
X99264016Y-89662000D01*
X99243797Y-89481745D01*
X99240429Y-89472072D01*
X99186464Y-89317106D01*
X99186462Y-89317103D01*
X99184145Y-89310448D01*
X99177765Y-89300238D01*
X99091759Y-89162598D01*
X99088026Y-89156624D01*
X99081510Y-89150062D01*
X99074140Y-89142640D01*
X104342463Y-89142640D01*
X104360163Y-89323160D01*
X104417418Y-89495273D01*
X104421065Y-89501295D01*
X104421066Y-89501297D01*
X104507731Y-89644398D01*
X104511380Y-89650424D01*
X104516269Y-89655487D01*
X104516270Y-89655488D01*
X104545978Y-89686251D01*
X104637382Y-89780902D01*
X104713270Y-89830562D01*
X104764886Y-89864338D01*
X104789159Y-89880222D01*
X104795763Y-89882678D01*
X104795765Y-89882679D01*
X104952558Y-89940990D01*
X104952560Y-89940990D01*
X104959168Y-89943448D01*
X105042995Y-89954633D01*
X105131980Y-89966507D01*
X105131984Y-89966507D01*
X105138961Y-89967438D01*
X105145972Y-89966800D01*
X105145976Y-89966800D01*
X105288459Y-89953832D01*
X105319600Y-89950998D01*
X105326302Y-89948820D01*
X105326304Y-89948820D01*
X105485409Y-89897124D01*
X105485412Y-89897123D01*
X105492108Y-89894947D01*
X105588513Y-89837478D01*
X105641860Y-89805677D01*
X105641862Y-89805676D01*
X105647912Y-89802069D01*
X105779266Y-89676982D01*
X105784859Y-89668565D01*
X105811791Y-89628028D01*
X105866149Y-89582357D01*
X105936568Y-89573325D01*
X106000692Y-89603798D01*
X106024514Y-89632483D01*
X106031730Y-89644398D01*
X106031733Y-89644401D01*
X106035380Y-89650424D01*
X106040269Y-89655487D01*
X106040270Y-89655488D01*
X106069978Y-89686251D01*
X106161382Y-89780902D01*
X106237270Y-89830562D01*
X106288886Y-89864338D01*
X106313159Y-89880222D01*
X106319763Y-89882678D01*
X106319765Y-89882679D01*
X106476558Y-89940990D01*
X106476560Y-89940990D01*
X106483168Y-89943448D01*
X106566995Y-89954633D01*
X106655980Y-89966507D01*
X106655984Y-89966507D01*
X106662961Y-89967438D01*
X106669972Y-89966800D01*
X106669976Y-89966800D01*
X106812459Y-89953832D01*
X106843600Y-89950998D01*
X106850302Y-89948820D01*
X106850304Y-89948820D01*
X107009409Y-89897124D01*
X107009412Y-89897123D01*
X107016108Y-89894947D01*
X107112513Y-89837478D01*
X107165860Y-89805677D01*
X107165862Y-89805676D01*
X107171912Y-89802069D01*
X107303266Y-89676982D01*
X107403643Y-89525902D01*
X107455005Y-89390693D01*
X107465555Y-89362920D01*
X107465556Y-89362918D01*
X107468055Y-89356338D01*
X107469035Y-89349366D01*
X107492748Y-89180639D01*
X107492748Y-89180636D01*
X107493299Y-89176717D01*
X107493616Y-89154000D01*
X107473397Y-88973745D01*
X107471080Y-88967091D01*
X107416064Y-88809106D01*
X107416062Y-88809103D01*
X107413745Y-88802448D01*
X107403662Y-88786312D01*
X107321359Y-88654598D01*
X107321357Y-88654595D01*
X107317626Y-88648624D01*
X107308835Y-88639771D01*
X107194778Y-88524915D01*
X107194774Y-88524912D01*
X107189815Y-88519918D01*
X107178697Y-88512862D01*
X107113563Y-88471527D01*
X107036666Y-88422727D01*
X107007463Y-88412328D01*
X106872425Y-88364243D01*
X106872420Y-88364242D01*
X106865790Y-88361881D01*
X106858802Y-88361048D01*
X106858799Y-88361047D01*
X106735698Y-88346368D01*
X106685680Y-88340404D01*
X106678677Y-88341140D01*
X106678676Y-88341140D01*
X106512288Y-88358628D01*
X106512286Y-88358629D01*
X106505288Y-88359364D01*
X106333579Y-88417818D01*
X106317619Y-88427637D01*
X106185095Y-88509166D01*
X106185092Y-88509168D01*
X106179088Y-88512862D01*
X106174053Y-88517793D01*
X106174050Y-88517795D01*
X106054525Y-88634843D01*
X106049493Y-88639771D01*
X106027210Y-88674347D01*
X106024329Y-88678818D01*
X105970615Y-88725243D01*
X105900328Y-88735258D01*
X105835785Y-88705683D01*
X105811567Y-88677335D01*
X105793626Y-88648624D01*
X105784835Y-88639771D01*
X105670778Y-88524915D01*
X105670774Y-88524912D01*
X105665815Y-88519918D01*
X105654697Y-88512862D01*
X105589563Y-88471527D01*
X105512666Y-88422727D01*
X105483463Y-88412328D01*
X105348425Y-88364243D01*
X105348420Y-88364242D01*
X105341790Y-88361881D01*
X105334802Y-88361048D01*
X105334799Y-88361047D01*
X105211698Y-88346368D01*
X105161680Y-88340404D01*
X105154677Y-88341140D01*
X105154676Y-88341140D01*
X104988288Y-88358628D01*
X104988286Y-88358629D01*
X104981288Y-88359364D01*
X104809579Y-88417818D01*
X104793619Y-88427637D01*
X104661095Y-88509166D01*
X104661092Y-88509168D01*
X104655088Y-88512862D01*
X104650053Y-88517793D01*
X104650050Y-88517795D01*
X104530525Y-88634843D01*
X104525493Y-88639771D01*
X104427235Y-88792238D01*
X104424826Y-88798858D01*
X104424824Y-88798861D01*
X104374449Y-88937265D01*
X104365197Y-88962685D01*
X104342463Y-89142640D01*
X99074140Y-89142640D01*
X98965178Y-89032915D01*
X98965174Y-89032912D01*
X98960215Y-89027918D01*
X98949097Y-89020862D01*
X98868438Y-88969675D01*
X98807066Y-88930727D01*
X98768033Y-88916828D01*
X98642825Y-88872243D01*
X98642820Y-88872242D01*
X98636190Y-88869881D01*
X98629202Y-88869048D01*
X98629199Y-88869047D01*
X98490790Y-88852543D01*
X98456080Y-88848404D01*
X98449077Y-88849140D01*
X98449076Y-88849140D01*
X98282688Y-88866628D01*
X98282686Y-88866629D01*
X98275688Y-88867364D01*
X98103979Y-88925818D01*
X98054812Y-88956066D01*
X97955495Y-89017166D01*
X97955492Y-89017168D01*
X97949488Y-89020862D01*
X97944453Y-89025793D01*
X97944450Y-89025795D01*
X97824925Y-89142843D01*
X97819893Y-89147771D01*
X97721635Y-89300238D01*
X97719226Y-89306858D01*
X97719224Y-89306861D01*
X97678261Y-89419406D01*
X97659597Y-89470685D01*
X97636863Y-89650640D01*
X80668310Y-89650640D01*
X80663387Y-89603798D01*
X80650232Y-89478635D01*
X80650232Y-89478633D01*
X80649542Y-89472072D01*
X80590527Y-89290444D01*
X80586160Y-89282879D01*
X80527131Y-89180639D01*
X80495040Y-89125056D01*
X80401224Y-89020862D01*
X80371675Y-88988045D01*
X80371674Y-88988044D01*
X80367253Y-88983134D01*
X80248276Y-88896692D01*
X80218094Y-88874763D01*
X80218093Y-88874762D01*
X80212752Y-88870882D01*
X80206724Y-88868198D01*
X80206722Y-88868197D01*
X80044319Y-88795891D01*
X80044318Y-88795891D01*
X80038288Y-88793206D01*
X79944887Y-88773353D01*
X79857944Y-88754872D01*
X79857939Y-88754872D01*
X79851487Y-88753500D01*
X79660513Y-88753500D01*
X79654061Y-88754872D01*
X79654056Y-88754872D01*
X79567113Y-88773353D01*
X79473712Y-88793206D01*
X79467682Y-88795891D01*
X79467681Y-88795891D01*
X79305278Y-88868197D01*
X79305276Y-88868198D01*
X79299248Y-88870882D01*
X79293907Y-88874762D01*
X79293906Y-88874763D01*
X79263724Y-88896692D01*
X79144747Y-88983134D01*
X79140326Y-88988044D01*
X79140325Y-88988045D01*
X79110777Y-89020862D01*
X79016960Y-89125056D01*
X78984869Y-89180639D01*
X78925841Y-89282879D01*
X78921473Y-89290444D01*
X78862458Y-89472072D01*
X78861768Y-89478633D01*
X78861768Y-89478635D01*
X78848613Y-89603798D01*
X78842496Y-89662000D01*
X69354405Y-89662000D01*
X69297557Y-89622195D01*
X69208654Y-89559944D01*
X69009076Y-89466880D01*
X68796371Y-89409885D01*
X68577000Y-89390693D01*
X68357629Y-89409885D01*
X68144924Y-89466880D01*
X68051562Y-89510415D01*
X67950334Y-89557618D01*
X67950329Y-89557621D01*
X67945347Y-89559944D01*
X67940840Y-89563100D01*
X67940838Y-89563101D01*
X67769473Y-89683092D01*
X67769470Y-89683094D01*
X67764962Y-89686251D01*
X67609251Y-89841962D01*
X67606094Y-89846470D01*
X67606092Y-89846473D01*
X67486101Y-90017838D01*
X67482944Y-90022347D01*
X67480621Y-90027329D01*
X67480618Y-90027334D01*
X67457460Y-90076998D01*
X67389880Y-90221924D01*
X67332885Y-90434629D01*
X67313693Y-90654000D01*
X59418885Y-90654000D01*
X59420372Y-88934890D01*
X59440433Y-88866787D01*
X59494129Y-88820340D01*
X59564412Y-88810297D01*
X59628967Y-88839846D01*
X59650831Y-88864542D01*
X59667948Y-88889919D01*
X59670415Y-88893576D01*
X59673360Y-88896847D01*
X59673361Y-88896848D01*
X59701736Y-88928362D01*
X59858371Y-89102322D01*
X59861733Y-89105143D01*
X59861734Y-89105144D01*
X59873652Y-89115144D01*
X60073550Y-89282879D01*
X60311764Y-89431731D01*
X60568375Y-89545982D01*
X60838390Y-89623407D01*
X60842740Y-89624018D01*
X60842743Y-89624019D01*
X60945690Y-89638487D01*
X61116552Y-89662500D01*
X61327146Y-89662500D01*
X61329332Y-89662347D01*
X61329336Y-89662347D01*
X61532827Y-89648118D01*
X61532832Y-89648117D01*
X61537212Y-89647811D01*
X61811970Y-89589409D01*
X61816099Y-89587906D01*
X61816103Y-89587905D01*
X62071781Y-89494846D01*
X62071785Y-89494844D01*
X62075926Y-89493337D01*
X62323942Y-89361464D01*
X62327503Y-89358877D01*
X62547629Y-89198947D01*
X62547632Y-89198944D01*
X62551192Y-89196358D01*
X62597513Y-89151627D01*
X62720442Y-89032915D01*
X62753252Y-89001231D01*
X62913229Y-88796469D01*
X62923481Y-88783347D01*
X62923482Y-88783346D01*
X62926188Y-88779882D01*
X62928384Y-88776078D01*
X62928389Y-88776071D01*
X63064435Y-88540431D01*
X63066636Y-88536619D01*
X63171862Y-88276176D01*
X63177931Y-88251834D01*
X63238753Y-88007893D01*
X63238754Y-88007888D01*
X63239817Y-88003624D01*
X63240691Y-87995314D01*
X63268719Y-87728636D01*
X63268719Y-87728633D01*
X63269178Y-87724267D01*
X63267265Y-87669475D01*
X63266725Y-87654000D01*
X64313693Y-87654000D01*
X64332885Y-87873371D01*
X64389880Y-88086076D01*
X64433415Y-88179438D01*
X64480618Y-88280666D01*
X64480621Y-88280671D01*
X64482944Y-88285653D01*
X64486100Y-88290160D01*
X64486101Y-88290162D01*
X64592980Y-88442800D01*
X64609251Y-88466038D01*
X64764962Y-88621749D01*
X64769471Y-88624906D01*
X64769473Y-88624908D01*
X64811875Y-88654598D01*
X64945346Y-88748056D01*
X65144924Y-88841120D01*
X65357629Y-88898115D01*
X65577000Y-88917307D01*
X65796371Y-88898115D01*
X66009076Y-88841120D01*
X66208654Y-88748056D01*
X66342125Y-88654598D01*
X66384527Y-88624908D01*
X66384529Y-88624906D01*
X66389038Y-88621749D01*
X66544749Y-88466038D01*
X66561021Y-88442800D01*
X66667899Y-88290162D01*
X66667900Y-88290160D01*
X66671056Y-88285653D01*
X66673379Y-88280671D01*
X66673382Y-88280666D01*
X66720585Y-88179438D01*
X66764120Y-88086076D01*
X66821115Y-87873371D01*
X66840307Y-87654000D01*
X67313693Y-87654000D01*
X67332885Y-87873371D01*
X67389880Y-88086076D01*
X67433415Y-88179438D01*
X67480618Y-88280666D01*
X67480621Y-88280671D01*
X67482944Y-88285653D01*
X67486100Y-88290160D01*
X67486101Y-88290162D01*
X67592980Y-88442800D01*
X67609251Y-88466038D01*
X67764962Y-88621749D01*
X67769471Y-88624906D01*
X67769473Y-88624908D01*
X67811875Y-88654598D01*
X67945346Y-88748056D01*
X68144924Y-88841120D01*
X68357629Y-88898115D01*
X68577000Y-88917307D01*
X68796371Y-88898115D01*
X69009076Y-88841120D01*
X69208654Y-88748056D01*
X69342125Y-88654598D01*
X69384527Y-88624908D01*
X69384529Y-88624906D01*
X69389038Y-88621749D01*
X69544749Y-88466038D01*
X69561021Y-88442800D01*
X69667899Y-88290162D01*
X69667900Y-88290160D01*
X69671056Y-88285653D01*
X69673379Y-88280671D01*
X69673382Y-88280666D01*
X69720585Y-88179438D01*
X69764120Y-88086076D01*
X69821115Y-87873371D01*
X69840307Y-87654000D01*
X69837213Y-87618640D01*
X87324463Y-87618640D01*
X87342163Y-87799160D01*
X87399418Y-87971273D01*
X87403065Y-87977295D01*
X87403066Y-87977297D01*
X87478020Y-88101061D01*
X87493380Y-88126424D01*
X87498269Y-88131487D01*
X87498270Y-88131488D01*
X87523719Y-88157841D01*
X87619382Y-88256902D01*
X87625278Y-88260760D01*
X87746987Y-88340404D01*
X87771159Y-88356222D01*
X87777763Y-88358678D01*
X87777765Y-88358679D01*
X87934558Y-88416990D01*
X87934560Y-88416990D01*
X87941168Y-88419448D01*
X88024995Y-88430633D01*
X88113980Y-88442507D01*
X88113984Y-88442507D01*
X88120961Y-88443438D01*
X88127972Y-88442800D01*
X88127976Y-88442800D01*
X88270459Y-88429832D01*
X88301600Y-88426998D01*
X88308302Y-88424820D01*
X88308304Y-88424820D01*
X88467409Y-88373124D01*
X88467412Y-88373123D01*
X88474108Y-88370947D01*
X88600415Y-88295653D01*
X88623860Y-88281677D01*
X88623862Y-88281676D01*
X88629912Y-88278069D01*
X88761266Y-88152982D01*
X88861643Y-88001902D01*
X88911725Y-87870061D01*
X88923555Y-87838920D01*
X88923556Y-87838918D01*
X88926055Y-87832338D01*
X88927035Y-87825366D01*
X88949713Y-87664000D01*
X110499693Y-87664000D01*
X110518885Y-87883371D01*
X110575880Y-88096076D01*
X110619415Y-88189438D01*
X110666618Y-88290666D01*
X110666621Y-88290671D01*
X110668944Y-88295653D01*
X110672100Y-88300160D01*
X110672101Y-88300162D01*
X110791662Y-88470912D01*
X110795251Y-88476038D01*
X110950962Y-88631749D01*
X110955471Y-88634906D01*
X110955473Y-88634908D01*
X110992311Y-88660702D01*
X111131346Y-88758056D01*
X111330924Y-88851120D01*
X111543629Y-88908115D01*
X111763000Y-88927307D01*
X111982371Y-88908115D01*
X112195076Y-88851120D01*
X112394654Y-88758056D01*
X112533689Y-88660702D01*
X112570527Y-88634908D01*
X112570529Y-88634906D01*
X112575038Y-88631749D01*
X112730749Y-88476038D01*
X112734339Y-88470912D01*
X112853899Y-88300162D01*
X112853900Y-88300160D01*
X112857056Y-88295653D01*
X112859379Y-88290671D01*
X112859382Y-88290666D01*
X112906585Y-88189438D01*
X112950120Y-88096076D01*
X113007115Y-87883371D01*
X113026307Y-87664000D01*
X113499693Y-87664000D01*
X113518885Y-87883371D01*
X113575880Y-88096076D01*
X113619415Y-88189438D01*
X113666618Y-88290666D01*
X113666621Y-88290671D01*
X113668944Y-88295653D01*
X113672100Y-88300160D01*
X113672101Y-88300162D01*
X113791662Y-88470912D01*
X113795251Y-88476038D01*
X113950962Y-88631749D01*
X113955471Y-88634906D01*
X113955473Y-88634908D01*
X113992311Y-88660702D01*
X114131346Y-88758056D01*
X114330924Y-88851120D01*
X114543629Y-88908115D01*
X114763000Y-88927307D01*
X114982371Y-88908115D01*
X115195076Y-88851120D01*
X115394654Y-88758056D01*
X115533689Y-88660702D01*
X115570527Y-88634908D01*
X115570529Y-88634906D01*
X115575038Y-88631749D01*
X115730749Y-88476038D01*
X115734339Y-88470912D01*
X115853899Y-88300162D01*
X115853900Y-88300160D01*
X115857056Y-88295653D01*
X115859379Y-88290671D01*
X115859382Y-88290666D01*
X115906585Y-88189438D01*
X115950120Y-88096076D01*
X116007115Y-87883371D01*
X116026307Y-87664000D01*
X116007115Y-87444629D01*
X115950120Y-87231924D01*
X115878216Y-87077724D01*
X115859382Y-87037334D01*
X115859379Y-87037329D01*
X115857056Y-87032347D01*
X115828905Y-86992143D01*
X115733908Y-86856473D01*
X115733906Y-86856470D01*
X115730749Y-86851962D01*
X115575038Y-86696251D01*
X115566323Y-86690148D01*
X115476236Y-86627069D01*
X115394654Y-86569944D01*
X115195076Y-86476880D01*
X114982371Y-86419885D01*
X114763000Y-86400693D01*
X114543629Y-86419885D01*
X114330924Y-86476880D01*
X114258946Y-86510444D01*
X114136334Y-86567618D01*
X114136329Y-86567621D01*
X114131347Y-86569944D01*
X114126840Y-86573100D01*
X114126838Y-86573101D01*
X113955473Y-86693092D01*
X113955470Y-86693094D01*
X113950962Y-86696251D01*
X113795251Y-86851962D01*
X113792094Y-86856470D01*
X113792092Y-86856473D01*
X113697095Y-86992143D01*
X113668944Y-87032347D01*
X113666621Y-87037329D01*
X113666618Y-87037334D01*
X113647784Y-87077724D01*
X113575880Y-87231924D01*
X113518885Y-87444629D01*
X113499693Y-87664000D01*
X113026307Y-87664000D01*
X113007115Y-87444629D01*
X112950120Y-87231924D01*
X112878216Y-87077724D01*
X112859382Y-87037334D01*
X112859379Y-87037329D01*
X112857056Y-87032347D01*
X112828905Y-86992143D01*
X112733908Y-86856473D01*
X112733906Y-86856470D01*
X112730749Y-86851962D01*
X112575038Y-86696251D01*
X112566323Y-86690148D01*
X112476236Y-86627069D01*
X112394654Y-86569944D01*
X112195076Y-86476880D01*
X111982371Y-86419885D01*
X111763000Y-86400693D01*
X111543629Y-86419885D01*
X111330924Y-86476880D01*
X111258946Y-86510444D01*
X111136334Y-86567618D01*
X111136329Y-86567621D01*
X111131347Y-86569944D01*
X111126840Y-86573100D01*
X111126838Y-86573101D01*
X110955473Y-86693092D01*
X110955470Y-86693094D01*
X110950962Y-86696251D01*
X110795251Y-86851962D01*
X110792094Y-86856470D01*
X110792092Y-86856473D01*
X110697095Y-86992143D01*
X110668944Y-87032347D01*
X110666621Y-87037329D01*
X110666618Y-87037334D01*
X110647784Y-87077724D01*
X110575880Y-87231924D01*
X110518885Y-87444629D01*
X110499693Y-87664000D01*
X88949713Y-87664000D01*
X88950748Y-87656639D01*
X88950748Y-87656636D01*
X88951299Y-87652717D01*
X88951616Y-87630000D01*
X92964000Y-87630000D01*
X97028000Y-87630000D01*
X97028000Y-86137271D01*
X97048002Y-86069150D01*
X97101658Y-86022657D01*
X97171932Y-86012553D01*
X97236512Y-86042047D01*
X97273558Y-86097499D01*
X97305418Y-86193273D01*
X97309065Y-86199295D01*
X97309066Y-86199297D01*
X97385980Y-86326297D01*
X97399380Y-86348424D01*
X97404269Y-86353487D01*
X97404270Y-86353488D01*
X97447162Y-86397903D01*
X97525382Y-86478902D01*
X97531278Y-86482760D01*
X97654052Y-86563101D01*
X97677159Y-86578222D01*
X97683763Y-86580678D01*
X97683765Y-86580679D01*
X97840558Y-86638990D01*
X97840560Y-86638990D01*
X97847168Y-86641448D01*
X97920629Y-86651250D01*
X98019980Y-86664507D01*
X98019984Y-86664507D01*
X98026961Y-86665438D01*
X98033972Y-86664800D01*
X98033976Y-86664800D01*
X98176459Y-86651832D01*
X98207600Y-86648998D01*
X98214302Y-86646820D01*
X98214304Y-86646820D01*
X98373409Y-86595124D01*
X98373412Y-86595123D01*
X98380108Y-86592947D01*
X98485759Y-86529966D01*
X98529860Y-86503677D01*
X98529862Y-86503676D01*
X98535912Y-86500069D01*
X98667266Y-86374982D01*
X98701643Y-86323240D01*
X99135463Y-86323240D01*
X99153163Y-86503760D01*
X99210418Y-86675873D01*
X99214065Y-86681895D01*
X99214066Y-86681897D01*
X99295972Y-86817140D01*
X99304380Y-86831024D01*
X99309269Y-86836087D01*
X99309270Y-86836088D01*
X99314943Y-86841962D01*
X99430382Y-86961502D01*
X99506271Y-87011162D01*
X99546888Y-87037741D01*
X99582159Y-87060822D01*
X99588763Y-87063278D01*
X99588765Y-87063279D01*
X99745558Y-87121590D01*
X99745560Y-87121590D01*
X99752168Y-87124048D01*
X99835995Y-87135233D01*
X99924980Y-87147107D01*
X99924984Y-87147107D01*
X99931961Y-87148038D01*
X99938972Y-87147400D01*
X99938976Y-87147400D01*
X100081459Y-87134432D01*
X100112600Y-87131598D01*
X100119302Y-87129420D01*
X100119304Y-87129420D01*
X100278409Y-87077724D01*
X100278412Y-87077723D01*
X100285108Y-87075547D01*
X100422248Y-86993795D01*
X100434860Y-86986277D01*
X100434862Y-86986276D01*
X100440912Y-86982669D01*
X100572266Y-86857582D01*
X100672643Y-86706502D01*
X100729199Y-86557619D01*
X100734555Y-86543520D01*
X100734556Y-86543518D01*
X100737055Y-86536938D01*
X100738295Y-86528118D01*
X100761748Y-86361239D01*
X100761748Y-86361236D01*
X100762299Y-86357317D01*
X100762452Y-86346338D01*
X100762561Y-86338562D01*
X100762561Y-86338557D01*
X100762616Y-86334600D01*
X100742397Y-86154345D01*
X100740080Y-86147691D01*
X100685064Y-85989706D01*
X100685062Y-85989703D01*
X100682745Y-85983048D01*
X100658639Y-85944470D01*
X100590359Y-85835198D01*
X100586626Y-85829224D01*
X100572941Y-85815443D01*
X100463778Y-85705515D01*
X100463774Y-85705512D01*
X100458815Y-85700518D01*
X100451389Y-85695805D01*
X100387878Y-85655500D01*
X100305666Y-85603327D01*
X100276463Y-85592928D01*
X100141425Y-85544843D01*
X100141420Y-85544842D01*
X100134790Y-85542481D01*
X100127802Y-85541648D01*
X100127799Y-85541647D01*
X100004698Y-85526968D01*
X99954680Y-85521004D01*
X99947677Y-85521740D01*
X99947676Y-85521740D01*
X99781288Y-85539228D01*
X99781286Y-85539229D01*
X99774288Y-85539964D01*
X99602579Y-85598418D01*
X99557601Y-85626089D01*
X99454095Y-85689766D01*
X99454092Y-85689768D01*
X99448088Y-85693462D01*
X99443053Y-85698393D01*
X99443050Y-85698395D01*
X99324322Y-85814663D01*
X99318493Y-85820371D01*
X99220235Y-85972838D01*
X99217826Y-85979458D01*
X99217824Y-85979461D01*
X99169714Y-86111642D01*
X99158197Y-86143285D01*
X99135463Y-86323240D01*
X98701643Y-86323240D01*
X98767643Y-86223902D01*
X98815660Y-86097499D01*
X98829555Y-86060920D01*
X98829556Y-86060918D01*
X98832055Y-86054338D01*
X98833035Y-86047366D01*
X98856748Y-85878639D01*
X98856748Y-85878636D01*
X98857299Y-85874717D01*
X98857616Y-85852000D01*
X98837397Y-85671745D01*
X98833691Y-85661102D01*
X98780064Y-85507106D01*
X98780062Y-85507103D01*
X98777745Y-85500448D01*
X98757861Y-85468627D01*
X98685359Y-85352598D01*
X98681626Y-85346624D01*
X98667941Y-85332843D01*
X98558778Y-85222915D01*
X98558774Y-85222912D01*
X98553815Y-85217918D01*
X98542697Y-85210862D01*
X98484012Y-85173620D01*
X98400666Y-85120727D01*
X98356561Y-85105022D01*
X98236425Y-85062243D01*
X98236420Y-85062242D01*
X98229790Y-85059881D01*
X98222802Y-85059048D01*
X98222799Y-85059047D01*
X98099698Y-85044368D01*
X98049680Y-85038404D01*
X98042677Y-85039140D01*
X98042676Y-85039140D01*
X97876288Y-85056628D01*
X97876286Y-85056629D01*
X97869288Y-85057364D01*
X97697579Y-85115818D01*
X97691575Y-85119512D01*
X97549095Y-85207166D01*
X97549092Y-85207168D01*
X97543088Y-85210862D01*
X97538053Y-85215793D01*
X97538050Y-85215795D01*
X97461595Y-85290666D01*
X97413493Y-85337771D01*
X97315235Y-85490238D01*
X97312826Y-85496858D01*
X97312824Y-85496861D01*
X97296310Y-85542233D01*
X97275861Y-85598418D01*
X97272401Y-85607923D01*
X97230307Y-85665094D01*
X97163985Y-85690432D01*
X97094494Y-85675891D01*
X97043895Y-85626089D01*
X97028000Y-85564828D01*
X97028000Y-84664000D01*
X110499693Y-84664000D01*
X110518885Y-84883371D01*
X110575880Y-85096076D01*
X110586918Y-85119747D01*
X110666618Y-85290666D01*
X110666621Y-85290671D01*
X110668944Y-85295653D01*
X110672100Y-85300160D01*
X110672101Y-85300162D01*
X110790978Y-85469935D01*
X110795251Y-85476038D01*
X110950962Y-85631749D01*
X110955471Y-85634906D01*
X110955473Y-85634908D01*
X111030241Y-85687261D01*
X111131346Y-85758056D01*
X111330924Y-85851120D01*
X111543629Y-85908115D01*
X111763000Y-85927307D01*
X111982371Y-85908115D01*
X112195076Y-85851120D01*
X112394654Y-85758056D01*
X112495759Y-85687261D01*
X112570527Y-85634908D01*
X112570529Y-85634906D01*
X112575038Y-85631749D01*
X112730749Y-85476038D01*
X112735023Y-85469935D01*
X112853899Y-85300162D01*
X112853900Y-85300160D01*
X112857056Y-85295653D01*
X112859379Y-85290671D01*
X112859382Y-85290666D01*
X112939082Y-85119747D01*
X112950120Y-85096076D01*
X113007115Y-84883371D01*
X113026307Y-84664000D01*
X113007115Y-84444629D01*
X112950120Y-84231924D01*
X112906585Y-84138562D01*
X112859382Y-84037334D01*
X112859379Y-84037329D01*
X112857056Y-84032347D01*
X112739578Y-83864571D01*
X112733908Y-83856473D01*
X112733906Y-83856470D01*
X112730749Y-83851962D01*
X112575038Y-83696251D01*
X112566323Y-83690148D01*
X112421930Y-83589043D01*
X112394654Y-83569944D01*
X112195076Y-83476880D01*
X111982371Y-83419885D01*
X111763000Y-83400693D01*
X111543629Y-83419885D01*
X111330924Y-83476880D01*
X111237562Y-83520415D01*
X111136334Y-83567618D01*
X111136329Y-83567621D01*
X111131347Y-83569944D01*
X111126840Y-83573100D01*
X111126838Y-83573101D01*
X110955473Y-83693092D01*
X110955470Y-83693094D01*
X110950962Y-83696251D01*
X110795251Y-83851962D01*
X110792094Y-83856470D01*
X110792092Y-83856473D01*
X110786422Y-83864571D01*
X110668944Y-84032347D01*
X110666621Y-84037329D01*
X110666618Y-84037334D01*
X110619415Y-84138562D01*
X110575880Y-84231924D01*
X110518885Y-84444629D01*
X110499693Y-84664000D01*
X97028000Y-84664000D01*
X97028000Y-83058000D01*
X94505619Y-83025662D01*
X93083713Y-83007432D01*
X93083712Y-83007432D01*
X93065600Y-83007200D01*
X92999786Y-86001717D01*
X92964701Y-87598127D01*
X92964000Y-87630000D01*
X88951616Y-87630000D01*
X88931397Y-87449745D01*
X88929080Y-87443091D01*
X88874064Y-87285106D01*
X88874062Y-87285103D01*
X88871745Y-87278448D01*
X88775626Y-87124624D01*
X88761941Y-87110843D01*
X88652778Y-87000915D01*
X88652774Y-87000912D01*
X88647815Y-86995918D01*
X88636697Y-86988862D01*
X88502902Y-86903954D01*
X88494666Y-86898727D01*
X88465463Y-86888328D01*
X88330425Y-86840243D01*
X88330420Y-86840242D01*
X88323790Y-86837881D01*
X88316802Y-86837048D01*
X88316799Y-86837047D01*
X88193698Y-86822368D01*
X88143680Y-86816404D01*
X88136677Y-86817140D01*
X88136676Y-86817140D01*
X87970288Y-86834628D01*
X87970286Y-86834629D01*
X87963288Y-86835364D01*
X87791579Y-86893818D01*
X87729109Y-86932250D01*
X87643095Y-86985166D01*
X87643092Y-86985168D01*
X87637088Y-86988862D01*
X87632053Y-86993793D01*
X87632050Y-86993795D01*
X87548568Y-87075547D01*
X87507493Y-87115771D01*
X87409235Y-87268238D01*
X87406826Y-87274858D01*
X87406824Y-87274861D01*
X87392442Y-87314376D01*
X87347197Y-87438685D01*
X87324463Y-87618640D01*
X69837213Y-87618640D01*
X69821115Y-87434629D01*
X69764120Y-87221924D01*
X69696879Y-87077724D01*
X69673382Y-87027334D01*
X69673379Y-87027329D01*
X69671056Y-87022347D01*
X69639872Y-86977811D01*
X69547908Y-86846473D01*
X69547906Y-86846470D01*
X69544749Y-86841962D01*
X69389038Y-86686251D01*
X69208654Y-86559944D01*
X69009076Y-86466880D01*
X68796371Y-86409885D01*
X68577000Y-86390693D01*
X68357629Y-86409885D01*
X68144924Y-86466880D01*
X68059227Y-86506841D01*
X67950334Y-86557618D01*
X67950329Y-86557621D01*
X67945347Y-86559944D01*
X67940840Y-86563100D01*
X67940838Y-86563101D01*
X67769473Y-86683092D01*
X67769470Y-86683094D01*
X67764962Y-86686251D01*
X67609251Y-86841962D01*
X67606094Y-86846470D01*
X67606092Y-86846473D01*
X67514128Y-86977811D01*
X67482944Y-87022347D01*
X67480621Y-87027329D01*
X67480618Y-87027334D01*
X67457121Y-87077724D01*
X67389880Y-87221924D01*
X67332885Y-87434629D01*
X67313693Y-87654000D01*
X66840307Y-87654000D01*
X66821115Y-87434629D01*
X66764120Y-87221924D01*
X66696879Y-87077724D01*
X66673382Y-87027334D01*
X66673379Y-87027329D01*
X66671056Y-87022347D01*
X66639872Y-86977811D01*
X66547908Y-86846473D01*
X66547906Y-86846470D01*
X66544749Y-86841962D01*
X66389038Y-86686251D01*
X66208654Y-86559944D01*
X66009076Y-86466880D01*
X65796371Y-86409885D01*
X65577000Y-86390693D01*
X65357629Y-86409885D01*
X65144924Y-86466880D01*
X65059227Y-86506841D01*
X64950334Y-86557618D01*
X64950329Y-86557621D01*
X64945347Y-86559944D01*
X64940840Y-86563100D01*
X64940838Y-86563101D01*
X64769473Y-86683092D01*
X64769470Y-86683094D01*
X64764962Y-86686251D01*
X64609251Y-86841962D01*
X64606094Y-86846470D01*
X64606092Y-86846473D01*
X64514128Y-86977811D01*
X64482944Y-87022347D01*
X64480621Y-87027329D01*
X64480618Y-87027334D01*
X64457121Y-87077724D01*
X64389880Y-87221924D01*
X64332885Y-87434629D01*
X64313693Y-87654000D01*
X63266725Y-87654000D01*
X63259529Y-87447939D01*
X63259528Y-87447933D01*
X63259375Y-87443542D01*
X63257804Y-87434629D01*
X63211360Y-87171236D01*
X63210598Y-87166913D01*
X63123797Y-86899765D01*
X63120897Y-86893818D01*
X63029536Y-86706502D01*
X63000660Y-86647298D01*
X62998205Y-86643659D01*
X62998202Y-86643653D01*
X62896318Y-86492604D01*
X62843585Y-86414424D01*
X62828710Y-86397903D01*
X62658566Y-86208940D01*
X62655629Y-86205678D01*
X62648025Y-86199297D01*
X62555479Y-86121642D01*
X62440450Y-86025121D01*
X62348461Y-85967640D01*
X88721463Y-85967640D01*
X88739163Y-86148160D01*
X88796418Y-86320273D01*
X88800065Y-86326295D01*
X88800066Y-86326297D01*
X88886614Y-86469205D01*
X88890380Y-86475424D01*
X88895269Y-86480487D01*
X88895270Y-86480488D01*
X88941266Y-86528118D01*
X89016382Y-86605902D01*
X89022278Y-86609760D01*
X89160048Y-86699914D01*
X89168159Y-86705222D01*
X89174763Y-86707678D01*
X89174765Y-86707679D01*
X89331558Y-86765990D01*
X89331560Y-86765990D01*
X89338168Y-86768448D01*
X89421995Y-86779633D01*
X89510980Y-86791507D01*
X89510984Y-86791507D01*
X89517961Y-86792438D01*
X89524972Y-86791800D01*
X89524976Y-86791800D01*
X89681338Y-86777569D01*
X89698600Y-86775998D01*
X89705302Y-86773820D01*
X89705304Y-86773820D01*
X89864409Y-86722124D01*
X89864412Y-86722123D01*
X89871108Y-86719947D01*
X89967513Y-86662478D01*
X90020860Y-86630677D01*
X90020862Y-86630676D01*
X90026912Y-86627069D01*
X90158266Y-86501982D01*
X90258643Y-86350902D01*
X90316233Y-86199297D01*
X90320555Y-86187920D01*
X90320556Y-86187918D01*
X90323055Y-86181338D01*
X90325865Y-86161344D01*
X90347748Y-86005639D01*
X90347748Y-86005636D01*
X90348299Y-86001717D01*
X90348616Y-85979000D01*
X90328397Y-85798745D01*
X90326080Y-85792091D01*
X90271064Y-85634106D01*
X90271062Y-85634103D01*
X90268745Y-85627448D01*
X90253673Y-85603327D01*
X90176359Y-85479598D01*
X90172626Y-85473624D01*
X90098804Y-85399285D01*
X90064997Y-85336854D01*
X90070309Y-85266057D01*
X90113053Y-85209370D01*
X90179660Y-85184791D01*
X90204872Y-85185608D01*
X90225801Y-85188401D01*
X90247581Y-85191307D01*
X90247584Y-85191307D01*
X90254561Y-85192238D01*
X90261572Y-85191600D01*
X90261576Y-85191600D01*
X90404059Y-85178632D01*
X90435200Y-85175798D01*
X90441902Y-85173620D01*
X90441904Y-85173620D01*
X90601009Y-85121924D01*
X90601012Y-85121923D01*
X90607708Y-85119747D01*
X90742763Y-85039238D01*
X90757460Y-85030477D01*
X90757462Y-85030476D01*
X90763512Y-85026869D01*
X90894866Y-84901782D01*
X90995243Y-84750702D01*
X91059655Y-84581138D01*
X91060635Y-84574166D01*
X91084348Y-84405439D01*
X91084348Y-84405436D01*
X91084899Y-84401517D01*
X91085216Y-84378800D01*
X91064997Y-84198545D01*
X91062680Y-84191891D01*
X91007664Y-84033906D01*
X91007662Y-84033903D01*
X91005345Y-84027248D01*
X90909226Y-83873424D01*
X90892393Y-83856473D01*
X90786378Y-83749715D01*
X90786374Y-83749712D01*
X90781415Y-83744718D01*
X90770297Y-83737662D01*
X90689285Y-83686251D01*
X90628266Y-83647527D01*
X90599063Y-83637128D01*
X90464025Y-83589043D01*
X90464020Y-83589042D01*
X90457390Y-83586681D01*
X90450402Y-83585848D01*
X90450399Y-83585847D01*
X90317030Y-83569944D01*
X90277280Y-83565204D01*
X90270277Y-83565940D01*
X90270276Y-83565940D01*
X90103888Y-83583428D01*
X90103886Y-83583429D01*
X90096888Y-83584164D01*
X89925179Y-83642618D01*
X89919175Y-83646312D01*
X89776695Y-83733966D01*
X89776692Y-83733968D01*
X89770688Y-83737662D01*
X89765653Y-83742593D01*
X89765650Y-83742595D01*
X89659574Y-83846473D01*
X89641093Y-83864571D01*
X89542835Y-84017038D01*
X89540426Y-84023658D01*
X89540424Y-84023661D01*
X89483206Y-84180866D01*
X89480797Y-84187485D01*
X89458063Y-84367440D01*
X89475763Y-84547960D01*
X89533018Y-84720073D01*
X89536665Y-84726095D01*
X89536666Y-84726097D01*
X89622541Y-84867894D01*
X89626980Y-84875224D01*
X89631870Y-84880287D01*
X89631874Y-84880293D01*
X89709097Y-84960259D01*
X89742030Y-85023155D01*
X89735730Y-85093872D01*
X89692199Y-85149956D01*
X89625255Y-85173603D01*
X89603543Y-85172900D01*
X89540680Y-85165404D01*
X89533677Y-85166140D01*
X89533676Y-85166140D01*
X89367288Y-85183628D01*
X89367286Y-85183629D01*
X89360288Y-85184364D01*
X89188579Y-85242818D01*
X89182575Y-85246512D01*
X89040095Y-85334166D01*
X89040092Y-85334168D01*
X89034088Y-85337862D01*
X89029053Y-85342793D01*
X89029050Y-85342795D01*
X89019040Y-85352598D01*
X88904493Y-85464771D01*
X88806235Y-85617238D01*
X88803826Y-85623858D01*
X88803824Y-85623861D01*
X88750340Y-85770806D01*
X88744197Y-85787685D01*
X88721463Y-85967640D01*
X62348461Y-85967640D01*
X62202236Y-85876269D01*
X62003274Y-85787685D01*
X61949639Y-85763805D01*
X61949637Y-85763804D01*
X61945625Y-85762018D01*
X61748574Y-85705515D01*
X61679837Y-85685805D01*
X61679836Y-85685805D01*
X61675610Y-85684593D01*
X61671260Y-85683982D01*
X61671257Y-85683981D01*
X61568310Y-85669513D01*
X61397448Y-85645500D01*
X61186854Y-85645500D01*
X61184668Y-85645653D01*
X61184664Y-85645653D01*
X60981173Y-85659882D01*
X60981168Y-85659883D01*
X60976788Y-85660189D01*
X60702030Y-85718591D01*
X60697901Y-85720094D01*
X60697897Y-85720095D01*
X60442219Y-85813154D01*
X60442215Y-85813156D01*
X60438074Y-85814663D01*
X60190058Y-85946536D01*
X60186499Y-85949122D01*
X60186497Y-85949123D01*
X60021294Y-86069150D01*
X59962808Y-86111642D01*
X59959644Y-86114698D01*
X59959641Y-86114700D01*
X59925478Y-86147691D01*
X59760748Y-86306769D01*
X59671383Y-86421152D01*
X59647877Y-86451238D01*
X59590175Y-86492604D01*
X59519270Y-86496207D01*
X59457673Y-86460904D01*
X59424940Y-86397903D01*
X59422587Y-86373556D01*
X59424074Y-84654000D01*
X64313693Y-84654000D01*
X64332885Y-84873371D01*
X64389880Y-85086076D01*
X64405581Y-85119747D01*
X64480618Y-85280666D01*
X64480621Y-85280671D01*
X64482944Y-85285653D01*
X64609251Y-85466038D01*
X64764962Y-85621749D01*
X64769471Y-85624906D01*
X64769473Y-85624908D01*
X64826860Y-85665091D01*
X64945346Y-85748056D01*
X65144924Y-85841120D01*
X65357629Y-85898115D01*
X65577000Y-85917307D01*
X65796371Y-85898115D01*
X66009076Y-85841120D01*
X66208654Y-85748056D01*
X66327140Y-85665091D01*
X66384527Y-85624908D01*
X66384529Y-85624906D01*
X66389038Y-85621749D01*
X66544749Y-85466038D01*
X66671056Y-85285653D01*
X66673379Y-85280671D01*
X66673382Y-85280666D01*
X66748419Y-85119747D01*
X66764120Y-85086076D01*
X66821115Y-84873371D01*
X66840307Y-84654000D01*
X67313693Y-84654000D01*
X67332885Y-84873371D01*
X67389880Y-85086076D01*
X67405581Y-85119747D01*
X67480618Y-85280666D01*
X67480621Y-85280671D01*
X67482944Y-85285653D01*
X67609251Y-85466038D01*
X67764962Y-85621749D01*
X67769471Y-85624906D01*
X67769473Y-85624908D01*
X67826860Y-85665091D01*
X67945346Y-85748056D01*
X68144924Y-85841120D01*
X68357629Y-85898115D01*
X68577000Y-85917307D01*
X68796371Y-85898115D01*
X69009076Y-85841120D01*
X69208654Y-85748056D01*
X69327140Y-85665091D01*
X69384527Y-85624908D01*
X69384529Y-85624906D01*
X69389038Y-85621749D01*
X69544749Y-85466038D01*
X69671056Y-85285653D01*
X69673379Y-85280671D01*
X69673382Y-85280666D01*
X69748419Y-85119747D01*
X69764120Y-85086076D01*
X69821115Y-84873371D01*
X69840307Y-84654000D01*
X69821115Y-84434629D01*
X69764120Y-84221924D01*
X69678045Y-84037334D01*
X69673382Y-84027334D01*
X69673379Y-84027329D01*
X69671056Y-84022347D01*
X69560580Y-83864571D01*
X69547908Y-83846473D01*
X69547906Y-83846470D01*
X69544749Y-83841962D01*
X69389038Y-83686251D01*
X69208654Y-83559944D01*
X69009076Y-83466880D01*
X68796371Y-83409885D01*
X68577000Y-83390693D01*
X68357629Y-83409885D01*
X68144924Y-83466880D01*
X68051562Y-83510415D01*
X67950334Y-83557618D01*
X67950329Y-83557621D01*
X67945347Y-83559944D01*
X67940840Y-83563100D01*
X67940838Y-83563101D01*
X67769473Y-83683092D01*
X67769470Y-83683094D01*
X67764962Y-83686251D01*
X67609251Y-83841962D01*
X67606094Y-83846470D01*
X67606092Y-83846473D01*
X67593420Y-83864571D01*
X67482944Y-84022347D01*
X67480621Y-84027329D01*
X67480618Y-84027334D01*
X67475955Y-84037334D01*
X67389880Y-84221924D01*
X67332885Y-84434629D01*
X67313693Y-84654000D01*
X66840307Y-84654000D01*
X66821115Y-84434629D01*
X66764120Y-84221924D01*
X66678045Y-84037334D01*
X66673382Y-84027334D01*
X66673379Y-84027329D01*
X66671056Y-84022347D01*
X66560580Y-83864571D01*
X66547908Y-83846473D01*
X66547906Y-83846470D01*
X66544749Y-83841962D01*
X66389038Y-83686251D01*
X66208654Y-83559944D01*
X66009076Y-83466880D01*
X65796371Y-83409885D01*
X65577000Y-83390693D01*
X65357629Y-83409885D01*
X65144924Y-83466880D01*
X65051562Y-83510415D01*
X64950334Y-83557618D01*
X64950329Y-83557621D01*
X64945347Y-83559944D01*
X64940840Y-83563100D01*
X64940838Y-83563101D01*
X64769473Y-83683092D01*
X64769470Y-83683094D01*
X64764962Y-83686251D01*
X64609251Y-83841962D01*
X64606094Y-83846470D01*
X64606092Y-83846473D01*
X64593420Y-83864571D01*
X64482944Y-84022347D01*
X64480621Y-84027329D01*
X64480618Y-84027334D01*
X64475955Y-84037334D01*
X64389880Y-84221924D01*
X64332885Y-84434629D01*
X64313693Y-84654000D01*
X59424074Y-84654000D01*
X59426345Y-82027851D01*
X101607719Y-82027851D01*
X101624268Y-82224934D01*
X101678783Y-82415050D01*
X101769187Y-82590956D01*
X101892035Y-82745953D01*
X101896728Y-82749947D01*
X101896729Y-82749948D01*
X101942269Y-82788705D01*
X102042650Y-82874136D01*
X102215294Y-82970624D01*
X102403392Y-83031740D01*
X102599777Y-83055158D01*
X102605912Y-83054686D01*
X102605914Y-83054686D01*
X102790830Y-83040457D01*
X102790834Y-83040456D01*
X102796972Y-83039984D01*
X102987463Y-82986798D01*
X102992959Y-82984022D01*
X102992961Y-82984021D01*
X103006716Y-82977073D01*
X103076538Y-82964214D01*
X103128368Y-82984514D01*
X103129240Y-82982921D01*
X103137109Y-82987229D01*
X103144295Y-82992615D01*
X103280684Y-83043745D01*
X103342866Y-83050500D01*
X104439134Y-83050500D01*
X104501316Y-83043745D01*
X104637705Y-82992615D01*
X104754261Y-82905261D01*
X104841615Y-82788705D01*
X104892745Y-82652316D01*
X104899500Y-82590134D01*
X104899500Y-81493866D01*
X104892745Y-81431684D01*
X104841615Y-81295295D01*
X104754261Y-81178739D01*
X104637705Y-81091385D01*
X104501316Y-81040255D01*
X104439134Y-81033500D01*
X103342866Y-81033500D01*
X103280684Y-81040255D01*
X103144295Y-81091385D01*
X103137116Y-81096766D01*
X103129237Y-81101079D01*
X103128023Y-81098861D01*
X103074072Y-81119018D01*
X103017127Y-81109654D01*
X103013701Y-81107802D01*
X102824768Y-81049318D01*
X102818643Y-81048674D01*
X102818642Y-81048674D01*
X102634204Y-81029289D01*
X102634202Y-81029289D01*
X102628075Y-81028645D01*
X102545576Y-81036153D01*
X102437251Y-81046011D01*
X102437248Y-81046012D01*
X102431112Y-81046570D01*
X102425206Y-81048308D01*
X102425202Y-81048309D01*
X102320076Y-81079249D01*
X102241381Y-81102410D01*
X102235923Y-81105263D01*
X102235919Y-81105265D01*
X102145147Y-81152720D01*
X102066110Y-81194040D01*
X101911975Y-81317968D01*
X101784846Y-81469474D01*
X101781879Y-81474872D01*
X101781875Y-81474877D01*
X101703095Y-81618180D01*
X101689567Y-81642787D01*
X101629765Y-81831306D01*
X101607719Y-82027851D01*
X59426345Y-82027851D01*
X59427871Y-80264000D01*
X68936496Y-80264000D01*
X68937186Y-80270565D01*
X68947865Y-80372166D01*
X68956458Y-80453928D01*
X69015473Y-80635556D01*
X69110960Y-80800944D01*
X69238747Y-80942866D01*
X69337843Y-81014864D01*
X69387773Y-81051140D01*
X69393248Y-81055118D01*
X69399276Y-81057802D01*
X69399278Y-81057803D01*
X69536770Y-81119018D01*
X69567712Y-81132794D01*
X69661112Y-81152647D01*
X69748056Y-81171128D01*
X69748061Y-81171128D01*
X69754513Y-81172500D01*
X69945487Y-81172500D01*
X69951939Y-81171128D01*
X69951944Y-81171128D01*
X70038888Y-81152647D01*
X70132288Y-81132794D01*
X70163230Y-81119018D01*
X70300722Y-81057803D01*
X70300724Y-81057802D01*
X70306752Y-81055118D01*
X70312228Y-81051140D01*
X70362157Y-81014864D01*
X70461253Y-80942866D01*
X70589040Y-80800944D01*
X70684527Y-80635556D01*
X70738895Y-80468231D01*
X70778968Y-80409626D01*
X70832529Y-80383922D01*
X70894288Y-80370794D01*
X70949613Y-80346162D01*
X71062722Y-80295803D01*
X71062724Y-80295802D01*
X71068752Y-80293118D01*
X71099794Y-80270565D01*
X71194485Y-80201767D01*
X71223253Y-80180866D01*
X71262962Y-80136765D01*
X71346621Y-80043852D01*
X71346622Y-80043851D01*
X71351040Y-80038944D01*
X71446527Y-79873556D01*
X71499670Y-79710000D01*
X85916693Y-79710000D01*
X85935885Y-79929371D01*
X85992880Y-80142076D01*
X86020714Y-80201767D01*
X86083618Y-80336666D01*
X86083621Y-80336671D01*
X86085944Y-80341653D01*
X86089100Y-80346160D01*
X86089101Y-80346162D01*
X86174576Y-80468232D01*
X86212251Y-80522038D01*
X86367962Y-80677749D01*
X86548346Y-80804056D01*
X86747924Y-80897120D01*
X86960629Y-80954115D01*
X87180000Y-80973307D01*
X87399371Y-80954115D01*
X87612076Y-80897120D01*
X87811654Y-80804056D01*
X87992038Y-80677749D01*
X88147749Y-80522038D01*
X88185425Y-80468232D01*
X88270899Y-80346162D01*
X88270900Y-80346160D01*
X88274056Y-80341653D01*
X88276379Y-80336671D01*
X88276382Y-80336666D01*
X88339286Y-80201767D01*
X88367120Y-80142076D01*
X88424115Y-79929371D01*
X88443307Y-79710000D01*
X88424115Y-79490629D01*
X88367120Y-79277924D01*
X88300144Y-79134293D01*
X88289483Y-79064102D01*
X88318463Y-78999290D01*
X88377883Y-78960433D01*
X88448877Y-78959870D01*
X88465587Y-78965937D01*
X88490677Y-78977108D01*
X88490685Y-78977111D01*
X88496712Y-78979794D01*
X88588433Y-78999290D01*
X88677056Y-79018128D01*
X88677061Y-79018128D01*
X88683513Y-79019500D01*
X88874487Y-79019500D01*
X88880944Y-79018128D01*
X88880949Y-79018127D01*
X88892476Y-79015677D01*
X88963267Y-79021080D01*
X89019898Y-79063897D01*
X89044391Y-79130535D01*
X89032866Y-79192173D01*
X88992880Y-79277924D01*
X88935885Y-79490629D01*
X88916693Y-79710000D01*
X88935885Y-79929371D01*
X88992880Y-80142076D01*
X89020714Y-80201767D01*
X89083618Y-80336666D01*
X89083621Y-80336671D01*
X89085944Y-80341653D01*
X89089100Y-80346160D01*
X89089101Y-80346162D01*
X89174576Y-80468232D01*
X89212251Y-80522038D01*
X89367962Y-80677749D01*
X89548346Y-80804056D01*
X89747924Y-80897120D01*
X89960629Y-80954115D01*
X90180000Y-80973307D01*
X90399371Y-80954115D01*
X90612076Y-80897120D01*
X90811654Y-80804056D01*
X90992038Y-80677749D01*
X91147749Y-80522038D01*
X91185425Y-80468232D01*
X91270899Y-80346162D01*
X91270900Y-80346160D01*
X91274056Y-80341653D01*
X91276379Y-80336671D01*
X91276382Y-80336666D01*
X91339286Y-80201767D01*
X91367120Y-80142076D01*
X91424115Y-79929371D01*
X91443307Y-79710000D01*
X91916693Y-79710000D01*
X91935885Y-79929371D01*
X91992880Y-80142076D01*
X92020714Y-80201767D01*
X92083618Y-80336666D01*
X92083621Y-80336671D01*
X92085944Y-80341653D01*
X92089100Y-80346160D01*
X92089101Y-80346162D01*
X92174576Y-80468232D01*
X92212251Y-80522038D01*
X92367962Y-80677749D01*
X92548346Y-80804056D01*
X92747924Y-80897120D01*
X92960629Y-80954115D01*
X93180000Y-80973307D01*
X93399371Y-80954115D01*
X93612076Y-80897120D01*
X93811654Y-80804056D01*
X93992038Y-80677749D01*
X94147749Y-80522038D01*
X94185425Y-80468232D01*
X94270899Y-80346162D01*
X94270900Y-80346160D01*
X94274056Y-80341653D01*
X94276379Y-80336671D01*
X94276382Y-80336666D01*
X94339286Y-80201767D01*
X94367120Y-80142076D01*
X94424115Y-79929371D01*
X94435771Y-79796134D01*
X111767500Y-79796134D01*
X111774255Y-79858316D01*
X111825385Y-79994705D01*
X111912739Y-80111261D01*
X112029295Y-80198615D01*
X112165684Y-80249745D01*
X112227866Y-80256500D01*
X113324134Y-80256500D01*
X113386316Y-80249745D01*
X113522705Y-80198615D01*
X113639261Y-80111261D01*
X113726615Y-79994705D01*
X113777745Y-79858316D01*
X113784500Y-79796134D01*
X113784500Y-78699866D01*
X113777745Y-78637684D01*
X113726615Y-78501295D01*
X113639261Y-78384739D01*
X113522705Y-78297385D01*
X113386316Y-78246255D01*
X113324134Y-78239500D01*
X112227866Y-78239500D01*
X112165684Y-78246255D01*
X112029295Y-78297385D01*
X111912739Y-78384739D01*
X111825385Y-78501295D01*
X111774255Y-78637684D01*
X111767500Y-78699866D01*
X111767500Y-79796134D01*
X94435771Y-79796134D01*
X94443307Y-79710000D01*
X94424115Y-79490629D01*
X94367120Y-79277924D01*
X94301280Y-79136729D01*
X94276382Y-79083334D01*
X94276379Y-79083329D01*
X94274056Y-79078347D01*
X94231890Y-79018128D01*
X94150908Y-78902473D01*
X94150906Y-78902470D01*
X94147749Y-78897962D01*
X94105889Y-78856102D01*
X94071863Y-78793790D01*
X94076928Y-78722975D01*
X94119475Y-78666139D01*
X94185995Y-78641328D01*
X94221179Y-78643760D01*
X94259734Y-78651955D01*
X94373456Y-78676128D01*
X94373461Y-78676128D01*
X94379913Y-78677500D01*
X94570887Y-78677500D01*
X94577339Y-78676128D01*
X94577344Y-78676128D01*
X94667962Y-78656866D01*
X94757688Y-78637794D01*
X94767993Y-78633206D01*
X94926122Y-78562803D01*
X94926124Y-78562802D01*
X94932152Y-78560118D01*
X95086653Y-78447866D01*
X95130328Y-78399360D01*
X95158444Y-78368134D01*
X105062500Y-78368134D01*
X105069255Y-78430316D01*
X105120385Y-78566705D01*
X105207739Y-78683261D01*
X105324295Y-78770615D01*
X105460684Y-78821745D01*
X105516560Y-78827815D01*
X105518678Y-78828045D01*
X105522866Y-78828500D01*
X107319134Y-78828500D01*
X107323323Y-78828045D01*
X107325440Y-78827815D01*
X107381316Y-78821745D01*
X107517705Y-78770615D01*
X107634261Y-78683261D01*
X107721615Y-78566705D01*
X107738578Y-78521456D01*
X107765598Y-78449382D01*
X107808240Y-78392618D01*
X107874802Y-78367918D01*
X107944150Y-78383126D01*
X107978817Y-78411114D01*
X108007250Y-78443938D01*
X108179126Y-78586632D01*
X108372000Y-78699338D01*
X108376825Y-78701180D01*
X108376826Y-78701181D01*
X108412394Y-78714763D01*
X108580692Y-78779030D01*
X108585760Y-78780061D01*
X108585763Y-78780062D01*
X108633952Y-78789866D01*
X108799597Y-78823567D01*
X108804772Y-78823757D01*
X108804774Y-78823757D01*
X109017673Y-78831564D01*
X109017677Y-78831564D01*
X109022837Y-78831753D01*
X109027957Y-78831097D01*
X109027959Y-78831097D01*
X109239288Y-78804025D01*
X109239289Y-78804025D01*
X109244416Y-78803368D01*
X109276341Y-78793790D01*
X109453429Y-78740661D01*
X109453434Y-78740659D01*
X109458384Y-78739174D01*
X109658994Y-78640896D01*
X109840860Y-78511173D01*
X109999096Y-78353489D01*
X110129453Y-78172077D01*
X110148137Y-78134274D01*
X110226136Y-77976453D01*
X110226137Y-77976451D01*
X110228430Y-77971811D01*
X110293370Y-77758069D01*
X110322529Y-77536590D01*
X110324156Y-77470000D01*
X110305852Y-77247361D01*
X110251431Y-77030702D01*
X110162354Y-76825840D01*
X110041014Y-76638277D01*
X109890670Y-76473051D01*
X109886619Y-76469852D01*
X109886615Y-76469848D01*
X109719414Y-76337800D01*
X109719410Y-76337798D01*
X109715359Y-76334598D01*
X109519789Y-76226638D01*
X109514920Y-76224914D01*
X109514916Y-76224912D01*
X109314087Y-76153795D01*
X109314083Y-76153794D01*
X109309212Y-76152069D01*
X109304119Y-76151162D01*
X109304116Y-76151161D01*
X109094373Y-76113800D01*
X109094367Y-76113799D01*
X109089284Y-76112894D01*
X109015452Y-76111992D01*
X108871081Y-76110228D01*
X108871079Y-76110228D01*
X108865911Y-76110165D01*
X108645091Y-76143955D01*
X108432756Y-76213357D01*
X108234607Y-76316507D01*
X108230474Y-76319610D01*
X108230471Y-76319612D01*
X108060100Y-76447530D01*
X108055965Y-76450635D01*
X107999537Y-76509684D01*
X107975283Y-76535064D01*
X107913759Y-76570494D01*
X107842846Y-76567037D01*
X107785060Y-76525791D01*
X107766207Y-76492243D01*
X107724767Y-76381703D01*
X107721615Y-76373295D01*
X107634261Y-76256739D01*
X107517705Y-76169385D01*
X107381316Y-76118255D01*
X107319134Y-76111500D01*
X105522866Y-76111500D01*
X105460684Y-76118255D01*
X105324295Y-76169385D01*
X105207739Y-76256739D01*
X105120385Y-76373295D01*
X105069255Y-76509684D01*
X105062500Y-76571866D01*
X105062500Y-78368134D01*
X95158444Y-78368134D01*
X95210021Y-78310852D01*
X95210025Y-78310847D01*
X95214440Y-78305944D01*
X95276676Y-78198148D01*
X95306623Y-78146279D01*
X95306624Y-78146278D01*
X95309927Y-78140556D01*
X95368942Y-77958928D01*
X95370883Y-77940466D01*
X95388214Y-77775565D01*
X95388904Y-77769000D01*
X95378904Y-77673852D01*
X95369632Y-77585635D01*
X95369632Y-77585633D01*
X95368942Y-77579072D01*
X95309927Y-77397444D01*
X95214440Y-77232056D01*
X95187026Y-77201609D01*
X95091075Y-77095045D01*
X95091074Y-77095044D01*
X95086653Y-77090134D01*
X94932152Y-76977882D01*
X94926124Y-76975198D01*
X94926122Y-76975197D01*
X94763719Y-76902891D01*
X94763718Y-76902891D01*
X94757688Y-76900206D01*
X94664287Y-76880353D01*
X94577344Y-76861872D01*
X94577339Y-76861872D01*
X94570887Y-76860500D01*
X94564285Y-76860500D01*
X94557718Y-76859810D01*
X94557945Y-76857652D01*
X94499524Y-76840498D01*
X94453031Y-76786842D01*
X94442125Y-76723515D01*
X94442828Y-76715482D01*
X94442828Y-76715475D01*
X94443307Y-76710000D01*
X94424115Y-76490629D01*
X94367120Y-76277924D01*
X94305399Y-76145562D01*
X94276382Y-76083334D01*
X94276379Y-76083329D01*
X94274056Y-76078347D01*
X94147749Y-75897962D01*
X93992038Y-75742251D01*
X93811654Y-75615944D01*
X93612076Y-75522880D01*
X93399371Y-75465885D01*
X93180000Y-75446693D01*
X92960629Y-75465885D01*
X92747924Y-75522880D01*
X92654562Y-75566415D01*
X92553334Y-75613618D01*
X92553329Y-75613621D01*
X92548347Y-75615944D01*
X92543840Y-75619100D01*
X92543838Y-75619101D01*
X92372473Y-75739092D01*
X92372470Y-75739094D01*
X92367962Y-75742251D01*
X92212251Y-75897962D01*
X92085944Y-76078347D01*
X92083621Y-76083329D01*
X92083618Y-76083334D01*
X92054601Y-76145562D01*
X91992880Y-76277924D01*
X91935885Y-76490629D01*
X91916693Y-76710000D01*
X91935885Y-76929371D01*
X91992880Y-77142076D01*
X92015583Y-77190763D01*
X92083618Y-77336666D01*
X92083621Y-77336671D01*
X92085944Y-77341653D01*
X92089100Y-77346160D01*
X92089101Y-77346162D01*
X92178170Y-77473365D01*
X92212251Y-77522038D01*
X92367962Y-77677749D01*
X92548346Y-77804056D01*
X92747924Y-77897120D01*
X92960629Y-77954115D01*
X93180000Y-77973307D01*
X93399371Y-77954115D01*
X93450309Y-77940466D01*
X93521284Y-77942155D01*
X93580080Y-77981948D01*
X93602752Y-78023234D01*
X93640873Y-78140556D01*
X93644176Y-78146278D01*
X93644177Y-78146279D01*
X93674124Y-78198148D01*
X93736360Y-78305944D01*
X93750029Y-78321125D01*
X93780745Y-78385131D01*
X93771980Y-78455585D01*
X93726517Y-78510115D01*
X93658789Y-78531410D01*
X93614580Y-78524047D01*
X93612076Y-78522880D01*
X93606767Y-78521457D01*
X93606763Y-78521456D01*
X93461587Y-78482556D01*
X93399371Y-78465885D01*
X93180000Y-78446693D01*
X92960629Y-78465885D01*
X92747924Y-78522880D01*
X92671972Y-78558297D01*
X92553334Y-78613618D01*
X92553329Y-78613621D01*
X92548347Y-78615944D01*
X92543840Y-78619100D01*
X92543838Y-78619101D01*
X92372473Y-78739092D01*
X92372470Y-78739094D01*
X92367962Y-78742251D01*
X92212251Y-78897962D01*
X92209094Y-78902470D01*
X92209092Y-78902473D01*
X92128110Y-79018128D01*
X92085944Y-79078347D01*
X92083621Y-79083329D01*
X92083618Y-79083334D01*
X92058720Y-79136729D01*
X91992880Y-79277924D01*
X91935885Y-79490629D01*
X91916693Y-79710000D01*
X91443307Y-79710000D01*
X91424115Y-79490629D01*
X91367120Y-79277924D01*
X91301280Y-79136729D01*
X91276382Y-79083334D01*
X91276379Y-79083329D01*
X91274056Y-79078347D01*
X91231890Y-79018128D01*
X91150908Y-78902473D01*
X91150906Y-78902470D01*
X91147749Y-78897962D01*
X90992038Y-78742251D01*
X90964510Y-78722975D01*
X90907792Y-78683261D01*
X90811654Y-78615944D01*
X90612076Y-78522880D01*
X90399371Y-78465885D01*
X90180000Y-78446693D01*
X89960629Y-78465885D01*
X89955323Y-78467307D01*
X89955316Y-78467308D01*
X89810515Y-78506108D01*
X89739539Y-78504418D01*
X89680743Y-78464624D01*
X89652795Y-78399360D01*
X89658071Y-78345465D01*
X89670502Y-78307206D01*
X89670503Y-78307203D01*
X89672542Y-78300928D01*
X89678960Y-78239869D01*
X89691814Y-78117565D01*
X89692504Y-78111000D01*
X89686930Y-78057969D01*
X89699702Y-77988132D01*
X89748204Y-77936285D01*
X89817036Y-77918890D01*
X89844852Y-77923093D01*
X89955308Y-77952690D01*
X89955317Y-77952691D01*
X89960629Y-77954115D01*
X90180000Y-77973307D01*
X90399371Y-77954115D01*
X90612076Y-77897120D01*
X90811654Y-77804056D01*
X90992038Y-77677749D01*
X91147749Y-77522038D01*
X91181831Y-77473365D01*
X91270899Y-77346162D01*
X91270900Y-77346160D01*
X91274056Y-77341653D01*
X91276379Y-77336671D01*
X91276382Y-77336666D01*
X91344417Y-77190763D01*
X91367120Y-77142076D01*
X91424115Y-76929371D01*
X91443307Y-76710000D01*
X91424115Y-76490629D01*
X91367120Y-76277924D01*
X91305399Y-76145562D01*
X91276382Y-76083334D01*
X91276379Y-76083329D01*
X91274056Y-76078347D01*
X91147749Y-75897962D01*
X90992038Y-75742251D01*
X90811654Y-75615944D01*
X90612076Y-75522880D01*
X90399371Y-75465885D01*
X90180000Y-75446693D01*
X89960629Y-75465885D01*
X89747924Y-75522880D01*
X89654562Y-75566415D01*
X89553334Y-75613618D01*
X89553329Y-75613621D01*
X89548347Y-75615944D01*
X89543840Y-75619100D01*
X89543838Y-75619101D01*
X89372473Y-75739092D01*
X89372470Y-75739094D01*
X89367962Y-75742251D01*
X89212251Y-75897962D01*
X89085944Y-76078347D01*
X89083621Y-76083329D01*
X89083618Y-76083334D01*
X89054601Y-76145562D01*
X88992880Y-76277924D01*
X88935885Y-76490629D01*
X88916693Y-76710000D01*
X88935885Y-76929371D01*
X88937307Y-76934677D01*
X88937308Y-76934684D01*
X88966570Y-77043889D01*
X88964880Y-77114865D01*
X88925086Y-77173661D01*
X88859822Y-77201609D01*
X88844863Y-77202500D01*
X88683513Y-77202500D01*
X88677061Y-77203872D01*
X88677056Y-77203872D01*
X88590112Y-77222353D01*
X88496712Y-77242206D01*
X88490682Y-77244891D01*
X88490681Y-77244891D01*
X88328278Y-77317197D01*
X88328276Y-77317198D01*
X88322248Y-77319882D01*
X88167747Y-77432134D01*
X88163326Y-77437044D01*
X88163325Y-77437045D01*
X88073695Y-77536590D01*
X88039960Y-77574056D01*
X87944473Y-77739444D01*
X87885458Y-77921072D01*
X87884768Y-77927633D01*
X87884768Y-77927635D01*
X87882127Y-77952763D01*
X87865496Y-78111000D01*
X87866186Y-78117565D01*
X87879041Y-78239869D01*
X87885458Y-78300928D01*
X87929723Y-78437161D01*
X87931751Y-78508127D01*
X87895088Y-78568925D01*
X87831376Y-78600251D01*
X87756641Y-78590291D01*
X87612076Y-78522880D01*
X87399371Y-78465885D01*
X87180000Y-78446693D01*
X86960629Y-78465885D01*
X86747924Y-78522880D01*
X86671972Y-78558297D01*
X86553334Y-78613618D01*
X86553329Y-78613621D01*
X86548347Y-78615944D01*
X86543840Y-78619100D01*
X86543838Y-78619101D01*
X86372473Y-78739092D01*
X86372470Y-78739094D01*
X86367962Y-78742251D01*
X86212251Y-78897962D01*
X86209094Y-78902470D01*
X86209092Y-78902473D01*
X86128110Y-79018128D01*
X86085944Y-79078347D01*
X86083621Y-79083329D01*
X86083618Y-79083334D01*
X86058720Y-79136729D01*
X85992880Y-79277924D01*
X85935885Y-79490629D01*
X85916693Y-79710000D01*
X71499670Y-79710000D01*
X71500895Y-79706231D01*
X71540968Y-79647626D01*
X71594529Y-79621922D01*
X71656288Y-79608794D01*
X71662319Y-79606109D01*
X71824722Y-79533803D01*
X71824724Y-79533802D01*
X71830752Y-79531118D01*
X71985253Y-79418866D01*
X72018376Y-79382079D01*
X72108621Y-79281852D01*
X72108622Y-79281851D01*
X72113040Y-79276944D01*
X72195399Y-79134294D01*
X72205223Y-79117279D01*
X72205224Y-79117278D01*
X72208527Y-79111556D01*
X72262895Y-78944231D01*
X72302968Y-78885626D01*
X72356529Y-78859922D01*
X72418288Y-78846794D01*
X72452071Y-78831753D01*
X72586722Y-78771803D01*
X72586724Y-78771802D01*
X72592752Y-78769118D01*
X72747253Y-78656866D01*
X72751675Y-78651955D01*
X72870621Y-78519852D01*
X72870622Y-78519851D01*
X72875040Y-78514944D01*
X72970527Y-78349556D01*
X73029542Y-78167928D01*
X73031818Y-78146279D01*
X73048814Y-77984565D01*
X73049504Y-77978000D01*
X73045120Y-77936285D01*
X73030232Y-77794635D01*
X73030232Y-77794633D01*
X73029542Y-77788072D01*
X72970527Y-77606444D01*
X72875040Y-77441056D01*
X72863511Y-77428251D01*
X72751675Y-77304045D01*
X72751674Y-77304044D01*
X72747253Y-77299134D01*
X72592752Y-77186882D01*
X72586724Y-77184198D01*
X72586722Y-77184197D01*
X72424319Y-77111891D01*
X72424318Y-77111891D01*
X72418288Y-77109206D01*
X72310294Y-77086251D01*
X72237944Y-77070872D01*
X72237939Y-77070872D01*
X72231487Y-77069500D01*
X72040513Y-77069500D01*
X72034061Y-77070872D01*
X72034056Y-77070872D01*
X71961706Y-77086251D01*
X71853712Y-77109206D01*
X71847682Y-77111891D01*
X71847681Y-77111891D01*
X71685278Y-77184197D01*
X71685276Y-77184198D01*
X71679248Y-77186882D01*
X71524747Y-77299134D01*
X71520326Y-77304044D01*
X71520325Y-77304045D01*
X71408490Y-77428251D01*
X71396960Y-77441056D01*
X71301473Y-77606444D01*
X71253874Y-77752939D01*
X71247106Y-77773768D01*
X71207032Y-77832374D01*
X71153471Y-77858078D01*
X71091712Y-77871206D01*
X71085682Y-77873891D01*
X71085681Y-77873891D01*
X70923278Y-77946197D01*
X70923276Y-77946198D01*
X70917248Y-77948882D01*
X70911907Y-77952762D01*
X70911906Y-77952763D01*
X70885689Y-77971811D01*
X70762747Y-78061134D01*
X70758326Y-78066044D01*
X70758325Y-78066045D01*
X70660937Y-78174206D01*
X70634960Y-78203056D01*
X70539473Y-78368444D01*
X70489294Y-78522880D01*
X70485106Y-78535768D01*
X70445032Y-78594374D01*
X70391471Y-78620078D01*
X70329712Y-78633206D01*
X70323682Y-78635891D01*
X70323681Y-78635891D01*
X70161278Y-78708197D01*
X70161276Y-78708198D01*
X70155248Y-78710882D01*
X70149907Y-78714762D01*
X70149906Y-78714763D01*
X70114261Y-78740661D01*
X70000747Y-78823134D01*
X69996326Y-78828044D01*
X69996325Y-78828045D01*
X69929630Y-78902118D01*
X69872960Y-78965056D01*
X69777473Y-79130444D01*
X69729554Y-79277924D01*
X69723106Y-79297768D01*
X69683032Y-79356374D01*
X69629471Y-79382078D01*
X69567712Y-79395206D01*
X69561682Y-79397891D01*
X69561681Y-79397891D01*
X69399278Y-79470197D01*
X69399276Y-79470198D01*
X69393248Y-79472882D01*
X69238747Y-79585134D01*
X69234326Y-79590044D01*
X69234325Y-79590045D01*
X69121388Y-79715475D01*
X69110960Y-79727056D01*
X69052686Y-79827990D01*
X69039713Y-79850460D01*
X69015473Y-79892444D01*
X68956458Y-80074072D01*
X68955768Y-80080633D01*
X68955768Y-80080635D01*
X68943934Y-80193229D01*
X68936496Y-80264000D01*
X59427871Y-80264000D01*
X59432485Y-74930000D01*
X83668496Y-74930000D01*
X83688458Y-75119928D01*
X83747473Y-75301556D01*
X83842960Y-75466944D01*
X83970747Y-75608866D01*
X84125248Y-75721118D01*
X84131276Y-75723802D01*
X84131278Y-75723803D01*
X84293681Y-75796109D01*
X84299712Y-75798794D01*
X84393112Y-75818647D01*
X84480056Y-75837128D01*
X84480061Y-75837128D01*
X84486513Y-75838500D01*
X84677487Y-75838500D01*
X84683939Y-75837128D01*
X84683944Y-75837128D01*
X84770888Y-75818647D01*
X84864288Y-75798794D01*
X84870319Y-75796109D01*
X85032722Y-75723803D01*
X85032724Y-75723802D01*
X85038752Y-75721118D01*
X85193253Y-75608866D01*
X85321040Y-75466944D01*
X85416527Y-75301556D01*
X85475542Y-75119928D01*
X85495504Y-74930000D01*
X85475542Y-74740072D01*
X85416527Y-74558444D01*
X85321040Y-74393056D01*
X85291294Y-74360019D01*
X85197675Y-74256045D01*
X85197674Y-74256044D01*
X85193253Y-74251134D01*
X85038752Y-74138882D01*
X85032724Y-74136198D01*
X85032722Y-74136197D01*
X84870319Y-74063891D01*
X84870318Y-74063891D01*
X84864288Y-74061206D01*
X84770887Y-74041353D01*
X84683944Y-74022872D01*
X84683939Y-74022872D01*
X84677487Y-74021500D01*
X84486513Y-74021500D01*
X84480061Y-74022872D01*
X84480056Y-74022872D01*
X84393113Y-74041353D01*
X84299712Y-74061206D01*
X84293682Y-74063891D01*
X84293681Y-74063891D01*
X84131278Y-74136197D01*
X84131276Y-74136198D01*
X84125248Y-74138882D01*
X83970747Y-74251134D01*
X83966326Y-74256044D01*
X83966325Y-74256045D01*
X83872707Y-74360019D01*
X83842960Y-74393056D01*
X83747473Y-74558444D01*
X83688458Y-74740072D01*
X83668496Y-74930000D01*
X59432485Y-74930000D01*
X59435957Y-70915499D01*
X59437457Y-70896224D01*
X59439805Y-70881146D01*
X59439805Y-70881139D01*
X59441186Y-70872271D01*
X59440009Y-70863270D01*
X59439738Y-70832832D01*
X59447148Y-70767065D01*
X59453427Y-70739557D01*
X59481619Y-70658989D01*
X59493861Y-70633568D01*
X59539278Y-70561287D01*
X59556870Y-70539228D01*
X59617228Y-70478870D01*
X59639287Y-70461278D01*
X59711568Y-70415861D01*
X59736989Y-70403619D01*
X59817557Y-70375427D01*
X59845063Y-70369148D01*
X59861374Y-70367310D01*
X59904260Y-70362478D01*
X59919902Y-70361695D01*
X59928857Y-70361804D01*
X59937731Y-70363186D01*
X59969253Y-70359064D01*
X59985590Y-70358000D01*
X89218063Y-70358000D01*
X89286184Y-70378002D01*
G37*
%TD.AperFunction*%
%TD*%
M02*
