M48
; DRILL file {KiCad (6.0.0)} date Sun Jan  8 13:29:47 2023
; FORMAT={-:-/ absolute / metric / decimal}
; #@! TF.CreationDate,2023-01-08T13:29:47-06:00
; #@! TF.GenerationSoftware,Kicad,Pcbnew,(6.0.0)
; #@! TF.FileFunction,Plated,1,4,PTH
FMAT,2
METRIC
; #@! TA.AperFunction,Plated,PTH,ViaDrill
T1C0.300
; #@! TA.AperFunction,Plated,PTH,ViaDrill
T2C0.400
; #@! TA.AperFunction,Plated,PTH,ComponentDrill
T3C0.500
; #@! TA.AperFunction,Plated,PTH,ComponentDrill
T4C0.650
; #@! TA.AperFunction,Plated,PTH,ComponentDrill
T5C1.000
; #@! TA.AperFunction,Plated,PTH,ComponentDrill
T6C1.020
; #@! TA.AperFunction,Plated,PTH,ComponentDrill
T7C3.000
%
G90
G05
T1
X70.358Y-91.44
X70.358Y-92.456
X70.358Y-93.472
X70.358Y-94.488
X71.12Y-95.504
X74.168Y-95.504
X79.502Y-98.679
X81.077Y-93.218
X81.534Y-98.552
X81.686Y-96.977
X82.296Y-103.886
X83.185Y-87.376
X88.138Y-87.63
X89.535Y-85.979
X90.272Y-84.379
X90.424Y-92.71
X92.456Y-93.726
X92.71Y-86.106
X93.218Y-92.456
X96.926Y-92.659
X97.079Y-91.237
X98.044Y-85.852
X98.45Y-89.662
X99.06Y-102.718
X99.949Y-86.335
X101.346Y-92.913
X102.362Y-90.576
X102.565Y-93.193
X102.565Y-95.86
X104.953Y-103.734
X105.156Y-89.154
X105.258Y-96.114
X105.486Y-92.202
X106.68Y-89.154
X106.807Y-96.164
X107.036Y-93.269
X110.896Y-100.94
T2
X63.348Y-94.945
X65.786Y-104.14
X69.85Y-80.264
X70.612Y-79.502
X71.374Y-78.74
X71.374Y-82.296
X72.136Y-77.978
X74.676Y-104.14
X77.47Y-79.502
X79.756Y-89.662
X82.55Y-79.502
X83.312Y-102.616
X84.582Y-74.93
X86.106Y-81.788
X86.614Y-102.362
X88.779Y-78.111
X88.9Y-97.028
X90.932Y-90.424
X94.475Y-77.769
X94.996Y-102.108
X95.961Y-82.499
X99.568Y-74.422
X100.838Y-86.868
X107.747Y-90.322
T3
X111.506Y-94.132
X112.776Y-79.248
X114.249Y-97.079
X114.249Y-100.508
T4
X101.351Y-82.042
X102.621Y-82.042
X103.891Y-82.042
T5
X106.421Y-77.47
X108.961Y-77.47
T6
X65.577Y-84.654
X65.577Y-87.654
X65.577Y-90.654
X68.577Y-84.654
X68.577Y-87.654
X68.577Y-90.654
X87.18Y-76.71
X87.18Y-79.71
X90.18Y-76.71
X90.18Y-79.71
X93.18Y-76.71
X93.18Y-79.71
X111.763Y-84.664
X111.763Y-87.664
X111.763Y-90.664
X114.763Y-84.664
X114.763Y-87.664
X114.763Y-90.664
T7
X61.976Y-72.644
X61.976Y-102.464
X118.364Y-72.644
X118.364Y-102.616
T0
M30
