%FSLAX45Y45*%
G04 Gerber Fmt 4.5, Leading zero omitted, Abs format (unit mm)*
G04 Created by KiCad (PCBNEW (6.0.0)) date 2023-01-08 13:29:53*
%MOMM*%
%LPD*%
G01*
G04 APERTURE LIST*
%TA.AperFunction,Profile*%
%ADD10C,0.100000*%
%TD*%
%ADD11C,0.200000*%
%ADD12C,0.099060*%
%ADD13C,0.237490*%
%ADD14C,0.300000*%
G04 APERTURE END LIST*
D10*
X12039600Y-10541000D02*
G75*
G03*
X12141200Y-10439400I0J101600D01*
G01*
X5994400Y-6985000D02*
X12065000Y-6985000D01*
X12141200Y-7061200D02*
X12141200Y-10439400D01*
X12141200Y-7061200D02*
G75*
G03*
X12065000Y-6985000I-76200J0D01*
G01*
X5994400Y-6985000D02*
G75*
G03*
X5892800Y-7086600I0J-101600D01*
G01*
X12039600Y-10541000D02*
X5994400Y-10543900D01*
X5889900Y-10439400D02*
X5892800Y-7086600D01*
X5889900Y-10439400D02*
G75*
G03*
X5994400Y-10543900I104500J0D01*
G01*
D11*
D12*
X10267950Y-9696450D02*
X10367010Y-9795510D01*
X10367010Y-9696450D02*
X10267950Y-9795510D01*
X10369550Y-10204450D02*
X10468610Y-10303510D01*
X10468610Y-10204450D02*
X10369550Y-10303510D01*
X10471150Y-9696450D02*
X10570210Y-9795510D01*
X10570210Y-9696450D02*
X10471150Y-9795510D01*
D13*
X10283825Y-9936480D02*
G75*
G03*
X10283825Y-9936480I-118745J0D01*
G01*
X10283825Y-10253980D02*
G75*
G03*
X10283825Y-10253980I-118745J0D01*
G01*
X10791825Y-9936480D02*
G75*
G03*
X10791825Y-9936480I-118745J0D01*
G01*
X10791825Y-10253980D02*
G75*
G03*
X10791825Y-10253980I-118745J0D01*
G01*
D14*
X6125700Y-8615400D02*
X6125700Y-8915400D01*
X5975700Y-8765400D02*
X6275700Y-8765400D01*
X9018000Y-7089000D02*
X9018000Y-7389000D01*
X8868000Y-7239000D02*
X9168000Y-7239000D01*
X11908300Y-8616400D02*
X11908300Y-8916400D01*
X11758300Y-8766400D02*
X12058300Y-8766400D01*
D11*
X6142519Y-10859376D02*
X6142519Y-10659376D01*
X6190138Y-10659376D01*
X6218709Y-10668900D01*
X6237757Y-10687948D01*
X6247281Y-10706995D01*
X6256805Y-10745090D01*
X6256805Y-10773662D01*
X6247281Y-10811757D01*
X6237757Y-10830805D01*
X6218709Y-10849852D01*
X6190138Y-10859376D01*
X6142519Y-10859376D01*
X6342519Y-10859376D02*
X6342519Y-10726043D01*
X6342519Y-10764138D02*
X6352043Y-10745090D01*
X6361567Y-10735567D01*
X6380614Y-10726043D01*
X6399662Y-10726043D01*
X6466328Y-10859376D02*
X6466328Y-10726043D01*
X6466328Y-10659376D02*
X6456805Y-10668900D01*
X6466328Y-10678424D01*
X6475852Y-10668900D01*
X6466328Y-10659376D01*
X6466328Y-10678424D01*
X6590138Y-10859376D02*
X6571090Y-10849852D01*
X6561567Y-10830805D01*
X6561567Y-10659376D01*
X6694900Y-10859376D02*
X6675852Y-10849852D01*
X6666328Y-10830805D01*
X6666328Y-10659376D01*
X6923471Y-10859376D02*
X6923471Y-10659376D01*
X6990138Y-10802233D01*
X7056805Y-10659376D01*
X7056805Y-10859376D01*
X7237757Y-10859376D02*
X7237757Y-10754614D01*
X7228233Y-10735567D01*
X7209186Y-10726043D01*
X7171090Y-10726043D01*
X7152043Y-10735567D01*
X7237757Y-10849852D02*
X7218709Y-10859376D01*
X7171090Y-10859376D01*
X7152043Y-10849852D01*
X7142519Y-10830805D01*
X7142519Y-10811757D01*
X7152043Y-10792710D01*
X7171090Y-10783186D01*
X7218709Y-10783186D01*
X7237757Y-10773662D01*
X7332995Y-10726043D02*
X7332995Y-10926043D01*
X7332995Y-10735567D02*
X7352043Y-10726043D01*
X7390138Y-10726043D01*
X7409186Y-10735567D01*
X7418709Y-10745090D01*
X7428233Y-10764138D01*
X7428233Y-10821281D01*
X7418709Y-10840329D01*
X7409186Y-10849852D01*
X7390138Y-10859376D01*
X7352043Y-10859376D01*
X7332995Y-10849852D01*
X7513948Y-10840329D02*
X7523471Y-10849852D01*
X7513948Y-10859376D01*
X7504424Y-10849852D01*
X7513948Y-10840329D01*
X7513948Y-10859376D01*
X7513948Y-10735567D02*
X7523471Y-10745090D01*
X7513948Y-10754614D01*
X7504424Y-10745090D01*
X7513948Y-10735567D01*
X7513948Y-10754614D01*
D12*
X5785840Y-11139370D02*
X5884900Y-11238430D01*
X5884900Y-11139370D02*
X5785840Y-11238430D01*
D11*
X6180614Y-11079376D02*
X6199662Y-11079376D01*
X6218709Y-11088900D01*
X6228233Y-11098424D01*
X6237757Y-11117471D01*
X6247281Y-11155567D01*
X6247281Y-11203186D01*
X6237757Y-11241281D01*
X6228233Y-11260328D01*
X6218709Y-11269852D01*
X6199662Y-11279376D01*
X6180614Y-11279376D01*
X6161567Y-11269852D01*
X6152043Y-11260328D01*
X6142519Y-11241281D01*
X6132995Y-11203186D01*
X6132995Y-11155567D01*
X6142519Y-11117471D01*
X6152043Y-11098424D01*
X6161567Y-11088900D01*
X6180614Y-11079376D01*
X6332995Y-11260328D02*
X6342519Y-11269852D01*
X6332995Y-11279376D01*
X6323471Y-11269852D01*
X6332995Y-11260328D01*
X6332995Y-11279376D01*
X6437757Y-11279376D02*
X6475852Y-11279376D01*
X6494900Y-11269852D01*
X6504424Y-11260328D01*
X6523471Y-11231757D01*
X6532995Y-11193662D01*
X6532995Y-11117471D01*
X6523471Y-11098424D01*
X6513948Y-11088900D01*
X6494900Y-11079376D01*
X6456805Y-11079376D01*
X6437757Y-11088900D01*
X6428233Y-11098424D01*
X6418709Y-11117471D01*
X6418709Y-11165090D01*
X6428233Y-11184138D01*
X6437757Y-11193662D01*
X6456805Y-11203186D01*
X6494900Y-11203186D01*
X6513948Y-11193662D01*
X6523471Y-11184138D01*
X6532995Y-11165090D01*
X6628233Y-11279376D02*
X6666328Y-11279376D01*
X6685376Y-11269852D01*
X6694900Y-11260328D01*
X6713948Y-11231757D01*
X6723471Y-11193662D01*
X6723471Y-11117471D01*
X6713948Y-11098424D01*
X6704424Y-11088900D01*
X6685376Y-11079376D01*
X6647281Y-11079376D01*
X6628233Y-11088900D01*
X6618709Y-11098424D01*
X6609186Y-11117471D01*
X6609186Y-11165090D01*
X6618709Y-11184138D01*
X6628233Y-11193662D01*
X6647281Y-11203186D01*
X6685376Y-11203186D01*
X6704424Y-11193662D01*
X6713948Y-11184138D01*
X6723471Y-11165090D01*
X6913948Y-11279376D02*
X6799662Y-11279376D01*
X6856805Y-11279376D02*
X6856805Y-11079376D01*
X6837757Y-11107948D01*
X6818709Y-11126995D01*
X6799662Y-11136519D01*
X6999662Y-11279376D02*
X6999662Y-11146043D01*
X6999662Y-11165090D02*
X7009186Y-11155567D01*
X7028233Y-11146043D01*
X7056805Y-11146043D01*
X7075852Y-11155567D01*
X7085376Y-11174614D01*
X7085376Y-11279376D01*
X7085376Y-11174614D02*
X7094900Y-11155567D01*
X7113948Y-11146043D01*
X7142519Y-11146043D01*
X7161567Y-11155567D01*
X7171090Y-11174614D01*
X7171090Y-11279376D01*
X7266328Y-11279376D02*
X7266328Y-11146043D01*
X7266328Y-11165090D02*
X7275852Y-11155567D01*
X7294900Y-11146043D01*
X7323471Y-11146043D01*
X7342519Y-11155567D01*
X7352043Y-11174614D01*
X7352043Y-11279376D01*
X7352043Y-11174614D02*
X7361567Y-11155567D01*
X7380614Y-11146043D01*
X7409186Y-11146043D01*
X7428233Y-11155567D01*
X7437757Y-11174614D01*
X7437757Y-11279376D01*
X7828233Y-11069852D02*
X7656805Y-11326995D01*
X8085376Y-11079376D02*
X8104424Y-11079376D01*
X8123471Y-11088900D01*
X8132995Y-11098424D01*
X8142519Y-11117471D01*
X8152043Y-11155567D01*
X8152043Y-11203186D01*
X8142519Y-11241281D01*
X8132995Y-11260328D01*
X8123471Y-11269852D01*
X8104424Y-11279376D01*
X8085376Y-11279376D01*
X8066328Y-11269852D01*
X8056805Y-11260328D01*
X8047281Y-11241281D01*
X8037757Y-11203186D01*
X8037757Y-11155567D01*
X8047281Y-11117471D01*
X8056805Y-11098424D01*
X8066328Y-11088900D01*
X8085376Y-11079376D01*
X8237757Y-11260328D02*
X8247281Y-11269852D01*
X8237757Y-11279376D01*
X8228233Y-11269852D01*
X8237757Y-11260328D01*
X8237757Y-11279376D01*
X8371090Y-11079376D02*
X8390138Y-11079376D01*
X8409186Y-11088900D01*
X8418710Y-11098424D01*
X8428233Y-11117471D01*
X8437757Y-11155567D01*
X8437757Y-11203186D01*
X8428233Y-11241281D01*
X8418710Y-11260328D01*
X8409186Y-11269852D01*
X8390138Y-11279376D01*
X8371090Y-11279376D01*
X8352043Y-11269852D01*
X8342519Y-11260328D01*
X8332995Y-11241281D01*
X8323471Y-11203186D01*
X8323471Y-11155567D01*
X8332995Y-11117471D01*
X8342519Y-11098424D01*
X8352043Y-11088900D01*
X8371090Y-11079376D01*
X8504424Y-11079376D02*
X8628233Y-11079376D01*
X8561567Y-11155567D01*
X8590138Y-11155567D01*
X8609186Y-11165090D01*
X8618710Y-11174614D01*
X8628233Y-11193662D01*
X8628233Y-11241281D01*
X8618710Y-11260328D01*
X8609186Y-11269852D01*
X8590138Y-11279376D01*
X8532995Y-11279376D01*
X8513948Y-11269852D01*
X8504424Y-11260328D01*
X8723471Y-11279376D02*
X8761567Y-11279376D01*
X8780614Y-11269852D01*
X8790138Y-11260328D01*
X8809186Y-11231757D01*
X8818710Y-11193662D01*
X8818710Y-11117471D01*
X8809186Y-11098424D01*
X8799662Y-11088900D01*
X8780614Y-11079376D01*
X8742519Y-11079376D01*
X8723471Y-11088900D01*
X8713948Y-11098424D01*
X8704424Y-11117471D01*
X8704424Y-11165090D01*
X8713948Y-11184138D01*
X8723471Y-11193662D01*
X8742519Y-11203186D01*
X8780614Y-11203186D01*
X8799662Y-11193662D01*
X8809186Y-11184138D01*
X8818710Y-11165090D01*
X8942519Y-11079376D02*
X8961567Y-11079376D01*
X8980614Y-11088900D01*
X8990138Y-11098424D01*
X8999662Y-11117471D01*
X9009186Y-11155567D01*
X9009186Y-11203186D01*
X8999662Y-11241281D01*
X8990138Y-11260328D01*
X8980614Y-11269852D01*
X8961567Y-11279376D01*
X8942519Y-11279376D01*
X8923471Y-11269852D01*
X8913948Y-11260328D01*
X8904424Y-11241281D01*
X8894900Y-11203186D01*
X8894900Y-11155567D01*
X8904424Y-11117471D01*
X8913948Y-11098424D01*
X8923471Y-11088900D01*
X8942519Y-11079376D01*
X9085376Y-11079376D02*
X9085376Y-11117471D01*
X9161567Y-11079376D02*
X9161567Y-11117471D01*
X9456805Y-11355567D02*
X9447281Y-11346043D01*
X9428233Y-11317471D01*
X9418710Y-11298424D01*
X9409186Y-11269852D01*
X9399662Y-11222233D01*
X9399662Y-11184138D01*
X9409186Y-11136519D01*
X9418710Y-11107948D01*
X9428233Y-11088900D01*
X9447281Y-11060329D01*
X9456805Y-11050805D01*
X9513948Y-11079376D02*
X9637757Y-11079376D01*
X9571090Y-11155567D01*
X9599662Y-11155567D01*
X9618710Y-11165090D01*
X9628233Y-11174614D01*
X9637757Y-11193662D01*
X9637757Y-11241281D01*
X9628233Y-11260328D01*
X9618710Y-11269852D01*
X9599662Y-11279376D01*
X9542519Y-11279376D01*
X9523471Y-11269852D01*
X9513948Y-11260328D01*
X9875852Y-11279376D02*
X9875852Y-11079376D01*
X9961567Y-11279376D02*
X9961567Y-11174614D01*
X9952043Y-11155567D01*
X9932995Y-11146043D01*
X9904424Y-11146043D01*
X9885376Y-11155567D01*
X9875852Y-11165090D01*
X10085376Y-11279376D02*
X10066329Y-11269852D01*
X10056805Y-11260328D01*
X10047281Y-11241281D01*
X10047281Y-11184138D01*
X10056805Y-11165090D01*
X10066329Y-11155567D01*
X10085376Y-11146043D01*
X10113948Y-11146043D01*
X10132995Y-11155567D01*
X10142519Y-11165090D01*
X10152043Y-11184138D01*
X10152043Y-11241281D01*
X10142519Y-11260328D01*
X10132995Y-11269852D01*
X10113948Y-11279376D01*
X10085376Y-11279376D01*
X10266329Y-11279376D02*
X10247281Y-11269852D01*
X10237757Y-11250805D01*
X10237757Y-11079376D01*
X10418710Y-11269852D02*
X10399662Y-11279376D01*
X10361567Y-11279376D01*
X10342519Y-11269852D01*
X10332995Y-11250805D01*
X10332995Y-11174614D01*
X10342519Y-11155567D01*
X10361567Y-11146043D01*
X10399662Y-11146043D01*
X10418710Y-11155567D01*
X10428233Y-11174614D01*
X10428233Y-11193662D01*
X10332995Y-11212709D01*
X10504424Y-11269852D02*
X10523471Y-11279376D01*
X10561567Y-11279376D01*
X10580614Y-11269852D01*
X10590138Y-11250805D01*
X10590138Y-11241281D01*
X10580614Y-11222233D01*
X10561567Y-11212709D01*
X10532995Y-11212709D01*
X10513948Y-11203186D01*
X10504424Y-11184138D01*
X10504424Y-11174614D01*
X10513948Y-11155567D01*
X10532995Y-11146043D01*
X10561567Y-11146043D01*
X10580614Y-11155567D01*
X10656805Y-11355567D02*
X10666329Y-11346043D01*
X10685376Y-11317471D01*
X10694900Y-11298424D01*
X10704424Y-11269852D01*
X10713948Y-11222233D01*
X10713948Y-11184138D01*
X10704424Y-11136519D01*
X10694900Y-11107948D01*
X10685376Y-11088900D01*
X10666329Y-11060329D01*
X10656805Y-11050805D01*
X11018710Y-11355567D02*
X11009186Y-11346043D01*
X10990138Y-11317471D01*
X10980614Y-11298424D01*
X10971090Y-11269852D01*
X10961567Y-11222233D01*
X10961567Y-11184138D01*
X10971090Y-11136519D01*
X10980614Y-11107948D01*
X10990138Y-11088900D01*
X11009186Y-11060329D01*
X11018710Y-11050805D01*
X11094900Y-11146043D02*
X11094900Y-11279376D01*
X11094900Y-11165090D02*
X11104424Y-11155567D01*
X11123471Y-11146043D01*
X11152043Y-11146043D01*
X11171090Y-11155567D01*
X11180614Y-11174614D01*
X11180614Y-11279376D01*
X11304424Y-11279376D02*
X11285376Y-11269852D01*
X11275852Y-11260328D01*
X11266328Y-11241281D01*
X11266328Y-11184138D01*
X11275852Y-11165090D01*
X11285376Y-11155567D01*
X11304424Y-11146043D01*
X11332995Y-11146043D01*
X11352043Y-11155567D01*
X11361567Y-11165090D01*
X11371090Y-11184138D01*
X11371090Y-11241281D01*
X11361567Y-11260328D01*
X11352043Y-11269852D01*
X11332995Y-11279376D01*
X11304424Y-11279376D01*
X11428233Y-11146043D02*
X11504424Y-11146043D01*
X11456805Y-11079376D02*
X11456805Y-11250805D01*
X11466328Y-11269852D01*
X11485376Y-11279376D01*
X11504424Y-11279376D01*
X11723471Y-11146043D02*
X11723471Y-11346043D01*
X11723471Y-11155567D02*
X11742519Y-11146043D01*
X11780614Y-11146043D01*
X11799662Y-11155567D01*
X11809186Y-11165090D01*
X11818709Y-11184138D01*
X11818709Y-11241281D01*
X11809186Y-11260328D01*
X11799662Y-11269852D01*
X11780614Y-11279376D01*
X11742519Y-11279376D01*
X11723471Y-11269852D01*
X11932995Y-11279376D02*
X11913948Y-11269852D01*
X11904424Y-11250805D01*
X11904424Y-11079376D01*
X12094900Y-11279376D02*
X12094900Y-11174614D01*
X12085376Y-11155567D01*
X12066328Y-11146043D01*
X12028233Y-11146043D01*
X12009186Y-11155567D01*
X12094900Y-11269852D02*
X12075852Y-11279376D01*
X12028233Y-11279376D01*
X12009186Y-11269852D01*
X11999662Y-11250805D01*
X11999662Y-11231757D01*
X12009186Y-11212709D01*
X12028233Y-11203186D01*
X12075852Y-11203186D01*
X12094900Y-11193662D01*
X12161567Y-11146043D02*
X12237757Y-11146043D01*
X12190138Y-11079376D02*
X12190138Y-11250805D01*
X12199662Y-11269852D01*
X12218709Y-11279376D01*
X12237757Y-11279376D01*
X12380614Y-11269852D02*
X12361567Y-11279376D01*
X12323471Y-11279376D01*
X12304424Y-11269852D01*
X12294900Y-11250805D01*
X12294900Y-11174614D01*
X12304424Y-11155567D01*
X12323471Y-11146043D01*
X12361567Y-11146043D01*
X12380614Y-11155567D01*
X12390138Y-11174614D01*
X12390138Y-11193662D01*
X12294900Y-11212709D01*
X12561567Y-11279376D02*
X12561567Y-11079376D01*
X12561567Y-11269852D02*
X12542519Y-11279376D01*
X12504424Y-11279376D01*
X12485376Y-11269852D01*
X12475852Y-11260328D01*
X12466328Y-11241281D01*
X12466328Y-11184138D01*
X12475852Y-11165090D01*
X12485376Y-11155567D01*
X12504424Y-11146043D01*
X12542519Y-11146043D01*
X12561567Y-11155567D01*
X12637757Y-11355567D02*
X12647281Y-11346043D01*
X12666328Y-11317471D01*
X12675852Y-11298424D01*
X12685376Y-11269852D01*
X12694900Y-11222233D01*
X12694900Y-11184138D01*
X12685376Y-11136519D01*
X12675852Y-11107948D01*
X12666328Y-11088900D01*
X12647281Y-11060329D01*
X12637757Y-11050805D01*
X5884900Y-11452900D02*
G75*
G03*
X5884900Y-11452900I-100000J0D01*
G01*
X6132995Y-11362424D02*
X6142519Y-11352900D01*
X6161567Y-11343376D01*
X6209186Y-11343376D01*
X6228233Y-11352900D01*
X6237757Y-11362424D01*
X6247281Y-11381471D01*
X6247281Y-11400519D01*
X6237757Y-11429090D01*
X6123471Y-11543376D01*
X6247281Y-11543376D01*
X6332995Y-11524328D02*
X6342519Y-11533852D01*
X6332995Y-11543376D01*
X6323471Y-11533852D01*
X6332995Y-11524328D01*
X6332995Y-11543376D01*
X6409186Y-11343376D02*
X6532995Y-11343376D01*
X6466328Y-11419567D01*
X6494900Y-11419567D01*
X6513948Y-11429090D01*
X6523471Y-11438614D01*
X6532995Y-11457662D01*
X6532995Y-11505281D01*
X6523471Y-11524328D01*
X6513948Y-11533852D01*
X6494900Y-11543376D01*
X6437757Y-11543376D01*
X6418709Y-11533852D01*
X6409186Y-11524328D01*
X6599662Y-11343376D02*
X6732995Y-11343376D01*
X6647281Y-11543376D01*
X6904424Y-11343376D02*
X6809186Y-11343376D01*
X6799662Y-11438614D01*
X6809186Y-11429090D01*
X6828233Y-11419567D01*
X6875852Y-11419567D01*
X6894900Y-11429090D01*
X6904424Y-11438614D01*
X6913948Y-11457662D01*
X6913948Y-11505281D01*
X6904424Y-11524328D01*
X6894900Y-11533852D01*
X6875852Y-11543376D01*
X6828233Y-11543376D01*
X6809186Y-11533852D01*
X6799662Y-11524328D01*
X6999662Y-11543376D02*
X6999662Y-11410043D01*
X6999662Y-11429090D02*
X7009186Y-11419567D01*
X7028233Y-11410043D01*
X7056805Y-11410043D01*
X7075852Y-11419567D01*
X7085376Y-11438614D01*
X7085376Y-11543376D01*
X7085376Y-11438614D02*
X7094900Y-11419567D01*
X7113948Y-11410043D01*
X7142519Y-11410043D01*
X7161567Y-11419567D01*
X7171090Y-11438614D01*
X7171090Y-11543376D01*
X7266328Y-11543376D02*
X7266328Y-11410043D01*
X7266328Y-11429090D02*
X7275852Y-11419567D01*
X7294900Y-11410043D01*
X7323471Y-11410043D01*
X7342519Y-11419567D01*
X7352043Y-11438614D01*
X7352043Y-11543376D01*
X7352043Y-11438614D02*
X7361567Y-11419567D01*
X7380614Y-11410043D01*
X7409186Y-11410043D01*
X7428233Y-11419567D01*
X7437757Y-11438614D01*
X7437757Y-11543376D01*
X7828233Y-11333852D02*
X7656805Y-11590995D01*
X8085376Y-11343376D02*
X8104424Y-11343376D01*
X8123471Y-11352900D01*
X8132995Y-11362424D01*
X8142519Y-11381471D01*
X8152043Y-11419567D01*
X8152043Y-11467186D01*
X8142519Y-11505281D01*
X8132995Y-11524328D01*
X8123471Y-11533852D01*
X8104424Y-11543376D01*
X8085376Y-11543376D01*
X8066328Y-11533852D01*
X8056805Y-11524328D01*
X8047281Y-11505281D01*
X8037757Y-11467186D01*
X8037757Y-11419567D01*
X8047281Y-11381471D01*
X8056805Y-11362424D01*
X8066328Y-11352900D01*
X8085376Y-11343376D01*
X8237757Y-11524328D02*
X8247281Y-11533852D01*
X8237757Y-11543376D01*
X8228233Y-11533852D01*
X8237757Y-11524328D01*
X8237757Y-11543376D01*
X8371090Y-11343376D02*
X8390138Y-11343376D01*
X8409186Y-11352900D01*
X8418710Y-11362424D01*
X8428233Y-11381471D01*
X8437757Y-11419567D01*
X8437757Y-11467186D01*
X8428233Y-11505281D01*
X8418710Y-11524328D01*
X8409186Y-11533852D01*
X8390138Y-11543376D01*
X8371090Y-11543376D01*
X8352043Y-11533852D01*
X8342519Y-11524328D01*
X8332995Y-11505281D01*
X8323471Y-11467186D01*
X8323471Y-11419567D01*
X8332995Y-11381471D01*
X8342519Y-11362424D01*
X8352043Y-11352900D01*
X8371090Y-11343376D01*
X8532995Y-11543376D02*
X8571090Y-11543376D01*
X8590138Y-11533852D01*
X8599662Y-11524328D01*
X8618710Y-11495757D01*
X8628233Y-11457662D01*
X8628233Y-11381471D01*
X8618710Y-11362424D01*
X8609186Y-11352900D01*
X8590138Y-11343376D01*
X8552043Y-11343376D01*
X8532995Y-11352900D01*
X8523471Y-11362424D01*
X8513948Y-11381471D01*
X8513948Y-11429090D01*
X8523471Y-11448138D01*
X8532995Y-11457662D01*
X8552043Y-11467186D01*
X8590138Y-11467186D01*
X8609186Y-11457662D01*
X8618710Y-11448138D01*
X8628233Y-11429090D01*
X8694900Y-11343376D02*
X8818710Y-11343376D01*
X8752043Y-11419567D01*
X8780614Y-11419567D01*
X8799662Y-11429090D01*
X8809186Y-11438614D01*
X8818710Y-11457662D01*
X8818710Y-11505281D01*
X8809186Y-11524328D01*
X8799662Y-11533852D01*
X8780614Y-11543376D01*
X8723471Y-11543376D01*
X8704424Y-11533852D01*
X8694900Y-11524328D01*
X8999662Y-11343376D02*
X8904424Y-11343376D01*
X8894900Y-11438614D01*
X8904424Y-11429090D01*
X8923471Y-11419567D01*
X8971090Y-11419567D01*
X8990138Y-11429090D01*
X8999662Y-11438614D01*
X9009186Y-11457662D01*
X9009186Y-11505281D01*
X8999662Y-11524328D01*
X8990138Y-11533852D01*
X8971090Y-11543376D01*
X8923471Y-11543376D01*
X8904424Y-11533852D01*
X8894900Y-11524328D01*
X9085376Y-11343376D02*
X9085376Y-11381471D01*
X9161567Y-11343376D02*
X9161567Y-11381471D01*
X9456805Y-11619567D02*
X9447281Y-11610043D01*
X9428233Y-11581471D01*
X9418710Y-11562424D01*
X9409186Y-11533852D01*
X9399662Y-11486233D01*
X9399662Y-11448138D01*
X9409186Y-11400519D01*
X9418710Y-11371948D01*
X9428233Y-11352900D01*
X9447281Y-11324328D01*
X9456805Y-11314805D01*
X9618710Y-11410043D02*
X9618710Y-11543376D01*
X9571090Y-11333852D02*
X9523471Y-11476709D01*
X9647281Y-11476709D01*
X9875852Y-11543376D02*
X9875852Y-11343376D01*
X9961567Y-11543376D02*
X9961567Y-11438614D01*
X9952043Y-11419567D01*
X9932995Y-11410043D01*
X9904424Y-11410043D01*
X9885376Y-11419567D01*
X9875852Y-11429090D01*
X10085376Y-11543376D02*
X10066329Y-11533852D01*
X10056805Y-11524328D01*
X10047281Y-11505281D01*
X10047281Y-11448138D01*
X10056805Y-11429090D01*
X10066329Y-11419567D01*
X10085376Y-11410043D01*
X10113948Y-11410043D01*
X10132995Y-11419567D01*
X10142519Y-11429090D01*
X10152043Y-11448138D01*
X10152043Y-11505281D01*
X10142519Y-11524328D01*
X10132995Y-11533852D01*
X10113948Y-11543376D01*
X10085376Y-11543376D01*
X10266329Y-11543376D02*
X10247281Y-11533852D01*
X10237757Y-11514805D01*
X10237757Y-11343376D01*
X10418710Y-11533852D02*
X10399662Y-11543376D01*
X10361567Y-11543376D01*
X10342519Y-11533852D01*
X10332995Y-11514805D01*
X10332995Y-11438614D01*
X10342519Y-11419567D01*
X10361567Y-11410043D01*
X10399662Y-11410043D01*
X10418710Y-11419567D01*
X10428233Y-11438614D01*
X10428233Y-11457662D01*
X10332995Y-11476709D01*
X10504424Y-11533852D02*
X10523471Y-11543376D01*
X10561567Y-11543376D01*
X10580614Y-11533852D01*
X10590138Y-11514805D01*
X10590138Y-11505281D01*
X10580614Y-11486233D01*
X10561567Y-11476709D01*
X10532995Y-11476709D01*
X10513948Y-11467186D01*
X10504424Y-11448138D01*
X10504424Y-11438614D01*
X10513948Y-11419567D01*
X10532995Y-11410043D01*
X10561567Y-11410043D01*
X10580614Y-11419567D01*
X10656805Y-11619567D02*
X10666329Y-11610043D01*
X10685376Y-11581471D01*
X10694900Y-11562424D01*
X10704424Y-11533852D01*
X10713948Y-11486233D01*
X10713948Y-11448138D01*
X10704424Y-11400519D01*
X10694900Y-11371948D01*
X10685376Y-11352900D01*
X10666329Y-11324328D01*
X10656805Y-11314805D01*
X11018710Y-11619567D02*
X11009186Y-11610043D01*
X10990138Y-11581471D01*
X10980614Y-11562424D01*
X10971090Y-11533852D01*
X10961567Y-11486233D01*
X10961567Y-11448138D01*
X10971090Y-11400519D01*
X10980614Y-11371948D01*
X10990138Y-11352900D01*
X11009186Y-11324328D01*
X11018710Y-11314805D01*
X11094900Y-11410043D02*
X11094900Y-11543376D01*
X11094900Y-11429090D02*
X11104424Y-11419567D01*
X11123471Y-11410043D01*
X11152043Y-11410043D01*
X11171090Y-11419567D01*
X11180614Y-11438614D01*
X11180614Y-11543376D01*
X11304424Y-11543376D02*
X11285376Y-11533852D01*
X11275852Y-11524328D01*
X11266328Y-11505281D01*
X11266328Y-11448138D01*
X11275852Y-11429090D01*
X11285376Y-11419567D01*
X11304424Y-11410043D01*
X11332995Y-11410043D01*
X11352043Y-11419567D01*
X11361567Y-11429090D01*
X11371090Y-11448138D01*
X11371090Y-11505281D01*
X11361567Y-11524328D01*
X11352043Y-11533852D01*
X11332995Y-11543376D01*
X11304424Y-11543376D01*
X11428233Y-11410043D02*
X11504424Y-11410043D01*
X11456805Y-11343376D02*
X11456805Y-11514805D01*
X11466328Y-11533852D01*
X11485376Y-11543376D01*
X11504424Y-11543376D01*
X11723471Y-11410043D02*
X11723471Y-11610043D01*
X11723471Y-11419567D02*
X11742519Y-11410043D01*
X11780614Y-11410043D01*
X11799662Y-11419567D01*
X11809186Y-11429090D01*
X11818709Y-11448138D01*
X11818709Y-11505281D01*
X11809186Y-11524328D01*
X11799662Y-11533852D01*
X11780614Y-11543376D01*
X11742519Y-11543376D01*
X11723471Y-11533852D01*
X11932995Y-11543376D02*
X11913948Y-11533852D01*
X11904424Y-11514805D01*
X11904424Y-11343376D01*
X12094900Y-11543376D02*
X12094900Y-11438614D01*
X12085376Y-11419567D01*
X12066328Y-11410043D01*
X12028233Y-11410043D01*
X12009186Y-11419567D01*
X12094900Y-11533852D02*
X12075852Y-11543376D01*
X12028233Y-11543376D01*
X12009186Y-11533852D01*
X11999662Y-11514805D01*
X11999662Y-11495757D01*
X12009186Y-11476709D01*
X12028233Y-11467186D01*
X12075852Y-11467186D01*
X12094900Y-11457662D01*
X12161567Y-11410043D02*
X12237757Y-11410043D01*
X12190138Y-11343376D02*
X12190138Y-11514805D01*
X12199662Y-11533852D01*
X12218709Y-11543376D01*
X12237757Y-11543376D01*
X12380614Y-11533852D02*
X12361567Y-11543376D01*
X12323471Y-11543376D01*
X12304424Y-11533852D01*
X12294900Y-11514805D01*
X12294900Y-11438614D01*
X12304424Y-11419567D01*
X12323471Y-11410043D01*
X12361567Y-11410043D01*
X12380614Y-11419567D01*
X12390138Y-11438614D01*
X12390138Y-11457662D01*
X12294900Y-11476709D01*
X12561567Y-11543376D02*
X12561567Y-11343376D01*
X12561567Y-11533852D02*
X12542519Y-11543376D01*
X12504424Y-11543376D01*
X12485376Y-11533852D01*
X12475852Y-11524328D01*
X12466328Y-11505281D01*
X12466328Y-11448138D01*
X12475852Y-11429090D01*
X12485376Y-11419567D01*
X12504424Y-11410043D01*
X12542519Y-11410043D01*
X12561567Y-11419567D01*
X12637757Y-11619567D02*
X12647281Y-11610043D01*
X12666328Y-11581471D01*
X12675852Y-11562424D01*
X12685376Y-11533852D01*
X12694900Y-11486233D01*
X12694900Y-11448138D01*
X12685376Y-11400519D01*
X12675852Y-11371948D01*
X12666328Y-11352900D01*
X12647281Y-11324328D01*
X12637757Y-11314805D01*
X5784900Y-11672900D02*
X5784900Y-11872900D01*
X5684900Y-11772900D02*
X5884900Y-11772900D01*
X6123471Y-11663376D02*
X6247281Y-11663376D01*
X6180614Y-11739567D01*
X6209186Y-11739567D01*
X6228233Y-11749090D01*
X6237757Y-11758614D01*
X6247281Y-11777662D01*
X6247281Y-11825281D01*
X6237757Y-11844328D01*
X6228233Y-11853852D01*
X6209186Y-11863376D01*
X6152043Y-11863376D01*
X6132995Y-11853852D01*
X6123471Y-11844328D01*
X6332995Y-11844328D02*
X6342519Y-11853852D01*
X6332995Y-11863376D01*
X6323471Y-11853852D01*
X6332995Y-11844328D01*
X6332995Y-11863376D01*
X6466328Y-11663376D02*
X6485376Y-11663376D01*
X6504424Y-11672900D01*
X6513948Y-11682424D01*
X6523471Y-11701471D01*
X6532995Y-11739567D01*
X6532995Y-11787186D01*
X6523471Y-11825281D01*
X6513948Y-11844328D01*
X6504424Y-11853852D01*
X6485376Y-11863376D01*
X6466328Y-11863376D01*
X6447281Y-11853852D01*
X6437757Y-11844328D01*
X6428233Y-11825281D01*
X6418709Y-11787186D01*
X6418709Y-11739567D01*
X6428233Y-11701471D01*
X6437757Y-11682424D01*
X6447281Y-11672900D01*
X6466328Y-11663376D01*
X6656805Y-11663376D02*
X6675852Y-11663376D01*
X6694900Y-11672900D01*
X6704424Y-11682424D01*
X6713948Y-11701471D01*
X6723471Y-11739567D01*
X6723471Y-11787186D01*
X6713948Y-11825281D01*
X6704424Y-11844328D01*
X6694900Y-11853852D01*
X6675852Y-11863376D01*
X6656805Y-11863376D01*
X6637757Y-11853852D01*
X6628233Y-11844328D01*
X6618709Y-11825281D01*
X6609186Y-11787186D01*
X6609186Y-11739567D01*
X6618709Y-11701471D01*
X6628233Y-11682424D01*
X6637757Y-11672900D01*
X6656805Y-11663376D01*
X6847281Y-11663376D02*
X6866328Y-11663376D01*
X6885376Y-11672900D01*
X6894900Y-11682424D01*
X6904424Y-11701471D01*
X6913948Y-11739567D01*
X6913948Y-11787186D01*
X6904424Y-11825281D01*
X6894900Y-11844328D01*
X6885376Y-11853852D01*
X6866328Y-11863376D01*
X6847281Y-11863376D01*
X6828233Y-11853852D01*
X6818709Y-11844328D01*
X6809186Y-11825281D01*
X6799662Y-11787186D01*
X6799662Y-11739567D01*
X6809186Y-11701471D01*
X6818709Y-11682424D01*
X6828233Y-11672900D01*
X6847281Y-11663376D01*
X6999662Y-11863376D02*
X6999662Y-11730043D01*
X6999662Y-11749090D02*
X7009186Y-11739567D01*
X7028233Y-11730043D01*
X7056805Y-11730043D01*
X7075852Y-11739567D01*
X7085376Y-11758614D01*
X7085376Y-11863376D01*
X7085376Y-11758614D02*
X7094900Y-11739567D01*
X7113948Y-11730043D01*
X7142519Y-11730043D01*
X7161567Y-11739567D01*
X7171090Y-11758614D01*
X7171090Y-11863376D01*
X7266328Y-11863376D02*
X7266328Y-11730043D01*
X7266328Y-11749090D02*
X7275852Y-11739567D01*
X7294900Y-11730043D01*
X7323471Y-11730043D01*
X7342519Y-11739567D01*
X7352043Y-11758614D01*
X7352043Y-11863376D01*
X7352043Y-11758614D02*
X7361567Y-11739567D01*
X7380614Y-11730043D01*
X7409186Y-11730043D01*
X7428233Y-11739567D01*
X7437757Y-11758614D01*
X7437757Y-11863376D01*
X7828233Y-11653852D02*
X7656805Y-11910995D01*
X8085376Y-11663376D02*
X8104424Y-11663376D01*
X8123471Y-11672900D01*
X8132995Y-11682424D01*
X8142519Y-11701471D01*
X8152043Y-11739567D01*
X8152043Y-11787186D01*
X8142519Y-11825281D01*
X8132995Y-11844328D01*
X8123471Y-11853852D01*
X8104424Y-11863376D01*
X8085376Y-11863376D01*
X8066328Y-11853852D01*
X8056805Y-11844328D01*
X8047281Y-11825281D01*
X8037757Y-11787186D01*
X8037757Y-11739567D01*
X8047281Y-11701471D01*
X8056805Y-11682424D01*
X8066328Y-11672900D01*
X8085376Y-11663376D01*
X8237757Y-11844328D02*
X8247281Y-11853852D01*
X8237757Y-11863376D01*
X8228233Y-11853852D01*
X8237757Y-11844328D01*
X8237757Y-11863376D01*
X8437757Y-11863376D02*
X8323471Y-11863376D01*
X8380614Y-11863376D02*
X8380614Y-11663376D01*
X8361567Y-11691948D01*
X8342519Y-11710995D01*
X8323471Y-11720519D01*
X8628233Y-11863376D02*
X8513948Y-11863376D01*
X8571090Y-11863376D02*
X8571090Y-11663376D01*
X8552043Y-11691948D01*
X8532995Y-11710995D01*
X8513948Y-11720519D01*
X8742519Y-11749090D02*
X8723471Y-11739567D01*
X8713948Y-11730043D01*
X8704424Y-11710995D01*
X8704424Y-11701471D01*
X8713948Y-11682424D01*
X8723471Y-11672900D01*
X8742519Y-11663376D01*
X8780614Y-11663376D01*
X8799662Y-11672900D01*
X8809186Y-11682424D01*
X8818710Y-11701471D01*
X8818710Y-11710995D01*
X8809186Y-11730043D01*
X8799662Y-11739567D01*
X8780614Y-11749090D01*
X8742519Y-11749090D01*
X8723471Y-11758614D01*
X8713948Y-11768138D01*
X8704424Y-11787186D01*
X8704424Y-11825281D01*
X8713948Y-11844328D01*
X8723471Y-11853852D01*
X8742519Y-11863376D01*
X8780614Y-11863376D01*
X8799662Y-11853852D01*
X8809186Y-11844328D01*
X8818710Y-11825281D01*
X8818710Y-11787186D01*
X8809186Y-11768138D01*
X8799662Y-11758614D01*
X8780614Y-11749090D01*
X9009186Y-11863376D02*
X8894900Y-11863376D01*
X8952043Y-11863376D02*
X8952043Y-11663376D01*
X8932995Y-11691948D01*
X8913948Y-11710995D01*
X8894900Y-11720519D01*
X9085376Y-11663376D02*
X9085376Y-11701471D01*
X9161567Y-11663376D02*
X9161567Y-11701471D01*
X9456805Y-11939567D02*
X9447281Y-11930043D01*
X9428233Y-11901471D01*
X9418710Y-11882424D01*
X9409186Y-11853852D01*
X9399662Y-11806233D01*
X9399662Y-11768138D01*
X9409186Y-11720519D01*
X9418710Y-11691948D01*
X9428233Y-11672900D01*
X9447281Y-11644328D01*
X9456805Y-11634805D01*
X9513948Y-11663376D02*
X9637757Y-11663376D01*
X9571090Y-11739567D01*
X9599662Y-11739567D01*
X9618710Y-11749090D01*
X9628233Y-11758614D01*
X9637757Y-11777662D01*
X9637757Y-11825281D01*
X9628233Y-11844328D01*
X9618710Y-11853852D01*
X9599662Y-11863376D01*
X9542519Y-11863376D01*
X9523471Y-11853852D01*
X9513948Y-11844328D01*
X9875852Y-11863376D02*
X9875852Y-11663376D01*
X9961567Y-11863376D02*
X9961567Y-11758614D01*
X9952043Y-11739567D01*
X9932995Y-11730043D01*
X9904424Y-11730043D01*
X9885376Y-11739567D01*
X9875852Y-11749090D01*
X10085376Y-11863376D02*
X10066329Y-11853852D01*
X10056805Y-11844328D01*
X10047281Y-11825281D01*
X10047281Y-11768138D01*
X10056805Y-11749090D01*
X10066329Y-11739567D01*
X10085376Y-11730043D01*
X10113948Y-11730043D01*
X10132995Y-11739567D01*
X10142519Y-11749090D01*
X10152043Y-11768138D01*
X10152043Y-11825281D01*
X10142519Y-11844328D01*
X10132995Y-11853852D01*
X10113948Y-11863376D01*
X10085376Y-11863376D01*
X10266329Y-11863376D02*
X10247281Y-11853852D01*
X10237757Y-11834805D01*
X10237757Y-11663376D01*
X10418710Y-11853852D02*
X10399662Y-11863376D01*
X10361567Y-11863376D01*
X10342519Y-11853852D01*
X10332995Y-11834805D01*
X10332995Y-11758614D01*
X10342519Y-11739567D01*
X10361567Y-11730043D01*
X10399662Y-11730043D01*
X10418710Y-11739567D01*
X10428233Y-11758614D01*
X10428233Y-11777662D01*
X10332995Y-11796709D01*
X10504424Y-11853852D02*
X10523471Y-11863376D01*
X10561567Y-11863376D01*
X10580614Y-11853852D01*
X10590138Y-11834805D01*
X10590138Y-11825281D01*
X10580614Y-11806233D01*
X10561567Y-11796709D01*
X10532995Y-11796709D01*
X10513948Y-11787186D01*
X10504424Y-11768138D01*
X10504424Y-11758614D01*
X10513948Y-11739567D01*
X10532995Y-11730043D01*
X10561567Y-11730043D01*
X10580614Y-11739567D01*
X10656805Y-11939567D02*
X10666329Y-11930043D01*
X10685376Y-11901471D01*
X10694900Y-11882424D01*
X10704424Y-11853852D01*
X10713948Y-11806233D01*
X10713948Y-11768138D01*
X10704424Y-11720519D01*
X10694900Y-11691948D01*
X10685376Y-11672900D01*
X10666329Y-11644328D01*
X10656805Y-11634805D01*
X11018710Y-11939567D02*
X11009186Y-11930043D01*
X10990138Y-11901471D01*
X10980614Y-11882424D01*
X10971090Y-11853852D01*
X10961567Y-11806233D01*
X10961567Y-11768138D01*
X10971090Y-11720519D01*
X10980614Y-11691948D01*
X10990138Y-11672900D01*
X11009186Y-11644328D01*
X11018710Y-11634805D01*
X11094900Y-11730043D02*
X11094900Y-11863376D01*
X11094900Y-11749090D02*
X11104424Y-11739567D01*
X11123471Y-11730043D01*
X11152043Y-11730043D01*
X11171090Y-11739567D01*
X11180614Y-11758614D01*
X11180614Y-11863376D01*
X11304424Y-11863376D02*
X11285376Y-11853852D01*
X11275852Y-11844328D01*
X11266328Y-11825281D01*
X11266328Y-11768138D01*
X11275852Y-11749090D01*
X11285376Y-11739567D01*
X11304424Y-11730043D01*
X11332995Y-11730043D01*
X11352043Y-11739567D01*
X11361567Y-11749090D01*
X11371090Y-11768138D01*
X11371090Y-11825281D01*
X11361567Y-11844328D01*
X11352043Y-11853852D01*
X11332995Y-11863376D01*
X11304424Y-11863376D01*
X11428233Y-11730043D02*
X11504424Y-11730043D01*
X11456805Y-11663376D02*
X11456805Y-11834805D01*
X11466328Y-11853852D01*
X11485376Y-11863376D01*
X11504424Y-11863376D01*
X11723471Y-11730043D02*
X11723471Y-11930043D01*
X11723471Y-11739567D02*
X11742519Y-11730043D01*
X11780614Y-11730043D01*
X11799662Y-11739567D01*
X11809186Y-11749090D01*
X11818709Y-11768138D01*
X11818709Y-11825281D01*
X11809186Y-11844328D01*
X11799662Y-11853852D01*
X11780614Y-11863376D01*
X11742519Y-11863376D01*
X11723471Y-11853852D01*
X11932995Y-11863376D02*
X11913948Y-11853852D01*
X11904424Y-11834805D01*
X11904424Y-11663376D01*
X12094900Y-11863376D02*
X12094900Y-11758614D01*
X12085376Y-11739567D01*
X12066328Y-11730043D01*
X12028233Y-11730043D01*
X12009186Y-11739567D01*
X12094900Y-11853852D02*
X12075852Y-11863376D01*
X12028233Y-11863376D01*
X12009186Y-11853852D01*
X11999662Y-11834805D01*
X11999662Y-11815757D01*
X12009186Y-11796709D01*
X12028233Y-11787186D01*
X12075852Y-11787186D01*
X12094900Y-11777662D01*
X12161567Y-11730043D02*
X12237757Y-11730043D01*
X12190138Y-11663376D02*
X12190138Y-11834805D01*
X12199662Y-11853852D01*
X12218709Y-11863376D01*
X12237757Y-11863376D01*
X12380614Y-11853852D02*
X12361567Y-11863376D01*
X12323471Y-11863376D01*
X12304424Y-11853852D01*
X12294900Y-11834805D01*
X12294900Y-11758614D01*
X12304424Y-11739567D01*
X12323471Y-11730043D01*
X12361567Y-11730043D01*
X12380614Y-11739567D01*
X12390138Y-11758614D01*
X12390138Y-11777662D01*
X12294900Y-11796709D01*
X12561567Y-11863376D02*
X12561567Y-11663376D01*
X12561567Y-11853852D02*
X12542519Y-11863376D01*
X12504424Y-11863376D01*
X12485376Y-11853852D01*
X12475852Y-11844328D01*
X12466328Y-11825281D01*
X12466328Y-11768138D01*
X12475852Y-11749090D01*
X12485376Y-11739567D01*
X12504424Y-11730043D01*
X12542519Y-11730043D01*
X12561567Y-11739567D01*
X12637757Y-11939567D02*
X12647281Y-11930043D01*
X12666328Y-11901471D01*
X12675852Y-11882424D01*
X12685376Y-11853852D01*
X12694900Y-11806233D01*
X12694900Y-11768138D01*
X12685376Y-11720519D01*
X12675852Y-11691948D01*
X12666328Y-11672900D01*
X12647281Y-11644328D01*
X12637757Y-11634805D01*
M02*
